solid Leg first attempt
facet normal 0.0 0.0 1.0
  outer loop
    vertex 5.835234531078496 11.840007494883107 0.9999999999999999
    vertex 5.835234531078493 107.34000749488312 0.9999999999999999
    vertex 5.835234531078493 9.340007494883105 0.9999999999999999
  endloop
endfacet
facet normal 0.0 0.0 1.0
  outer loop
    vertex 5.835234531078493 107.34000749488312 0.9999999999999999
    vertex 5.835234531078496 11.840007494883107 0.9999999999999999
    vertex 5.835234531078496 104.84000749488312 0.9999999999999999
  endloop
endfacet
facet normal 0.0 0.0 1.0
  outer loop
    vertex 5.835234531078496 104.84000749488312 0.9999999999999999
    vertex 5.835234531078496 11.840007494883107 0.9999999999999999
    vertex 5.886345791644893 12.228236062536887 0.9999999999999999
  endloop
endfacet
facet normal 0.0 0.0 1.0
  outer loop
    vertex 5.835234531078496 104.84000749488312 0.9999999999999999
    vertex 5.886345791644893 12.228236062536887 0.9999999999999999
    vertex 5.886345791644893 104.45177892722934 0.9999999999999999
  endloop
endfacet
facet normal 0.0 0.0 1.0
  outer loop
    vertex 5.886345791644893 104.45177892722934 0.9999999999999999
    vertex 5.886345791644893 12.228236062536887 0.9999999999999999
    vertex 6.036196425401837 12.590007494883105 0.9999999999999999
  endloop
endfacet
facet normal 0.0 0.0 1.0
  outer loop
    vertex 5.886345791644893 104.45177892722934 0.9999999999999999
    vertex 6.036196425401837 12.590007494883105 0.9999999999999999
    vertex 6.036196425401837 104.09000749488311 0.9999999999999999
  endloop
endfacet
facet normal 0.0 0.0 1.0
  outer loop
    vertex 6.036196425401837 104.09000749488311 0.9999999999999999
    vertex 6.036196425401837 12.590007494883105 0.9999999999999999
    vertex 6.274574359298674 12.900667666662926 0.9999999999999999
  endloop
endfacet
facet normal 0.0 0.0 1.0
  outer loop
    vertex 6.036196425401837 104.09000749488311 0.9999999999999999
    vertex 6.274574359298674 12.900667666662926 0.9999999999999999
    vertex 6.274574359298674 103.7793473231033 0.9999999999999999
  endloop
endfacet
facet normal 0.0 0.0 1.0
  outer loop
    vertex 6.274574359298674 103.7793473231033 0.9999999999999999
    vertex 6.274574359298674 12.900667666662926 0.9999999999999999
    vertex 6.585234531078495 13.139045600559763 0.9999999999999999
  endloop
endfacet
facet normal 0.0 0.0 1.0
  outer loop
    vertex 6.274574359298674 103.7793473231033 0.9999999999999999
    vertex 6.585234531078495 13.139045600559763 0.9999999999999999
    vertex 6.585234531078495 103.54096938920647 0.9999999999999999
  endloop
endfacet
facet normal 0.0 0.0 1.0
  outer loop
    vertex 6.585234531078495 103.54096938920647 0.9999999999999999
    vertex 6.585234531078495 13.139045600559763 0.9999999999999999
    vertex 6.947005963424711 13.288896234316708 0.9999999999999999
  endloop
endfacet
facet normal 0.0 0.0 1.0
  outer loop
    vertex 6.585234531078495 103.54096938920647 0.9999999999999999
    vertex 6.947005963424711 13.288896234316708 0.9999999999999999
    vertex 6.947005963424713 103.39111875544953 0.9999999999999999
  endloop
endfacet
facet normal 0.0 0.0 1.0
  outer loop
    vertex 6.947005963424713 103.39111875544953 0.9999999999999999
    vertex 6.947005963424711 13.288896234316708 0.9999999999999999
    vertex 7.335234531078493 13.340007494883105 0.9999999999999999
  endloop
endfacet
facet normal 0.0 0.0 1.0
  outer loop
    vertex 6.947005963424713 103.39111875544953 0.9999999999999999
    vertex 7.335234531078493 13.340007494883105 0.9999999999999999
    vertex 7.335234531078493 103.34000749488312 0.9999999999999999
  endloop
endfacet
facet normal 0.0 0.0 1.0
  outer loop
    vertex 7.335234531078493 103.34000749488312 0.9999999999999999
    vertex 7.335234531078493 13.340007494883105 0.9999999999999999
    vertex 20.635234531078492 13.340007494883107 0.9999999999999999
  endloop
endfacet
facet normal 0.0 0.0 1.0
  outer loop
    vertex 7.335234531078493 103.34000749488312 0.9999999999999999
    vertex 20.635234531078492 13.340007494883107 0.9999999999999999
    vertex 20.63523453107849 103.34000749488312 0.9999999999999999
  endloop
endfacet
facet normal 0.0 0.0 1.0
  outer loop
    vertex 20.63523453107849 103.34000749488312 0.9999999999999999
    vertex 20.635234531078492 13.340007494883107 0.9999999999999999
    vertex 21.023463098732268 103.39111875544953 0.9999999999999999
  endloop
endfacet
facet normal 0.0 0.0 1.0
  outer loop
    vertex 21.023463098732268 103.39111875544953 0.9999999999999999
    vertex 20.635234531078492 13.340007494883107 0.9999999999999999
    vertex 21.02346309873227 13.28889623431671 0.9999999999999999
  endloop
endfacet
facet normal 0.0 0.0 1.0
  outer loop
    vertex 21.023463098732268 103.39111875544953 0.9999999999999999
    vertex 21.02346309873227 13.28889623431671 0.9999999999999999
    vertex 21.38523453107849 103.54096938920647 0.9999999999999999
  endloop
endfacet
facet normal 0.0 0.0 1.0
  outer loop
    vertex 21.38523453107849 103.54096938920647 0.9999999999999999
    vertex 21.02346309873227 13.28889623431671 0.9999999999999999
    vertex 21.38523453107849 13.139045600559767 0.9999999999999999
  endloop
endfacet
facet normal 0.0 0.0 1.0
  outer loop
    vertex 21.38523453107849 103.54096938920647 0.9999999999999999
    vertex 21.38523453107849 13.139045600559767 0.9999999999999999
    vertex 21.695894702858308 103.7793473231033 0.9999999999999999
  endloop
endfacet
facet normal 0.0 0.0 1.0
  outer loop
    vertex 21.695894702858308 103.7793473231033 0.9999999999999999
    vertex 21.38523453107849 13.139045600559767 0.9999999999999999
    vertex 21.69589470285831 12.900667666662928 0.9999999999999999
  endloop
endfacet
facet normal 0.0 0.0 1.0
  outer loop
    vertex 21.695894702858308 103.7793473231033 0.9999999999999999
    vertex 21.69589470285831 12.900667666662928 0.9999999999999999
    vertex 21.934272636755143 104.09000749488314 0.9999999999999999
  endloop
endfacet
facet normal 0.0 0.0 1.0
  outer loop
    vertex 21.934272636755143 104.09000749488314 0.9999999999999999
    vertex 21.69589470285831 12.900667666662928 0.9999999999999999
    vertex 21.93427263675515 12.590007494883107 0.9999999999999999
  endloop
endfacet
facet normal 0.0 0.0 1.0
  outer loop
    vertex 21.934272636755143 104.09000749488314 0.9999999999999999
    vertex 21.93427263675515 12.590007494883107 0.9999999999999999
    vertex 22.084123270512087 104.45177892722934 0.9999999999999999
  endloop
endfacet
facet normal 0.0 0.0 1.0
  outer loop
    vertex 22.084123270512087 104.45177892722934 0.9999999999999999
    vertex 21.93427263675515 12.590007494883107 0.9999999999999999
    vertex 22.084123270512094 12.228236062536888 0.9999999999999999
  endloop
endfacet
facet normal 0.0 0.0 1.0
  outer loop
    vertex 22.084123270512087 104.45177892722934 0.9999999999999999
    vertex 22.084123270512094 12.228236062536888 0.9999999999999999
    vertex 22.135234531078485 104.84000749488312 0.9999999999999999
  endloop
endfacet
facet normal 0.0 0.0 1.0
  outer loop
    vertex 22.135234531078485 104.84000749488312 0.9999999999999999
    vertex 22.084123270512094 12.228236062536888 0.9999999999999999
    vertex 22.135234531078492 11.840007494883107 0.9999999999999999
  endloop
endfacet
facet normal 0.0 0.0 1.0
  outer loop
    vertex 22.135234531078485 104.84000749488312 0.9999999999999999
    vertex 22.135234531078492 11.840007494883107 0.9999999999999999
    vertex 22.13523453107849 107.34000749488312 0.9999999999999999
  endloop
endfacet
facet normal 0.0 0.0 1.0
  outer loop
    vertex 3.005605399633149 8.545912269370499 0.9999999999999999
    vertex 2.835234531078493 106.84000749488312 0.9999999999999999
    vertex 2.83523453107849 9.840007494883103 0.9999999999999999
  endloop
endfacet
facet normal 0.0 0.0 1.0
  outer loop
    vertex 2.835234531078493 106.84000749488312 0.9999999999999999
    vertex 3.005605399633149 8.545912269370499 0.9999999999999999
    vertex 3.0056053996331586 108.13410272039572 0.9999999999999999
  endloop
endfacet
facet normal 0.0 0.0 1.0
  outer loop
    vertex 3.0056053996331586 108.13410272039572 0.9999999999999999
    vertex 3.005605399633149 8.545912269370499 0.9999999999999999
    vertex 3.505107512156297 7.340007494883103 0.9999999999999999
  endloop
endfacet
facet normal 0.0 0.0 1.0
  outer loop
    vertex 3.0056053996331586 108.13410272039572 0.9999999999999999
    vertex 3.505107512156297 7.340007494883103 0.9999999999999999
    vertex 3.298000730969758 108.84000749488311 0.9999999999999999
  endloop
endfacet
facet normal 0.0 0.0 1.0
  outer loop
    vertex 3.298000730969758 108.84000749488311 0.9999999999999999
    vertex 3.505107512156297 7.340007494883103 0.9999999999999999
    vertex 3.5051075121563047 109.34000749488311 0.9999999999999999
  endloop
endfacet
facet normal 0.0 0.0 1.0
  outer loop
    vertex 3.5051075121563047 109.34000749488311 0.9999999999999999
    vertex 3.505107512156297 7.340007494883103 0.9999999999999999
    vertex 4.299700625145752 6.3044735889503665 0.9999999999999999
  endloop
endfacet
facet normal 0.0 0.0 1.0
  outer loop
    vertex 3.5051075121563047 109.34000749488311 0.9999999999999999
    vertex 4.299700625145752 6.3044735889503665 0.9999999999999999
    vertex 4.299700625145761 110.37554140081585 0.9999999999999999
  endloop
endfacet
facet normal 0.0 0.0 1.0
  outer loop
    vertex 4.299700625145761 110.37554140081585 0.9999999999999999
    vertex 4.299700625145752 6.3044735889503665 0.9999999999999999
    vertex 5.335234531078489 5.509880475960911 0.9999999999999999
  endloop
endfacet
facet normal 0.0 0.0 1.0
  outer loop
    vertex 4.299700625145761 110.37554140081585 0.9999999999999999
    vertex 5.335234531078489 5.509880475960911 0.9999999999999999
    vertex 5.335234531078495 111.17013451380531 0.9999999999999999
  endloop
endfacet
facet normal 0.0 0.0 1.0
  outer loop
    vertex 5.335234531078495 111.17013451380531 0.9999999999999999
    vertex 5.335234531078489 5.509880475960911 0.9999999999999999
    vertex 5.835234531078493 9.340007494883105 0.9999999999999999
  endloop
endfacet
facet normal 0.0 0.0 1.0
  outer loop
    vertex 5.835234531078493 9.340007494883105 0.9999999999999999
    vertex 5.335234531078489 5.509880475960911 0.9999999999999999
    vertex 5.8863457916448905 8.951778927229324 0.9999999999999999
  endloop
endfacet
facet normal 0.0 0.0 1.0
  outer loop
    vertex 5.8863457916448905 8.951778927229324 0.9999999999999999
    vertex 5.335234531078489 5.509880475960911 0.9999999999999999
    vertex 6.541139305565886 5.010378363437763 0.9999999999999999
  endloop
endfacet
facet normal 0.0 0.0 1.0
  outer loop
    vertex 5.8863457916448905 8.951778927229324 0.9999999999999999
    vertex 6.541139305565886 5.010378363437763 0.9999999999999999
    vertex 6.036196425401835 8.590007494883105 0.9999999999999999
  endloop
endfacet
facet normal 0.0 0.0 1.0
  outer loop
    vertex 6.036196425401835 8.590007494883105 0.9999999999999999
    vertex 6.541139305565886 5.010378363437763 0.9999999999999999
    vertex 6.274574359298672 8.279347323103284 0.9999999999999999
  endloop
endfacet
facet normal 0.0 0.0 1.0
  outer loop
    vertex 6.274574359298672 8.279347323103284 0.9999999999999999
    vertex 6.541139305565886 5.010378363437763 0.9999999999999999
    vertex 6.585234531078493 8.040969389206447 0.9999999999999999
  endloop
endfacet
facet normal 0.0 0.0 1.0
  outer loop
    vertex 6.585234531078493 8.040969389206447 0.9999999999999999
    vertex 6.541139305565886 5.010378363437763 0.9999999999999999
    vertex 7.835234531078489 4.840007494883103 0.9999999999999999
  endloop
endfacet
facet normal 0.0 0.0 1.0
  outer loop
    vertex 6.585234531078493 8.040969389206447 0.9999999999999999
    vertex 7.835234531078489 4.840007494883103 0.9999999999999999
    vertex 6.947005963424711 7.891118755449503 0.9999999999999999
  endloop
endfacet
facet normal 0.0 0.0 1.0
  outer loop
    vertex 6.947005963424711 7.891118755449503 0.9999999999999999
    vertex 7.835234531078489 4.840007494883103 0.9999999999999999
    vertex 7.335234531078493 7.840007494883105 0.9999999999999999
  endloop
endfacet
facet normal 0.0 0.0 1.0
  outer loop
    vertex 7.335234531078493 7.840007494883105 0.9999999999999999
    vertex 7.835234531078489 4.840007494883103 0.9999999999999999
    vertex 20.63523453107849 7.840007494883106 0.9999999999999999
  endloop
endfacet
facet normal 0.0 0.0 1.0
  outer loop
    vertex 20.63523453107849 7.840007494883106 0.9999999999999999
    vertex 7.835234531078489 4.840007494883103 0.9999999999999999
    vertex 20.135234531078492 4.840007494883103 0.9999999999999999
  endloop
endfacet
facet normal 0.0 0.0 1.0
  outer loop
    vertex 20.63523453107849 7.840007494883106 0.9999999999999999
    vertex 20.135234531078492 4.840007494883103 0.9999999999999999
    vertex 21.4293297565911 5.010378363437762 0.9999999999999999
  endloop
endfacet
facet normal 0.0 0.0 1.0
  outer loop
    vertex 20.63523453107849 7.840007494883106 0.9999999999999999
    vertex 21.4293297565911 5.010378363437762 0.9999999999999999
    vertex 21.023463098732268 7.891118755449504 0.9999999999999999
  endloop
endfacet
facet normal 0.0 0.0 1.0
  outer loop
    vertex 21.023463098732268 7.891118755449504 0.9999999999999999
    vertex 21.4293297565911 5.010378363437762 0.9999999999999999
    vertex 21.38523453107849 8.040969389206449 0.9999999999999999
  endloop
endfacet
facet normal 0.0 0.0 1.0
  outer loop
    vertex 21.38523453107849 8.040969389206449 0.9999999999999999
    vertex 21.4293297565911 5.010378363437762 0.9999999999999999
    vertex 21.69589470285831 8.279347323103286 0.9999999999999999
  endloop
endfacet
facet normal 0.0 0.0 1.0
  outer loop
    vertex 21.69589470285831 8.279347323103286 0.9999999999999999
    vertex 21.4293297565911 5.010378363437762 0.9999999999999999
    vertex 22.635234531078492 5.509880475960911 0.9999999999999999
  endloop
endfacet
facet normal 0.0 0.0 1.0
  outer loop
    vertex 21.69589470285831 8.279347323103286 0.9999999999999999
    vertex 22.635234531078492 5.509880475960911 0.9999999999999999
    vertex 21.934272636755146 8.590007494883109 0.9999999999999999
  endloop
endfacet
facet normal 0.0 0.0 1.0
  outer loop
    vertex 21.934272636755146 8.590007494883109 0.9999999999999999
    vertex 22.635234531078492 5.509880475960911 0.9999999999999999
    vertex 22.08412327051209 8.951778927229327 0.9999999999999999
  endloop
endfacet
facet normal 0.0 0.0 1.0
  outer loop
    vertex 22.08412327051209 8.951778927229327 0.9999999999999999
    vertex 22.635234531078492 5.509880475960911 0.9999999999999999
    vertex 22.135234531078492 9.340007494883107 0.9999999999999999
  endloop
endfacet
facet normal 0.0 0.0 1.0
  outer loop
    vertex 22.135234531078492 9.340007494883107 0.9999999999999999
    vertex 22.635234531078492 5.509880475960911 0.9999999999999999
    vertex 22.135234531078492 11.840007494883107 0.9999999999999999
  endloop
endfacet
facet normal 0.0 0.0 1.0
  outer loop
    vertex 22.135234531078492 11.840007494883107 0.9999999999999999
    vertex 22.635234531078492 5.509880475960911 0.9999999999999999
    vertex 22.135234531078492 111.37724129499186 0.9999999999999999
  endloop
endfacet
facet normal 0.0 0.0 1.0
  outer loop
    vertex 22.135234531078492 111.37724129499186 0.9999999999999999
    vertex 22.635234531078492 5.509880475960911 0.9999999999999999
    vertex 22.63523453107849 111.17013451380531 0.9999999999999999
  endloop
endfacet
facet normal 0.0 0.0 1.0
  outer loop
    vertex 22.63523453107849 111.17013451380531 0.9999999999999999
    vertex 22.635234531078492 5.509880475960911 0.9999999999999999
    vertex 23.670768437011226 110.37554140081586 0.9999999999999999
  endloop
endfacet
facet normal 0.0 0.0 1.0
  outer loop
    vertex 23.670768437011226 110.37554140081586 0.9999999999999999
    vertex 22.635234531078492 5.509880475960911 0.9999999999999999
    vertex 23.670768437011226 6.304473588950366 0.9999999999999999
  endloop
endfacet
facet normal 0.0 0.0 1.0
  outer loop
    vertex 23.670768437011226 110.37554140081586 0.9999999999999999
    vertex 23.670768437011226 6.304473588950366 0.9999999999999999
    vertex 24.465361550000686 7.340007494883103 0.9999999999999999
  endloop
endfacet
facet normal 0.0 0.0 1.0
  outer loop
    vertex 23.670768437011226 110.37554140081586 0.9999999999999999
    vertex 24.465361550000686 7.340007494883103 0.9999999999999999
    vertex 24.465361550000683 109.34000749488311 0.9999999999999999
  endloop
endfacet
facet normal 0.0 0.0 1.0
  outer loop
    vertex 24.465361550000683 109.34000749488311 0.9999999999999999
    vertex 24.465361550000686 7.340007494883103 0.9999999999999999
    vertex 24.67246833118723 108.84000749488311 0.9999999999999999
  endloop
endfacet
facet normal 0.0 0.0 1.0
  outer loop
    vertex 24.67246833118723 108.84000749488311 0.9999999999999999
    vertex 24.465361550000686 7.340007494883103 0.9999999999999999
    vertex 24.964863662523832 8.545912269370499 0.9999999999999999
  endloop
endfacet
facet normal 0.0 0.0 1.0
  outer loop
    vertex 24.67246833118723 108.84000749488311 0.9999999999999999
    vertex 24.964863662523832 8.545912269370499 0.9999999999999999
    vertex 24.96486366252383 108.13410272039572 0.9999999999999999
  endloop
endfacet
facet normal 0.0 0.0 1.0
  outer loop
    vertex 24.96486366252383 108.13410272039572 0.9999999999999999
    vertex 24.964863662523832 8.545912269370499 0.9999999999999999
    vertex 25.135234531078492 106.84000749488312 0.9999999999999999
  endloop
endfacet
facet normal 0.0 0.0 1.0
  outer loop
    vertex 25.135234531078492 106.84000749488312 0.9999999999999999
    vertex 24.964863662523832 8.545912269370499 0.9999999999999999
    vertex 25.135234531078492 9.840007494883103 0.9999999999999999
  endloop
endfacet
facet normal 0.0 0.0 1.0
  outer loop
    vertex 5.835234531078493 9.340007494883105 0.9999999999999999
    vertex 5.835234531078493 111.37724129499186 0.9999999999999999
    vertex 5.335234531078495 111.17013451380531 0.9999999999999999
  endloop
endfacet
facet normal 0.0 0.0 1.0
  outer loop
    vertex 5.835234531078493 111.37724129499186 0.9999999999999999
    vertex 5.835234531078493 9.340007494883105 0.9999999999999999
    vertex 5.835234531078493 107.34000749488312 0.9999999999999999
  endloop
endfacet
facet normal 0.0 0.0 1.0
  outer loop
    vertex 5.835234531078493 111.37724129499186 0.9999999999999999
    vertex 5.835234531078493 107.34000749488312 0.9999999999999999
    vertex 5.8863457916448905 107.7282360625369 0.9999999999999999
  endloop
endfacet
facet normal 0.0 0.0 1.0
  outer loop
    vertex 5.835234531078493 111.37724129499186 0.9999999999999999
    vertex 5.8863457916448905 107.7282360625369 0.9999999999999999
    vertex 6.541139305565887 111.66963662632844 0.9999999999999999
  endloop
endfacet
facet normal 0.0 0.0 1.0
  outer loop
    vertex 6.541139305565887 111.66963662632844 0.9999999999999999
    vertex 5.8863457916448905 107.7282360625369 0.9999999999999999
    vertex 6.036196425401835 108.09000749488312 0.9999999999999999
  endloop
endfacet
facet normal 0.0 0.0 1.0
  outer loop
    vertex 6.541139305565887 111.66963662632844 0.9999999999999999
    vertex 6.036196425401835 108.09000749488312 0.9999999999999999
    vertex 6.274574359298672 108.40066766666294 0.9999999999999999
  endloop
endfacet
facet normal 0.0 0.0 1.0
  outer loop
    vertex 6.541139305565887 111.66963662632844 0.9999999999999999
    vertex 6.274574359298672 108.40066766666294 0.9999999999999999
    vertex 6.585234531078493 108.63904560055977 0.9999999999999999
  endloop
endfacet
facet normal 0.0 0.0 1.0
  outer loop
    vertex 6.541139305565887 111.66963662632844 0.9999999999999999
    vertex 6.585234531078493 108.63904560055977 0.9999999999999999
    vertex 7.835234531078492 111.84000749488311 0.9999999999999999
  endloop
endfacet
facet normal 0.0 0.0 1.0
  outer loop
    vertex 7.835234531078492 111.84000749488311 0.9999999999999999
    vertex 6.585234531078493 108.63904560055977 0.9999999999999999
    vertex 6.947005963424711 108.78889623431672 0.9999999999999999
  endloop
endfacet
facet normal 0.0 0.0 1.0
  outer loop
    vertex 7.835234531078492 111.84000749488311 0.9999999999999999
    vertex 6.947005963424711 108.78889623431672 0.9999999999999999
    vertex 7.335234531078493 108.84000749488311 0.9999999999999999
  endloop
endfacet
facet normal 0.0 0.0 1.0
  outer loop
    vertex 7.835234531078492 111.84000749488311 0.9999999999999999
    vertex 7.335234531078493 108.84000749488311 0.9999999999999999
    vertex 20.63523453107849 108.84000749488311 0.9999999999999999
  endloop
endfacet
facet normal 0.0 0.0 1.0
  outer loop
    vertex 7.835234531078492 111.84000749488311 0.9999999999999999
    vertex 20.63523453107849 108.84000749488311 0.9999999999999999
    vertex 20.135234531078492 111.84000749488311 0.9999999999999999
  endloop
endfacet
facet normal 0.0 0.0 1.0
  outer loop
    vertex 20.135234531078492 111.84000749488311 0.9999999999999999
    vertex 20.63523453107849 108.84000749488311 0.9999999999999999
    vertex 21.429329756591095 111.66963662632847 0.9999999999999999
  endloop
endfacet
facet normal 0.0 0.0 1.0
  outer loop
    vertex 21.429329756591095 111.66963662632847 0.9999999999999999
    vertex 20.63523453107849 108.84000749488311 0.9999999999999999
    vertex 21.023463098732268 108.78889623431672 0.9999999999999999
  endloop
endfacet
facet normal 0.0 0.0 1.0
  outer loop
    vertex 21.429329756591095 111.66963662632847 0.9999999999999999
    vertex 21.023463098732268 108.78889623431672 0.9999999999999999
    vertex 21.38523453107849 108.63904560055977 0.9999999999999999
  endloop
endfacet
facet normal 0.0 0.0 1.0
  outer loop
    vertex 21.429329756591095 111.66963662632847 0.9999999999999999
    vertex 21.38523453107849 108.63904560055977 0.9999999999999999
    vertex 21.69589470285831 108.40066766666294 0.9999999999999999
  endloop
endfacet
facet normal 0.0 0.0 1.0
  outer loop
    vertex 21.429329756591095 111.66963662632847 0.9999999999999999
    vertex 21.69589470285831 108.40066766666294 0.9999999999999999
    vertex 22.135234531078492 111.37724129499186 0.9999999999999999
  endloop
endfacet
facet normal 0.0 0.0 1.0
  outer loop
    vertex 22.135234531078492 111.37724129499186 0.9999999999999999
    vertex 21.69589470285831 108.40066766666294 0.9999999999999999
    vertex 21.934272636755146 108.09000749488312 0.9999999999999999
  endloop
endfacet
facet normal 0.0 0.0 1.0
  outer loop
    vertex 22.135234531078492 111.37724129499186 0.9999999999999999
    vertex 21.934272636755146 108.09000749488312 0.9999999999999999
    vertex 22.08412327051209 107.7282360625369 0.9999999999999999
  endloop
endfacet
facet normal 0.0 0.0 1.0
  outer loop
    vertex 22.135234531078492 111.37724129499186 0.9999999999999999
    vertex 22.08412327051209 107.7282360625369 0.9999999999999999
    vertex 22.13523453107849 107.34000749488312 0.9999999999999999
  endloop
endfacet
facet normal 0.0 0.0 1.0
  outer loop
    vertex 22.135234531078492 111.37724129499186 0.9999999999999999
    vertex 22.13523453107849 107.34000749488312 0.9999999999999999
    vertex 22.135234531078492 11.840007494883107 0.9999999999999999
  endloop
endfacet
facet normal 0.0 -1.0 0.0
  outer loop
    vertex 20.135234531078492 4.840007494883103 0.9999999999999999
    vertex 7.835234531078489 4.840007494883103 -6.0
    vertex 20.135234531078492 4.840007494883103 -6.0
  endloop
endfacet
facet normal 0.0 -1.0 0.0
  outer loop
    vertex 7.835234531078489 4.840007494883103 -6.0
    vertex 20.135234531078492 4.840007494883103 0.9999999999999999
    vertex 7.835234531078489 4.840007494883103 0.9999999999999999
  endloop
endfacet
facet normal 0.13052619222005157 -0.9914448613738104 0.0
  outer loop
    vertex 21.4293297565911 5.010378363437762 0.9999999999999999
    vertex 20.135234531078492 4.840007494883103 -6.0
    vertex 21.4293297565911 5.010378363437762 -6.0
  endloop
endfacet
facet normal 0.13052619222005157 -0.9914448613738104 0.0
  outer loop
    vertex 20.135234531078492 4.840007494883103 -6.0
    vertex 21.4293297565911 5.010378363437762 0.9999999999999999
    vertex 20.135234531078492 4.840007494883103 0.9999999999999999
  endloop
endfacet
facet normal 0.38268343236508995 -0.9238795325112867 0.0
  outer loop
    vertex 22.635234531078492 5.509880475960911 0.9999999999999999
    vertex 21.4293297565911 5.010378363437762 -6.0
    vertex 22.635234531078492 5.509880475960911 -6.0
  endloop
endfacet
facet normal 0.38268343236508995 -0.9238795325112867 0.0
  outer loop
    vertex 21.4293297565911 5.010378363437762 -6.0
    vertex 22.635234531078492 5.509880475960911 0.9999999999999999
    vertex 21.4293297565911 5.010378363437762 0.9999999999999999
  endloop
endfacet
facet normal 0.6087614290087217 -0.7933533402912344 0.0
  outer loop
    vertex 23.670768437011226 6.304473588950366 0.9999999999999999
    vertex 22.635234531078492 5.509880475960911 -6.0
    vertex 23.670768437011226 6.304473588950366 -6.0
  endloop
endfacet
facet normal 0.6087614290087217 -0.7933533402912344 0.0
  outer loop
    vertex 22.635234531078492 5.509880475960911 -6.0
    vertex 23.670768437011226 6.304473588950366 0.9999999999999999
    vertex 22.635234531078492 5.509880475960911 0.9999999999999999
  endloop
endfacet
facet normal 0.7933533402912344 -0.6087614290087218 0.0
  outer loop
    vertex 24.465361550000686 7.340007494883103 -6.0
    vertex 23.670768437011226 6.304473588950366 0.9999999999999999
    vertex 23.670768437011226 6.304473588950366 -6.0
  endloop
endfacet
facet normal 0.7933533402912344 -0.6087614290087218 0.0
  outer loop
    vertex 23.670768437011226 6.304473588950366 0.9999999999999999
    vertex 24.465361550000686 7.340007494883103 -6.0
    vertex 24.465361550000686 7.340007494883103 0.9999999999999999
  endloop
endfacet
facet normal 0.923879532511287 -0.3826834323650895 0.0
  outer loop
    vertex 24.964863662523832 8.545912269370499 -6.0
    vertex 24.465361550000686 7.340007494883103 0.9999999999999999
    vertex 24.465361550000686 7.340007494883103 -6.0
  endloop
endfacet
facet normal 0.923879532511287 -0.3826834323650895 0.0
  outer loop
    vertex 24.465361550000686 7.340007494883103 0.9999999999999999
    vertex 24.964863662523832 8.545912269370499 -6.0
    vertex 24.964863662523832 8.545912269370499 0.9999999999999999
  endloop
endfacet
facet normal 0.9914448613738104 -0.13052619222005174 0.0
  outer loop
    vertex 25.135234531078492 9.840007494883103 -6.0
    vertex 24.964863662523832 8.545912269370499 0.9999999999999999
    vertex 24.964863662523832 8.545912269370499 -6.0
  endloop
endfacet
facet normal 0.9914448613738104 -0.13052619222005174 0.0
  outer loop
    vertex 24.964863662523832 8.545912269370499 0.9999999999999999
    vertex 25.135234531078492 9.840007494883103 -6.0
    vertex 25.135234531078492 9.840007494883103 0.9999999999999999
  endloop
endfacet
facet normal 0.9914448613738102 0.130526192220054 0.0
  outer loop
    vertex 24.96486366252383 108.13410272039572 -6.0
    vertex 25.135234531078492 106.84000749488312 0.9999999999999999
    vertex 25.135234531078492 106.84000749488312 -6.0
  endloop
endfacet
facet normal 0.9914448613738102 0.130526192220054 0.0
  outer loop
    vertex 25.135234531078492 106.84000749488312 0.9999999999999999
    vertex 24.96486366252383 108.13410272039572 -6.0
    vertex 24.96486366252383 108.13410272039572 0.9999999999999999
  endloop
endfacet
facet normal 0.9238795325112866 0.38268343236509034 0.0
  outer loop
    vertex 24.67246833118723 108.84000749488311 -6.0
    vertex 24.96486366252383 108.13410272039572 0.9999999999999999
    vertex 24.96486366252383 108.13410272039572 -6.0
  endloop
endfacet
facet normal 0.9238795325112866 0.38268343236509034 0.0
  outer loop
    vertex 24.96486366252383 108.13410272039572 0.9999999999999999
    vertex 24.67246833118723 108.84000749488311 -6.0
    vertex 24.67246833118723 108.84000749488311 0.9999999999999999
  endloop
endfacet
facet normal 0.9238795325112866 0.38268343236509017 0.0
  outer loop
    vertex 24.465361550000683 109.34000749488311 -6.0
    vertex 24.67246833118723 108.84000749488311 0.9999999999999999
    vertex 24.67246833118723 108.84000749488311 -6.0
  endloop
endfacet
facet normal 0.9238795325112866 0.38268343236509017 0.0
  outer loop
    vertex 24.67246833118723 108.84000749488311 0.9999999999999999
    vertex 24.465361550000683 109.34000749488311 -6.0
    vertex 24.465361550000683 109.34000749488311 0.9999999999999999
  endloop
endfacet
facet normal 0.7933533402912393 0.6087614290087154 0.0
  outer loop
    vertex 23.670768437011226 110.37554140081586 -6.0
    vertex 24.465361550000683 109.34000749488311 0.9999999999999999
    vertex 24.465361550000683 109.34000749488311 -6.0
  endloop
endfacet
facet normal 0.7933533402912393 0.6087614290087154 0.0
  outer loop
    vertex 24.465361550000683 109.34000749488311 0.9999999999999999
    vertex 23.670768437011226 110.37554140081586 -6.0
    vertex 23.670768437011226 110.37554140081586 0.9999999999999999
  endloop
endfacet
facet normal 0.6087614290087142 0.7933533402912402 0.0
  outer loop
    vertex 22.63523453107849 111.17013451380531 0.9999999999999999
    vertex 23.670768437011226 110.37554140081586 -6.0
    vertex 22.63523453107849 111.17013451380531 -6.0
  endloop
endfacet
facet normal 0.6087614290087142 0.7933533402912402 0.0
  outer loop
    vertex 23.670768437011226 110.37554140081586 -6.0
    vertex 22.63523453107849 111.17013451380531 0.9999999999999999
    vertex 23.670768437011226 110.37554140081586 0.9999999999999999
  endloop
endfacet
facet normal 0.38268343236509644 0.9238795325112841 0.0
  outer loop
    vertex 22.135234531078492 111.37724129499186 0.9999999999999999
    vertex 22.63523453107849 111.17013451380531 -6.0
    vertex 22.135234531078492 111.37724129499186 -6.0
  endloop
endfacet
facet normal 0.38268343236509644 0.9238795325112841 0.0
  outer loop
    vertex 22.63523453107849 111.17013451380531 -6.0
    vertex 22.135234531078492 111.37724129499186 0.9999999999999999
    vertex 22.63523453107849 111.17013451380531 0.9999999999999999
  endloop
endfacet
facet normal 0.38268343236509844 0.9238795325112832 0.0
  outer loop
    vertex 21.429329756591095 111.66963662632847 0.9999999999999999
    vertex 22.135234531078492 111.37724129499186 -6.0
    vertex 21.429329756591095 111.66963662632847 -6.0
  endloop
endfacet
facet normal 0.38268343236509844 0.9238795325112832 0.0
  outer loop
    vertex 22.135234531078492 111.37724129499186 -6.0
    vertex 21.429329756591095 111.66963662632847 0.9999999999999999
    vertex 22.135234531078492 111.37724129499186 0.9999999999999999
  endloop
endfacet
facet normal -0.13052619222005585 0.9914448613738098 0.0
  outer loop
    vertex 6.541139305565887 111.66963662632844 0.9999999999999999
    vertex 7.835234531078492 111.84000749488311 -6.0
    vertex 6.541139305565887 111.66963662632844 -6.0
  endloop
endfacet
facet normal -0.13052619222005585 0.9914448613738098 0.0
  outer loop
    vertex 7.835234531078492 111.84000749488311 -6.0
    vertex 6.541139305565887 111.66963662632844 0.9999999999999999
    vertex 7.835234531078492 111.84000749488311 0.9999999999999999
  endloop
endfacet
facet normal -0.3826834323650745 0.9238795325112932 0.0
  outer loop
    vertex 5.835234531078493 111.37724129499186 0.9999999999999999
    vertex 6.541139305565887 111.66963662632844 -6.0
    vertex 5.835234531078493 111.37724129499186 -6.0
  endloop
endfacet
facet normal -0.3826834323650745 0.9238795325112932 0.0
  outer loop
    vertex 6.541139305565887 111.66963662632844 -6.0
    vertex 5.835234531078493 111.37724129499186 0.9999999999999999
    vertex 6.541139305565887 111.66963662632844 0.9999999999999999
  endloop
endfacet
facet normal -0.38268343236509506 0.9238795325112846 0.0
  outer loop
    vertex 5.335234531078495 111.17013451380531 0.9999999999999999
    vertex 5.835234531078493 111.37724129499186 -6.0
    vertex 5.335234531078495 111.17013451380531 -6.0
  endloop
endfacet
facet normal -0.38268343236509506 0.9238795325112846 0.0
  outer loop
    vertex 5.835234531078493 111.37724129499186 -6.0
    vertex 5.335234531078495 111.17013451380531 0.9999999999999999
    vertex 5.835234531078493 111.37724129499186 0.9999999999999999
  endloop
endfacet
facet normal -0.6087614290087271 0.7933533402912302 0.0
  outer loop
    vertex 4.299700625145761 110.37554140081585 0.9999999999999999
    vertex 5.335234531078495 111.17013451380531 -6.0
    vertex 4.299700625145761 110.37554140081585 -6.0
  endloop
endfacet
facet normal -0.6087614290087271 0.7933533402912302 0.0
  outer loop
    vertex 5.335234531078495 111.17013451380531 -6.0
    vertex 4.299700625145761 110.37554140081585 0.9999999999999999
    vertex 5.335234531078495 111.17013451380531 0.9999999999999999
  endloop
endfacet
facet normal -0.7933533402912325 0.6087614290087241 0.0
  outer loop
    vertex 4.299700625145761 110.37554140081585 0.9999999999999999
    vertex 3.5051075121563047 109.34000749488311 -6.0
    vertex 3.5051075121563047 109.34000749488311 0.9999999999999999
  endloop
endfacet
facet normal -0.7933533402912325 0.6087614290087241 0.0
  outer loop
    vertex 3.5051075121563047 109.34000749488311 -6.0
    vertex 4.299700625145761 110.37554140081585 0.9999999999999999
    vertex 4.299700625145761 110.37554140081585 -6.0
  endloop
endfacet
facet normal -0.9238795325112872 0.38268343236508906 0.0
  outer loop
    vertex 3.5051075121563047 109.34000749488311 0.9999999999999999
    vertex 3.298000730969758 108.84000749488311 -6.0
    vertex 3.298000730969758 108.84000749488311 0.9999999999999999
  endloop
endfacet
facet normal -0.9238795325112872 0.38268343236508906 0.0
  outer loop
    vertex 3.298000730969758 108.84000749488311 -6.0
    vertex 3.5051075121563047 109.34000749488311 0.9999999999999999
    vertex 3.5051075121563047 109.34000749488311 -6.0
  endloop
endfacet
facet normal -0.9238795325112868 0.38268343236508945 0.0
  outer loop
    vertex 3.298000730969758 108.84000749488311 0.9999999999999999
    vertex 3.0056053996331586 108.13410272039572 -6.0
    vertex 3.0056053996331586 108.13410272039572 0.9999999999999999
  endloop
endfacet
facet normal -0.9238795325112868 0.38268343236508945 0.0
  outer loop
    vertex 3.0056053996331586 108.13410272039572 -6.0
    vertex 3.298000730969758 108.84000749488311 0.9999999999999999
    vertex 3.298000730969758 108.84000749488311 -6.0
  endloop
endfacet
facet normal -0.9914448613738097 0.13052619222005718 0.0
  outer loop
    vertex 3.0056053996331586 108.13410272039572 0.9999999999999999
    vertex 2.835234531078493 106.84000749488312 -6.0
    vertex 2.835234531078493 106.84000749488312 0.9999999999999999
  endloop
endfacet
facet normal -0.9914448613738097 0.13052619222005718 0.0
  outer loop
    vertex 2.835234531078493 106.84000749488312 -6.0
    vertex 3.0056053996331586 108.13410272039572 0.9999999999999999
    vertex 3.0056053996331586 108.13410272039572 -6.0
  endloop
endfacet
facet normal 0.13052619222004463 -0.9914448613738114 -3.6065543918675783e-19
  outer loop
    vertex 7.335234531078493 108.84000749488311 0.9999999999999999
    vertex 6.947005963424711 108.78889623431672 0.0
    vertex 7.335234531078493 108.84000749488311 0.0
  endloop
endfacet
facet normal 0.13052619222004463 -0.9914448613738114 -3.6065543918675783e-19
  outer loop
    vertex 6.947005963424711 108.78889623431672 0.0
    vertex 7.335234531078493 108.84000749488311 0.9999999999999999
    vertex 6.947005963424711 108.78889623431672 0.9999999999999999
  endloop
endfacet
facet normal -1.0 1.127986593019161e-15 -4.226830882793322e-32
  outer loop
    vertex 22.13523453107849 107.34000749488312 0.9999999999999999
    vertex 22.135234531078485 104.84000749488312 0.0
    vertex 22.135234531078485 104.84000749488312 0.9999999999999999
  endloop
endfacet
facet normal -1.0 1.127986593019161e-15 -4.226830882793322e-32
  outer loop
    vertex 22.135234531078485 104.84000749488312 0.0
    vertex 22.13523453107849 107.34000749488312 0.9999999999999999
    vertex 22.13523453107849 107.34000749488312 0.0
  endloop
endfacet
facet normal -0.9914448613738103 0.13052619222005263 5.076487248848125e-19
  outer loop
    vertex 22.135234531078485 104.84000749488312 0.9999999999999999
    vertex 22.084123270512087 104.45177892722934 0.0
    vertex 22.084123270512087 104.45177892722934 0.9999999999999999
  endloop
endfacet
facet normal -0.9914448613738103 0.13052619222005263 5.076487248848125e-19
  outer loop
    vertex 22.084123270512087 104.45177892722934 0.0
    vertex 22.135234531078485 104.84000749488312 0.9999999999999999
    vertex 22.135234531078485 104.84000749488312 0.0
  endloop
endfacet
facet normal -0.9238795325112836 0.3826834323650973 7.170023829470576e-19
  outer loop
    vertex 22.084123270512087 104.45177892722934 0.9999999999999999
    vertex 21.934272636755143 104.09000749488314 0.0
    vertex 21.934272636755143 104.09000749488314 0.9999999999999999
  endloop
endfacet
facet normal -0.9238795325112836 0.3826834323650973 7.170023829470576e-19
  outer loop
    vertex 21.934272636755143 104.09000749488314 0.0
    vertex 22.084123270512087 104.45177892722934 0.9999999999999999
    vertex 22.084123270512087 104.45177892722934 0.0
  endloop
endfacet
facet normal -0.7933533402912485 0.6087614290087033 -2.056733755799685e-18
  outer loop
    vertex 21.934272636755143 104.09000749488314 0.9999999999999999
    vertex 21.695894702858308 103.7793473231033 0.0
    vertex 21.695894702858308 103.7793473231033 0.9999999999999999
  endloop
endfacet
facet normal -0.7933533402912485 0.6087614290087033 -2.056733755799685e-18
  outer loop
    vertex 21.695894702858308 103.7793473231033 0.0
    vertex 21.934272636755143 104.09000749488314 0.9999999999999999
    vertex 21.934272636755143 104.09000749488314 0.0
  endloop
endfacet
facet normal -0.608761429008706 0.7933533402912464 -5.702930390112545e-19
  outer loop
    vertex 21.38523453107849 103.54096938920647 0.9999999999999999
    vertex 21.695894702858308 103.7793473231033 0.0
    vertex 21.38523453107849 103.54096938920647 0.0
  endloop
endfacet
facet normal -0.608761429008706 0.7933533402912464 -5.702930390112545e-19
  outer loop
    vertex 21.695894702858308 103.7793473231033 0.0
    vertex 21.38523453107849 103.54096938920647 0.9999999999999999
    vertex 21.695894702858308 103.7793473231033 0.9999999999999999
  endloop
endfacet
facet normal -0.38268343236510804 0.9238795325112793 -3.375006778897055e-18
  outer loop
    vertex 21.023463098732268 103.39111875544953 0.9999999999999999
    vertex 21.38523453107849 103.54096938920647 0.0
    vertex 21.023463098732268 103.39111875544953 0.0
  endloop
endfacet
facet normal -0.38268343236510804 0.9238795325112793 -3.375006778897055e-18
  outer loop
    vertex 21.38523453107849 103.54096938920647 0.0
    vertex 21.023463098732268 103.39111875544953 0.9999999999999999
    vertex 21.38523453107849 103.54096938920647 0.9999999999999999
  endloop
endfacet
facet normal -0.13052619222004463 0.9914448613738114 -2.383773589986783e-19
  outer loop
    vertex 20.63523453107849 103.34000749488312 0.9999999999999999
    vertex 21.023463098732268 103.39111875544953 0.0
    vertex 20.63523453107849 103.34000749488312 0.0
  endloop
endfacet
facet normal -0.13052619222004463 0.9914448613738114 -2.383773589986783e-19
  outer loop
    vertex 21.023463098732268 103.39111875544953 0.0
    vertex 20.63523453107849 103.34000749488312 0.9999999999999999
    vertex 21.023463098732268 103.39111875544953 0.9999999999999999
  endloop
endfacet
facet normal 0.0 1.0 0.0
  outer loop
    vertex 7.335234531078493 103.34000749488312 0.9999999999999999
    vertex 20.63523453107849 103.34000749488312 0.0
    vertex 7.335234531078493 103.34000749488312 0.0
  endloop
endfacet
facet normal 0.0 1.0 0.0
  outer loop
    vertex 20.63523453107849 103.34000749488312 0.0
    vertex 7.335234531078493 103.34000749488312 0.9999999999999999
    vertex 20.63523453107849 103.34000749488312 0.9999999999999999
  endloop
endfacet
facet normal 0.1305261922200451 0.9914448613738114 2.3837735899867875e-19
  outer loop
    vertex 6.947005963424713 103.39111875544953 0.9999999999999999
    vertex 7.335234531078493 103.34000749488312 0.0
    vertex 6.947005963424713 103.39111875544953 0.0
  endloop
endfacet
facet normal 0.1305261922200451 0.9914448613738114 2.3837735899867875e-19
  outer loop
    vertex 7.335234531078493 103.34000749488312 0.0
    vertex 6.947005963424713 103.39111875544953 0.9999999999999999
    vertex 7.335234531078493 103.34000749488312 0.9999999999999999
  endloop
endfacet
facet normal 0.38268343236510666 0.9238795325112797 -5.68506327311867e-19
  outer loop
    vertex 6.585234531078495 103.54096938920647 0.9999999999999999
    vertex 6.947005963424713 103.39111875544953 0.0
    vertex 6.585234531078495 103.54096938920647 0.0
  endloop
endfacet
facet normal 0.38268343236510666 0.9238795325112797 -5.68506327311867e-19
  outer loop
    vertex 6.947005963424713 103.39111875544953 0.0
    vertex 6.585234531078495 103.54096938920647 0.9999999999999999
    vertex 6.947005963424713 103.39111875544953 0.9999999999999999
  endloop
endfacet
facet normal 0.6087614290087043 0.7933533402912477 1.1405860780225057e-18
  outer loop
    vertex 6.274574359298674 103.7793473231033 0.9999999999999999
    vertex 6.585234531078495 103.54096938920647 0.0
    vertex 6.274574359298674 103.7793473231033 0.0
  endloop
endfacet
facet normal 0.6087614290087043 0.7933533402912477 1.1405860780225057e-18
  outer loop
    vertex 6.585234531078495 103.54096938920647 0.0
    vertex 6.274574359298674 103.7793473231033 0.9999999999999999
    vertex 6.585234531078495 103.54096938920647 0.9999999999999999
  endloop
endfacet
facet normal 0.7933533402912288 0.6087614290087289 2.79995411419387e-18
  outer loop
    vertex 6.036196425401837 104.09000749488311 0.0
    vertex 6.274574359298674 103.7793473231033 0.9999999999999999
    vertex 6.274574359298674 103.7793473231033 0.0
  endloop
endfacet
facet normal 0.7933533402912288 0.6087614290087289 2.79995411419387e-18
  outer loop
    vertex 6.274574359298674 103.7793473231033 0.9999999999999999
    vertex 6.036196425401837 104.09000749488311 0.0
    vertex 6.036196425401837 104.09000749488311 0.9999999999999999
  endloop
endfacet
facet normal 0.9238795325112923 0.38268343236507685 2.9422575596057153e-18
  outer loop
    vertex 5.886345791644893 104.45177892722934 0.0
    vertex 6.036196425401837 104.09000749488311 0.9999999999999999
    vertex 6.036196425401837 104.09000749488311 0.0
  endloop
endfacet
facet normal 0.9238795325112923 0.38268343236507685 2.9422575596057153e-18
  outer loop
    vertex 6.036196425401837 104.09000749488311 0.9999999999999999
    vertex 5.886345791644893 104.45177892722934 0.0
    vertex 5.886345791644893 104.45177892722934 0.9999999999999999
  endloop
endfacet
facet normal 0.9914448613738103 0.13052619222005263 7.274896797510334e-19
  outer loop
    vertex 5.835234531078496 104.84000749488312 0.0
    vertex 5.886345791644893 104.45177892722934 0.9999999999999999
    vertex 5.886345791644893 104.45177892722934 0.0
  endloop
endfacet
facet normal 0.9914448613738103 0.13052619222005263 7.274896797510334e-19
  outer loop
    vertex 5.886345791644893 104.45177892722934 0.9999999999999999
    vertex 5.835234531078496 104.84000749488312 0.0
    vertex 5.835234531078496 104.84000749488312 0.9999999999999999
  endloop
endfacet
facet normal 1.0 1.127986593019161e-15 -6.044035341065093e-32
  outer loop
    vertex 5.835234531078493 107.34000749488312 0.0
    vertex 5.835234531078496 104.84000749488312 0.9999999999999999
    vertex 5.835234531078496 104.84000749488312 0.0
  endloop
endfacet
facet normal 1.0 1.127986593019161e-15 -6.044035341065093e-32
  outer loop
    vertex 5.835234531078496 104.84000749488312 0.9999999999999999
    vertex 5.835234531078493 107.34000749488312 0.0
    vertex 5.835234531078493 107.34000749488312 0.9999999999999999
  endloop
endfacet
facet normal 0.9914448613738103 -0.13052619222005263 -1.4699328569803983e-19
  outer loop
    vertex 5.8863457916448905 107.7282360625369 0.0
    vertex 5.835234531078493 107.34000749488312 0.9999999999999999
    vertex 5.835234531078493 107.34000749488312 0.0
  endloop
endfacet
facet normal 0.9914448613738103 -0.13052619222005263 -1.4699328569803983e-19
  outer loop
    vertex 5.835234531078493 107.34000749488312 0.9999999999999999
    vertex 5.8863457916448905 107.7282360625369 0.0
    vertex 5.8863457916448905 107.7282360625369 0.9999999999999999
  endloop
endfacet
facet normal 0.9238795325112916 -0.38268343236507835 -2.942257559605725e-18
  outer loop
    vertex 6.036196425401835 108.09000749488312 0.0
    vertex 5.8863457916448905 107.7282360625369 0.9999999999999999
    vertex 5.8863457916448905 107.7282360625369 0.0
  endloop
endfacet
facet normal 0.9238795325112916 -0.38268343236507835 -2.942257559605725e-18
  outer loop
    vertex 5.8863457916448905 107.7282360625369 0.9999999999999999
    vertex 6.036196425401835 108.09000749488312 0.0
    vertex 6.036196425401835 108.09000749488312 0.9999999999999999
  endloop
endfacet
facet normal 0.793353340291228 -0.6087614290087301 1.6593680361713152e-18
  outer loop
    vertex 6.274574359298672 108.40066766666294 0.0
    vertex 6.036196425401835 108.09000749488312 0.9999999999999999
    vertex 6.036196425401835 108.09000749488312 0.0
  endloop
endfacet
facet normal 0.793353340291228 -0.6087614290087301 1.6593680361713152e-18
  outer loop
    vertex 6.036196425401835 108.09000749488312 0.9999999999999999
    vertex 6.274574359298672 108.40066766666294 0.0
    vertex 6.274574359298672 108.40066766666294 0.9999999999999999
  endloop
endfacet
facet normal 0.6087614290087043 -0.7933533402912477 -1.1405860780225057e-18
  outer loop
    vertex 6.585234531078493 108.63904560055977 0.9999999999999999
    vertex 6.274574359298672 108.40066766666294 0.0
    vertex 6.585234531078493 108.63904560055977 0.0
  endloop
endfacet
facet normal 0.6087614290087043 -0.7933533402912477 -1.1405860780225057e-18
  outer loop
    vertex 6.274574359298672 108.40066766666294 0.0
    vertex 6.585234531078493 108.63904560055977 0.9999999999999999
    vertex 6.274574359298672 108.40066766666294 0.9999999999999999
  endloop
endfacet
facet normal 0.38268343236510666 -0.9238795325112797 5.68506327311867e-19
  outer loop
    vertex 6.947005963424711 108.78889623431672 0.9999999999999999
    vertex 6.585234531078493 108.63904560055977 0.0
    vertex 6.947005963424711 108.78889623431672 0.0
  endloop
endfacet
facet normal 0.38268343236510666 -0.9238795325112797 5.68506327311867e-19
  outer loop
    vertex 6.585234531078493 108.63904560055977 0.0
    vertex 6.947005963424711 108.78889623431672 0.9999999999999999
    vertex 6.585234531078493 108.63904560055977 0.9999999999999999
  endloop
endfacet
facet normal 2.120275550787893e-16 -1.0 -2.542454666341844e-32
  outer loop
    vertex 20.635234531078492 13.340007494883107 0.9999999999999999
    vertex 7.335234531078493 13.340007494883105 0.0
    vertex 20.635234531078492 13.340007494883107 0.0
  endloop
endfacet
facet normal 2.120275550787893e-16 -1.0 -2.542454666341844e-32
  outer loop
    vertex 7.335234531078493 13.340007494883105 0.0
    vertex 20.635234531078492 13.340007494883107 0.9999999999999999
    vertex 7.335234531078493 13.340007494883105 0.9999999999999999
  endloop
endfacet
facet normal -0.13052619222005168 -0.9914448613738105 -2.260197562437101e-19
  outer loop
    vertex 21.02346309873227 13.28889623431671 0.9999999999999999
    vertex 20.635234531078492 13.340007494883107 0.0
    vertex 21.02346309873227 13.28889623431671 0.0
  endloop
endfacet
facet normal -0.13052619222005168 -0.9914448613738105 -2.260197562437101e-19
  outer loop
    vertex 20.635234531078492 13.340007494883107 0.0
    vertex 21.02346309873227 13.28889623431671 0.9999999999999999
    vertex 20.635234531078492 13.340007494883107 0.9999999999999999
  endloop
endfacet
facet normal -0.3826834323650895 -0.9238795325112871 -2.1510071488411293e-18
  outer loop
    vertex 21.38523453107849 13.139045600559767 0.9999999999999999
    vertex 21.02346309873227 13.28889623431671 0.0
    vertex 21.38523453107849 13.139045600559767 0.0
  endloop
endfacet
facet normal -0.3826834323650895 -0.9238795325112871 -2.1510071488411293e-18
  outer loop
    vertex 21.02346309873227 13.28889623431671 0.0
    vertex 21.38523453107849 13.139045600559767 0.9999999999999999
    vertex 21.02346309873227 13.28889623431671 0.9999999999999999
  endloop
endfacet
facet normal -0.6087614290087207 -0.7933533402912352 -2.6270267948109444e-18
  outer loop
    vertex 21.69589470285831 12.900667666662928 0.9999999999999999
    vertex 21.38523453107849 13.139045600559767 0.0
    vertex 21.69589470285831 12.900667666662928 0.0
  endloop
endfacet
facet normal -0.6087614290087207 -0.7933533402912352 -2.6270267948109444e-18
  outer loop
    vertex 21.38523453107849 13.139045600559767 0.0
    vertex 21.69589470285831 12.900667666662928 0.9999999999999999
    vertex 21.38523453107849 13.139045600559767 0.9999999999999999
  endloop
endfacet
facet normal -0.7933533402912339 -0.6087614290087225 1.8838064364167428e-18
  outer loop
    vertex 21.69589470285831 12.900667666662928 0.9999999999999999
    vertex 21.93427263675515 12.590007494883107 0.0
    vertex 21.93427263675515 12.590007494883107 0.9999999999999999
  endloop
endfacet
facet normal -0.7933533402912339 -0.6087614290087225 1.8838064364167428e-18
  outer loop
    vertex 21.93427263675515 12.590007494883107 0.0
    vertex 21.69589470285831 12.900667666662928 0.9999999999999999
    vertex 21.69589470285831 12.900667666662928 0.0
  endloop
endfacet
facet normal -0.9238795325112875 -0.38268343236508834 1.4340047658940818e-18
  outer loop
    vertex 21.93427263675515 12.590007494883107 0.9999999999999999
    vertex 22.084123270512094 12.228236062536888 0.0
    vertex 22.084123270512094 12.228236062536888 0.9999999999999999
  endloop
endfacet
facet normal -0.9238795325112875 -0.38268343236508834 1.4340047658940818e-18
  outer loop
    vertex 22.084123270512094 12.228236062536888 0.0
    vertex 21.93427263675515 12.590007494883107 0.9999999999999999
    vertex 21.93427263675515 12.590007494883107 0.0
  endloop
endfacet
facet normal -0.9914448613738105 -0.13052619222005168 -1.1609927881059873e-19
  outer loop
    vertex 22.084123270512094 12.228236062536888 0.9999999999999999
    vertex 22.135234531078492 11.840007494883107 0.0
    vertex 22.135234531078492 11.840007494883107 0.9999999999999999
  endloop
endfacet
facet normal -0.9914448613738105 -0.13052619222005168 -1.1609927881059873e-19
  outer loop
    vertex 22.135234531078492 11.840007494883107 0.0
    vertex 22.084123270512094 12.228236062536888 0.9999999999999999
    vertex 22.084123270512094 12.228236062536888 0.0
  endloop
endfacet
facet normal -1.0 0.0 0.0
  outer loop
    vertex 22.135234531078492 11.840007494883107 0.9999999999999999
    vertex 22.135234531078492 9.340007494883107 0.0
    vertex 22.135234531078492 9.340007494883107 0.9999999999999999
  endloop
endfacet
facet normal -1.0 0.0 0.0
  outer loop
    vertex 22.135234531078492 9.340007494883107 0.0
    vertex 22.135234531078492 11.840007494883107 0.9999999999999999
    vertex 22.135234531078492 11.840007494883107 0.0
  endloop
endfacet
facet normal -0.9914448613738094 0.13052619222005926 -2.2601975624370265e-19
  outer loop
    vertex 22.135234531078492 9.340007494883107 0.9999999999999999
    vertex 22.08412327051209 8.951778927229327 0.0
    vertex 22.08412327051209 8.951778927229327 0.9999999999999999
  endloop
endfacet
facet normal -0.9914448613738094 0.13052619222005926 -2.2601975624370265e-19
  outer loop
    vertex 22.08412327051209 8.951778927229327 0.0
    vertex 22.135234531078492 9.340007494883107 0.9999999999999999
    vertex 22.135234531078492 9.340007494883107 0.0
  endloop
endfacet
facet normal -0.9238795325112875 0.38268343236508834 -1.866753985185227e-18
  outer loop
    vertex 22.08412327051209 8.951778927229327 0.9999999999999999
    vertex 21.934272636755146 8.590007494883109 0.0
    vertex 21.934272636755146 8.590007494883109 0.9999999999999999
  endloop
endfacet
facet normal -0.9238795325112875 0.38268343236508834 -1.866753985185227e-18
  outer loop
    vertex 21.934272636755146 8.590007494883109 0.0
    vertex 22.08412327051209 8.951778927229327 0.9999999999999999
    vertex 22.08412327051209 8.951778927229327 0.0
  endloop
endfacet
facet normal -0.7933533402912354 0.6087614290087207 -7.432203583942043e-19
  outer loop
    vertex 21.934272636755146 8.590007494883109 0.9999999999999999
    vertex 21.69589470285831 8.279347323103286 0.0
    vertex 21.69589470285831 8.279347323103286 0.9999999999999999
  endloop
endfacet
facet normal -0.7933533402912354 0.6087614290087207 -7.432203583942043e-19
  outer loop
    vertex 21.69589470285831 8.279347323103286 0.0
    vertex 21.934272636755146 8.590007494883109 0.9999999999999999
    vertex 21.934272636755146 8.590007494883109 0.0
  endloop
endfacet
facet normal -0.608761429008722 0.7933533402912342 -3.370247153205148e-18
  outer loop
    vertex 21.38523453107849 8.040969389206449 0.9999999999999999
    vertex 21.69589470285831 8.279347323103286 0.0
    vertex 21.38523453107849 8.040969389206449 0.0
  endloop
endfacet
facet normal -0.608761429008722 0.7933533402912342 -3.370247153205148e-18
  outer loop
    vertex 21.69589470285831 8.279347323103286 0.0
    vertex 21.38523453107849 8.040969389206449 0.9999999999999999
    vertex 21.69589470285831 8.279347323103286 0.9999999999999999
  endloop
endfacet
facet normal -0.3826834323650901 0.9238795325112867 7.912504107646673e-19
  outer loop
    vertex 21.023463098732268 7.891118755449504 0.9999999999999999
    vertex 21.38523453107849 8.040969389206449 0.0
    vertex 21.023463098732268 7.891118755449504 0.0
  endloop
endfacet
facet normal -0.3826834323650901 0.9238795325112867 7.912504107646673e-19
  outer loop
    vertex 21.38523453107849 8.040969389206449 0.0
    vertex 21.023463098732268 7.891118755449504 0.9999999999999999
    vertex 21.38523453107849 8.040969389206449 0.9999999999999999
  endloop
endfacet
facet normal -0.13052619222005168 0.9914448613738105 2.260197562437101e-19
  outer loop
    vertex 20.63523453107849 7.840007494883106 0.9999999999999999
    vertex 21.023463098732268 7.891118755449504 0.0
    vertex 20.63523453107849 7.840007494883106 0.0
  endloop
endfacet
facet normal -0.13052619222005168 0.9914448613738105 2.260197562437101e-19
  outer loop
    vertex 21.023463098732268 7.891118755449504 0.0
    vertex 20.63523453107849 7.840007494883106 0.9999999999999999
    vertex 21.023463098732268 7.891118755449504 0.9999999999999999
  endloop
endfacet
facet normal -1.0601377753939467e-16 1.0 -9.534204998781914e-33
  outer loop
    vertex 7.335234531078493 7.840007494883105 0.9999999999999999
    vertex 20.63523453107849 7.840007494883106 0.0
    vertex 7.335234531078493 7.840007494883105 0.0
  endloop
endfacet
facet normal -1.0601377753939467e-16 1.0 -9.534204998781914e-33
  outer loop
    vertex 20.63523453107849 7.840007494883106 0.0
    vertex 7.335234531078493 7.840007494883105 0.9999999999999999
    vertex 20.63523453107849 7.840007494883106 0.9999999999999999
  endloop
endfacet
facet normal 0.13052619222005168 0.9914448613738105 1.2845688156557344e-19
  outer loop
    vertex 6.947005963424711 7.891118755449503 0.9999999999999999
    vertex 7.335234531078493 7.840007494883105 0.0
    vertex 6.947005963424711 7.891118755449503 0.0
  endloop
endfacet
facet normal 0.13052619222005168 0.9914448613738105 1.2845688156557344e-19
  outer loop
    vertex 7.335234531078493 7.840007494883105 0.0
    vertex 6.947005963424711 7.891118755449503 0.9999999999999999
    vertex 7.335234531078493 7.840007494883105 0.9999999999999999
  endloop
endfacet
facet normal 0.3826834323650914 0.9238795325112862 6.427543551294251e-19
  outer loop
    vertex 6.585234531078493 8.040969389206447 0.9999999999999999
    vertex 6.947005963424711 7.891118755449503 0.0
    vertex 6.585234531078493 8.040969389206447 0.0
  endloop
endfacet
facet normal 0.3826834323650914 0.9238795325112862 6.427543551294251e-19
  outer loop
    vertex 6.947005963424711 7.891118755449503 0.0
    vertex 6.585234531078493 8.040969389206447 0.9999999999999999
    vertex 6.947005963424711 7.891118755449503 0.9999999999999999
  endloop
endfacet
facet normal 0.6087614290087202 0.7933533402912357 -4.5108332312276845e-18
  outer loop
    vertex 6.274574359298672 8.279347323103284 0.9999999999999999
    vertex 6.585234531078493 8.040969389206447 0.0
    vertex 6.274574359298672 8.279347323103284 0.0
  endloop
endfacet
facet normal 0.6087614290087202 0.7933533402912357 -4.5108332312276845e-18
  outer loop
    vertex 6.585234531078493 8.040969389206447 0.0
    vertex 6.274574359298672 8.279347323103284 0.9999999999999999
    vertex 6.585234531078493 8.040969389206447 0.9999999999999999
  endloop
endfacet
facet normal 0.7933533402912347 0.6087614290087213 -1.4349296359259432e-18
  outer loop
    vertex 6.036196425401835 8.590007494883105 0.0
    vertex 6.274574359298672 8.279347323103284 0.9999999999999999
    vertex 6.274574359298672 8.279347323103284 0.0
  endloop
endfacet
facet normal 0.7933533402912347 0.6087614290087213 -1.4349296359259432e-18
  outer loop
    vertex 6.274574359298672 8.279347323103284 0.9999999999999999
    vertex 6.036196425401835 8.590007494883105 0.0
    vertex 6.036196425401835 8.590007494883105 0.9999999999999999
  endloop
endfacet
facet normal 0.9238795325112867 0.3826834323650897 1.0012555466029421e-18
  outer loop
    vertex 5.8863457916448905 8.951778927229324 0.0
    vertex 6.036196425401835 8.590007494883105 0.9999999999999999
    vertex 6.036196425401835 8.590007494883105 0.0
  endloop
endfacet
facet normal 0.9238795325112867 0.3826834323650897 1.0012555466029421e-18
  outer loop
    vertex 6.036196425401835 8.590007494883105 0.9999999999999999
    vertex 5.8863457916448905 8.951778927229324 0.0
    vertex 5.8863457916448905 8.951778927229324 0.9999999999999999
  endloop
endfacet
facet normal 0.9914448613738105 0.13052619222005168 6.965956728635924e-19
  outer loop
    vertex 5.835234531078493 9.340007494883105 0.0
    vertex 5.8863457916448905 8.951778927229324 0.9999999999999999
    vertex 5.8863457916448905 8.951778927229324 0.0
  endloop
endfacet
facet normal 0.9914448613738105 0.13052619222005168 6.965956728635924e-19
  outer loop
    vertex 5.8863457916448905 8.951778927229324 0.9999999999999999
    vertex 5.835234531078493 9.340007494883105 0.0
    vertex 5.835234531078493 9.340007494883105 0.9999999999999999
  endloop
endfacet
facet normal 1.0 -1.127986593019158e-15 -5.325141269660869e-32
  outer loop
    vertex 5.835234531078496 11.840007494883107 0.0
    vertex 5.835234531078493 9.340007494883105 0.9999999999999999
    vertex 5.835234531078493 9.340007494883105 0.0
  endloop
endfacet
facet normal 1.0 -1.127986593019158e-15 -5.325141269660869e-32
  outer loop
    vertex 5.835234531078493 9.340007494883105 0.9999999999999999
    vertex 5.835234531078496 11.840007494883107 0.0
    vertex 5.835234531078496 11.840007494883107 0.9999999999999999
  endloop
endfacet
facet normal 0.9914448613738105 -0.13052619222005216 -1.1609927881059873e-19
  outer loop
    vertex 5.886345791644893 12.228236062536887 0.0
    vertex 5.835234531078496 11.840007494883107 0.9999999999999999
    vertex 5.835234531078496 11.840007494883107 0.0
  endloop
endfacet
facet normal 0.9914448613738105 -0.13052619222005216 -1.1609927881059873e-19
  outer loop
    vertex 5.835234531078496 11.840007494883107 0.9999999999999999
    vertex 5.886345791644893 12.228236062536887 0.0
    vertex 5.886345791644893 12.228236062536887 0.9999999999999999
  endloop
endfacet
facet normal 0.9238795325112868 -0.3826834323650895 3.375006778896941e-18
  outer loop
    vertex 6.036196425401837 12.590007494883105 0.0
    vertex 5.886345791644893 12.228236062536887 0.9999999999999999
    vertex 5.886345791644893 12.228236062536887 0.0
  endloop
endfacet
facet normal 0.9238795325112868 -0.3826834323650895 3.375006778896941e-18
  outer loop
    vertex 5.886345791644893 12.228236062536887 0.9999999999999999
    vertex 6.036196425401837 12.590007494883105 0.0
    vertex 6.036196425401837 12.590007494883105 0.9999999999999999
  endloop
endfacet
facet normal 0.7933533402912357 -0.6087614290087202 -5.187819581488104e-19
  outer loop
    vertex 6.274574359298674 12.900667666662926 0.0
    vertex 6.036196425401837 12.590007494883105 0.9999999999999999
    vertex 6.036196425401837 12.590007494883105 0.0
  endloop
endfacet
facet normal 0.7933533402912357 -0.6087614290087202 -5.187819581488104e-19
  outer loop
    vertex 6.036196425401837 12.590007494883105 0.9999999999999999
    vertex 6.274574359298674 12.900667666662926 0.0
    vertex 6.274574359298674 12.900667666662926 0.9999999999999999
  endloop
endfacet
facet normal 0.6087614290087224 -0.7933533402912338 3.024392514439282e-18
  outer loop
    vertex 6.585234531078495 13.139045600559763 0.9999999999999999
    vertex 6.274574359298674 12.900667666662926 0.0
    vertex 6.585234531078495 13.139045600559763 0.0
  endloop
endfacet
facet normal 0.6087614290087224 -0.7933533402912338 3.024392514439282e-18
  outer loop
    vertex 6.274574359298674 12.900667666662926 0.0
    vertex 6.585234531078495 13.139045600559763 0.9999999999999999
    vertex 6.274574359298674 12.900667666662926 0.9999999999999999
  endloop
endfacet
facet normal 0.3826834323650895 -0.9238795325112871 2.1510071488411293e-18
  outer loop
    vertex 6.947005963424711 13.288896234316708 0.9999999999999999
    vertex 6.585234531078495 13.139045600559763 0.0
    vertex 6.947005963424711 13.288896234316708 0.0
  endloop
endfacet
facet normal 0.3826834323650895 -0.9238795325112871 2.1510071488411293e-18
  outer loop
    vertex 6.585234531078495 13.139045600559763 0.0
    vertex 6.947005963424711 13.288896234316708 0.9999999999999999
    vertex 6.585234531078495 13.139045600559763 0.9999999999999999
  endloop
endfacet
facet normal 0.13052619222005168 -0.9914448613738105 -3.6065543918677097e-19
  outer loop
    vertex 7.335234531078493 13.340007494883105 0.9999999999999999
    vertex 6.947005963424711 13.288896234316708 0.0
    vertex 7.335234531078493 13.340007494883105 0.0
  endloop
endfacet
facet normal 0.13052619222005168 -0.9914448613738105 -3.6065543918677097e-19
  outer loop
    vertex 6.947005963424711 13.288896234316708 0.0
    vertex 7.335234531078493 13.340007494883105 0.9999999999999999
    vertex 6.947005963424711 13.288896234316708 0.9999999999999999
  endloop
endfacet
facet normal -0.1305261922200446 -0.9914448613738114 3.606554391867578e-19
  outer loop
    vertex 21.023463098732268 108.78889623431672 0.9999999999999999
    vertex 20.63523453107849 108.84000749488311 0.0
    vertex 21.023463098732268 108.78889623431672 0.0
  endloop
endfacet
facet normal -0.1305261922200446 -0.9914448613738114 3.606554391867578e-19
  outer loop
    vertex 20.63523453107849 108.84000749488311 0.0
    vertex 21.023463098732268 108.78889623431672 0.9999999999999999
    vertex 20.63523453107849 108.84000749488311 0.9999999999999999
  endloop
endfacet
facet normal -0.38268343236510804 -0.9238795325112793 3.375006778897055e-18
  outer loop
    vertex 21.38523453107849 108.63904560055977 0.9999999999999999
    vertex 21.023463098732268 108.78889623431672 0.0
    vertex 21.38523453107849 108.63904560055977 0.0
  endloop
endfacet
facet normal -0.38268343236510804 -0.9238795325112793 3.375006778897055e-18
  outer loop
    vertex 21.023463098732268 108.78889623431672 0.0
    vertex 21.38523453107849 108.63904560055977 0.9999999999999999
    vertex 21.023463098732268 108.78889623431672 0.9999999999999999
  endloop
endfacet
facet normal -0.9914448613738103 -0.13052619222005263 -5.076487248848125e-19
  outer loop
    vertex 22.08412327051209 107.7282360625369 0.9999999999999999
    vertex 22.13523453107849 107.34000749488312 0.0
    vertex 22.13523453107849 107.34000749488312 0.9999999999999999
  endloop
endfacet
facet normal -0.9914448613738103 -0.13052619222005263 -5.076487248848125e-19
  outer loop
    vertex 22.13523453107849 107.34000749488312 0.0
    vertex 22.08412327051209 107.7282360625369 0.9999999999999999
    vertex 22.08412327051209 107.7282360625369 0.0
  endloop
endfacet
facet normal -0.6087614290087027 -0.7933533402912489 1.1405860780225024e-18
  outer loop
    vertex 21.69589470285831 108.40066766666294 0.9999999999999999
    vertex 21.38523453107849 108.63904560055977 0.0
    vertex 21.69589470285831 108.40066766666294 0.0
  endloop
endfacet
facet normal -0.6087614290087027 -0.7933533402912489 1.1405860780225024e-18
  outer loop
    vertex 21.38523453107849 108.63904560055977 0.0
    vertex 21.69589470285831 108.40066766666294 0.9999999999999999
    vertex 21.38523453107849 108.63904560055977 0.9999999999999999
  endloop
endfacet
facet normal -0.7933533402912272 -0.6087614290087311 1.3135133974054743e-18
  outer loop
    vertex 21.69589470285831 108.40066766666294 0.9999999999999999
    vertex 21.934272636755146 108.09000749488312 0.0
    vertex 21.934272636755146 108.09000749488312 0.9999999999999999
  endloop
endfacet
facet normal -0.7933533402912272 -0.6087614290087311 1.3135133974054743e-18
  outer loop
    vertex 21.934272636755146 108.09000749488312 0.0
    vertex 21.69589470285831 108.40066766666294 0.9999999999999999
    vertex 21.69589470285831 108.40066766666294 0.0
  endloop
endfacet
facet normal -0.9238795325112922 -0.3826834323650767 -2.1510071488410573e-18
  outer loop
    vertex 21.934272636755146 108.09000749488312 0.9999999999999999
    vertex 22.08412327051209 107.7282360625369 0.0
    vertex 22.08412327051209 107.7282360625369 0.9999999999999999
  endloop
endfacet
facet normal -0.9238795325112922 -0.3826834323650767 -2.1510071488410573e-18
  outer loop
    vertex 22.08412327051209 107.7282360625369 0.0
    vertex 21.934272636755146 108.09000749488312 0.9999999999999999
    vertex 21.934272636755146 108.09000749488312 0.0
  endloop
endfacet
facet normal 0.0 -1.0 0.0
  outer loop
    vertex 20.63523453107849 108.84000749488311 0.9999999999999999
    vertex 7.335234531078493 108.84000749488311 0.0
    vertex 20.63523453107849 108.84000749488311 0.0
  endloop
endfacet
facet normal 0.0 -1.0 0.0
  outer loop
    vertex 7.335234531078493 108.84000749488311 0.0
    vertex 20.63523453107849 108.84000749488311 0.9999999999999999
    vertex 7.335234531078493 108.84000749488311 0.9999999999999999
  endloop
endfacet
facet normal 0.0 0.0 1.0
  outer loop
    vertex 5.8863457916448905 8.951778927229324 0.0
    vertex 5.835234531078496 11.840007494883107 0.0
    vertex 5.835234531078493 9.340007494883105 0.0
  endloop
endfacet
facet normal 0.0 0.0 1.0
  outer loop
    vertex 5.835234531078496 11.840007494883107 0.0
    vertex 5.8863457916448905 8.951778927229324 0.0
    vertex 5.886345791644893 12.228236062536887 0.0
  endloop
endfacet
facet normal 0.0 0.0 1.0
  outer loop
    vertex 5.886345791644893 12.228236062536887 0.0
    vertex 5.8863457916448905 8.951778927229324 0.0
    vertex 6.036196425401835 8.590007494883105 0.0
  endloop
endfacet
facet normal 0.0 0.0 1.0
  outer loop
    vertex 5.886345791644893 12.228236062536887 0.0
    vertex 6.036196425401835 8.590007494883105 0.0
    vertex 6.036196425401837 12.590007494883105 0.0
  endloop
endfacet
facet normal 0.0 0.0 1.0
  outer loop
    vertex 6.036196425401837 12.590007494883105 0.0
    vertex 6.036196425401835 8.590007494883105 0.0
    vertex 6.274574359298672 8.279347323103284 0.0
  endloop
endfacet
facet normal 0.0 0.0 1.0
  outer loop
    vertex 6.036196425401837 12.590007494883105 0.0
    vertex 6.274574359298672 8.279347323103284 0.0
    vertex 6.274574359298674 12.900667666662926 0.0
  endloop
endfacet
facet normal 0.0 0.0 1.0
  outer loop
    vertex 6.274574359298674 12.900667666662926 0.0
    vertex 6.274574359298672 8.279347323103284 0.0
    vertex 6.585234531078493 8.040969389206447 0.0
  endloop
endfacet
facet normal 0.0 0.0 1.0
  outer loop
    vertex 6.274574359298674 12.900667666662926 0.0
    vertex 6.585234531078493 8.040969389206447 0.0
    vertex 6.585234531078495 13.139045600559763 0.0
  endloop
endfacet
facet normal 0.0 0.0 1.0
  outer loop
    vertex 6.585234531078495 13.139045600559763 0.0
    vertex 6.585234531078493 8.040969389206447 0.0
    vertex 6.947005963424711 7.891118755449503 0.0
  endloop
endfacet
facet normal 0.0 0.0 1.0
  outer loop
    vertex 6.585234531078495 13.139045600559763 0.0
    vertex 6.947005963424711 7.891118755449503 0.0
    vertex 6.947005963424711 13.288896234316708 0.0
  endloop
endfacet
facet normal 0.0 0.0 1.0
  outer loop
    vertex 6.947005963424711 13.288896234316708 0.0
    vertex 6.947005963424711 7.891118755449503 0.0
    vertex 7.335234531078493 7.840007494883105 0.0
  endloop
endfacet
facet normal 0.0 0.0 1.0
  outer loop
    vertex 6.947005963424711 13.288896234316708 0.0
    vertex 7.335234531078493 7.840007494883105 0.0
    vertex 7.335234531078493 13.340007494883105 0.0
  endloop
endfacet
facet normal 0.0 0.0 1.0
  outer loop
    vertex 7.335234531078493 13.340007494883105 0.0
    vertex 7.335234531078493 7.840007494883105 0.0
    vertex 20.63523453107849 7.840007494883106 0.0
  endloop
endfacet
facet normal 0.0 0.0 1.0
  outer loop
    vertex 7.335234531078493 13.340007494883105 0.0
    vertex 20.63523453107849 7.840007494883106 0.0
    vertex 20.635234531078492 13.340007494883107 0.0
  endloop
endfacet
facet normal 0.0 0.0 1.0
  outer loop
    vertex 20.635234531078492 13.340007494883107 0.0
    vertex 20.63523453107849 7.840007494883106 0.0
    vertex 21.023463098732268 7.891118755449504 0.0
  endloop
endfacet
facet normal 0.0 0.0 1.0
  outer loop
    vertex 20.635234531078492 13.340007494883107 0.0
    vertex 21.023463098732268 7.891118755449504 0.0
    vertex 21.02346309873227 13.28889623431671 0.0
  endloop
endfacet
facet normal 0.0 0.0 1.0
  outer loop
    vertex 21.02346309873227 13.28889623431671 0.0
    vertex 21.023463098732268 7.891118755449504 0.0
    vertex 21.38523453107849 8.040969389206449 0.0
  endloop
endfacet
facet normal 0.0 0.0 1.0
  outer loop
    vertex 21.02346309873227 13.28889623431671 0.0
    vertex 21.38523453107849 8.040969389206449 0.0
    vertex 21.38523453107849 13.139045600559767 0.0
  endloop
endfacet
facet normal 0.0 0.0 1.0
  outer loop
    vertex 21.38523453107849 13.139045600559767 0.0
    vertex 21.38523453107849 8.040969389206449 0.0
    vertex 21.69589470285831 8.279347323103286 0.0
  endloop
endfacet
facet normal 0.0 0.0 1.0
  outer loop
    vertex 21.38523453107849 13.139045600559767 0.0
    vertex 21.69589470285831 8.279347323103286 0.0
    vertex 21.69589470285831 12.900667666662928 0.0
  endloop
endfacet
facet normal 0.0 0.0 1.0
  outer loop
    vertex 21.69589470285831 12.900667666662928 0.0
    vertex 21.69589470285831 8.279347323103286 0.0
    vertex 21.934272636755146 8.590007494883109 0.0
  endloop
endfacet
facet normal 0.0 0.0 1.0
  outer loop
    vertex 21.69589470285831 12.900667666662928 0.0
    vertex 21.934272636755146 8.590007494883109 0.0
    vertex 21.93427263675515 12.590007494883107 0.0
  endloop
endfacet
facet normal 0.0 0.0 1.0
  outer loop
    vertex 21.93427263675515 12.590007494883107 0.0
    vertex 21.934272636755146 8.590007494883109 0.0
    vertex 22.08412327051209 8.951778927229327 0.0
  endloop
endfacet
facet normal 0.0 0.0 1.0
  outer loop
    vertex 21.93427263675515 12.590007494883107 0.0
    vertex 22.08412327051209 8.951778927229327 0.0
    vertex 22.084123270512094 12.228236062536888 0.0
  endloop
endfacet
facet normal 0.0 0.0 1.0
  outer loop
    vertex 22.084123270512094 12.228236062536888 0.0
    vertex 22.08412327051209 8.951778927229327 0.0
    vertex 22.135234531078492 9.340007494883107 0.0
  endloop
endfacet
facet normal 0.0 0.0 1.0
  outer loop
    vertex 22.084123270512094 12.228236062536888 0.0
    vertex 22.135234531078492 9.340007494883107 0.0
    vertex 22.135234531078492 11.840007494883107 0.0
  endloop
endfacet
facet normal 0.0 0.0 1.0
  outer loop
    vertex 5.835234531078496 104.84000749488312 0.0
    vertex 5.8863457916448905 107.7282360625369 0.0
    vertex 5.835234531078493 107.34000749488312 0.0
  endloop
endfacet
facet normal 0.0 0.0 1.0
  outer loop
    vertex 5.8863457916448905 107.7282360625369 0.0
    vertex 5.835234531078496 104.84000749488312 0.0
    vertex 5.886345791644893 104.45177892722934 0.0
  endloop
endfacet
facet normal 0.0 0.0 1.0
  outer loop
    vertex 5.8863457916448905 107.7282360625369 0.0
    vertex 5.886345791644893 104.45177892722934 0.0
    vertex 6.036196425401835 108.09000749488312 0.0
  endloop
endfacet
facet normal 0.0 0.0 1.0
  outer loop
    vertex 6.036196425401835 108.09000749488312 0.0
    vertex 5.886345791644893 104.45177892722934 0.0
    vertex 6.036196425401837 104.09000749488311 0.0
  endloop
endfacet
facet normal 0.0 0.0 1.0
  outer loop
    vertex 6.036196425401835 108.09000749488312 0.0
    vertex 6.036196425401837 104.09000749488311 0.0
    vertex 6.274574359298672 108.40066766666294 0.0
  endloop
endfacet
facet normal 0.0 0.0 1.0
  outer loop
    vertex 6.274574359298672 108.40066766666294 0.0
    vertex 6.036196425401837 104.09000749488311 0.0
    vertex 6.274574359298674 103.7793473231033 0.0
  endloop
endfacet
facet normal 0.0 0.0 1.0
  outer loop
    vertex 6.274574359298672 108.40066766666294 0.0
    vertex 6.274574359298674 103.7793473231033 0.0
    vertex 6.585234531078493 108.63904560055977 0.0
  endloop
endfacet
facet normal 0.0 0.0 1.0
  outer loop
    vertex 6.585234531078493 108.63904560055977 0.0
    vertex 6.274574359298674 103.7793473231033 0.0
    vertex 6.585234531078495 103.54096938920647 0.0
  endloop
endfacet
facet normal 0.0 0.0 1.0
  outer loop
    vertex 6.585234531078493 108.63904560055977 0.0
    vertex 6.585234531078495 103.54096938920647 0.0
    vertex 6.947005963424711 108.78889623431672 0.0
  endloop
endfacet
facet normal 0.0 0.0 1.0
  outer loop
    vertex 6.947005963424711 108.78889623431672 0.0
    vertex 6.585234531078495 103.54096938920647 0.0
    vertex 6.947005963424713 103.39111875544953 0.0
  endloop
endfacet
facet normal 0.0 0.0 1.0
  outer loop
    vertex 6.947005963424711 108.78889623431672 0.0
    vertex 6.947005963424713 103.39111875544953 0.0
    vertex 7.335234531078493 108.84000749488311 0.0
  endloop
endfacet
facet normal 0.0 0.0 1.0
  outer loop
    vertex 7.335234531078493 108.84000749488311 0.0
    vertex 6.947005963424713 103.39111875544953 0.0
    vertex 7.335234531078493 103.34000749488312 0.0
  endloop
endfacet
facet normal 0.0 0.0 1.0
  outer loop
    vertex 7.335234531078493 108.84000749488311 0.0
    vertex 7.335234531078493 103.34000749488312 0.0
    vertex 20.63523453107849 103.34000749488312 0.0
  endloop
endfacet
facet normal 0.0 0.0 1.0
  outer loop
    vertex 7.335234531078493 108.84000749488311 0.0
    vertex 20.63523453107849 103.34000749488312 0.0
    vertex 20.63523453107849 108.84000749488311 0.0
  endloop
endfacet
facet normal 0.0 0.0 1.0
  outer loop
    vertex 20.63523453107849 108.84000749488311 0.0
    vertex 20.63523453107849 103.34000749488312 0.0
    vertex 21.023463098732268 103.39111875544953 0.0
  endloop
endfacet
facet normal 0.0 0.0 1.0
  outer loop
    vertex 20.63523453107849 108.84000749488311 0.0
    vertex 21.023463098732268 103.39111875544953 0.0
    vertex 21.023463098732268 108.78889623431672 0.0
  endloop
endfacet
facet normal 0.0 0.0 1.0
  outer loop
    vertex 21.023463098732268 108.78889623431672 0.0
    vertex 21.023463098732268 103.39111875544953 0.0
    vertex 21.38523453107849 103.54096938920647 0.0
  endloop
endfacet
facet normal 0.0 0.0 1.0
  outer loop
    vertex 21.023463098732268 108.78889623431672 0.0
    vertex 21.38523453107849 103.54096938920647 0.0
    vertex 21.38523453107849 108.63904560055977 0.0
  endloop
endfacet
facet normal 0.0 0.0 1.0
  outer loop
    vertex 21.38523453107849 108.63904560055977 0.0
    vertex 21.38523453107849 103.54096938920647 0.0
    vertex 21.695894702858308 103.7793473231033 0.0
  endloop
endfacet
facet normal 0.0 0.0 1.0
  outer loop
    vertex 21.38523453107849 108.63904560055977 0.0
    vertex 21.695894702858308 103.7793473231033 0.0
    vertex 21.69589470285831 108.40066766666294 0.0
  endloop
endfacet
facet normal 0.0 0.0 1.0
  outer loop
    vertex 21.69589470285831 108.40066766666294 0.0
    vertex 21.695894702858308 103.7793473231033 0.0
    vertex 21.934272636755143 104.09000749488314 0.0
  endloop
endfacet
facet normal 0.0 0.0 1.0
  outer loop
    vertex 21.69589470285831 108.40066766666294 0.0
    vertex 21.934272636755143 104.09000749488314 0.0
    vertex 21.934272636755146 108.09000749488312 0.0
  endloop
endfacet
facet normal 0.0 0.0 1.0
  outer loop
    vertex 21.934272636755146 108.09000749488312 0.0
    vertex 21.934272636755143 104.09000749488314 0.0
    vertex 22.084123270512087 104.45177892722934 0.0
  endloop
endfacet
facet normal 0.0 0.0 1.0
  outer loop
    vertex 21.934272636755146 108.09000749488312 0.0
    vertex 22.084123270512087 104.45177892722934 0.0
    vertex 22.08412327051209 107.7282360625369 0.0
  endloop
endfacet
facet normal 0.0 0.0 1.0
  outer loop
    vertex 22.08412327051209 107.7282360625369 0.0
    vertex 22.084123270512087 104.45177892722934 0.0
    vertex 22.135234531078485 104.84000749488312 0.0
  endloop
endfacet
facet normal 0.0 0.0 1.0
  outer loop
    vertex 22.08412327051209 107.7282360625369 0.0
    vertex 22.135234531078485 104.84000749488312 0.0
    vertex 22.13523453107849 107.34000749488312 0.0
  endloop
endfacet
facet normal -0.6087614290087208 -0.7933533402912353 -0.0
  outer loop
    vertex 5.335234531078489 5.509880475960911 0.9999999999999999
    vertex 4.299700625145752 6.3044735889503665 -6.0
    vertex 5.335234531078489 5.509880475960911 -6.0
  endloop
endfacet
facet normal -0.6087614290087208 -0.7933533402912353 -0.0
  outer loop
    vertex 4.299700625145752 6.3044735889503665 -6.0
    vertex 5.335234531078489 5.509880475960911 0.9999999999999999
    vertex 4.299700625145752 6.3044735889503665 0.9999999999999999
  endloop
endfacet
facet normal -0.3826834323650895 -0.923879532511287 -0.0
  outer loop
    vertex 6.541139305565886 5.010378363437763 0.9999999999999999
    vertex 5.335234531078489 5.509880475960911 -6.0
    vertex 6.541139305565886 5.010378363437763 -6.0
  endloop
endfacet
facet normal -0.3826834323650895 -0.923879532511287 -0.0
  outer loop
    vertex 5.335234531078489 5.509880475960911 -6.0
    vertex 6.541139305565886 5.010378363437763 0.9999999999999999
    vertex 5.335234531078489 5.509880475960911 0.9999999999999999
  endloop
endfacet
facet normal -0.7933533402912354 -0.6087614290087207 -0.0
  outer loop
    vertex 3.505107512156297 7.340007494883103 0.9999999999999999
    vertex 4.299700625145752 6.3044735889503665 -6.0
    vertex 4.299700625145752 6.3044735889503665 0.9999999999999999
  endloop
endfacet
facet normal -0.7933533402912354 -0.6087614290087207 -0.0
  outer loop
    vertex 4.299700625145752 6.3044735889503665 -6.0
    vertex 3.505107512156297 7.340007494883103 0.9999999999999999
    vertex 3.505107512156297 7.340007494883103 -6.0
  endloop
endfacet
facet normal -0.13052619222005227 -0.9914448613738105 -0.0
  outer loop
    vertex 7.835234531078489 4.840007494883103 0.9999999999999999
    vertex 6.541139305565886 5.010378363437763 -6.0
    vertex 7.835234531078489 4.840007494883103 -6.0
  endloop
endfacet
facet normal -0.13052619222005227 -0.9914448613738105 -0.0
  outer loop
    vertex 6.541139305565886 5.010378363437763 -6.0
    vertex 7.835234531078489 4.840007494883103 0.9999999999999999
    vertex 6.541139305565886 5.010378363437763 0.9999999999999999
  endloop
endfacet
facet normal -0.9238795325112867 -0.38268343236508995 -0.0
  outer loop
    vertex 3.005605399633149 8.545912269370499 0.9999999999999999
    vertex 3.505107512156297 7.340007494883103 -6.0
    vertex 3.505107512156297 7.340007494883103 0.9999999999999999
  endloop
endfacet
facet normal -0.9238795325112867 -0.38268343236508995 -0.0
  outer loop
    vertex 3.505107512156297 7.340007494883103 -6.0
    vertex 3.005605399633149 8.545912269370499 0.9999999999999999
    vertex 3.005605399633149 8.545912269370499 -6.0
  endloop
endfacet
facet normal -0.9914448613738104 -0.13052619222005174 -0.0
  outer loop
    vertex 2.83523453107849 9.840007494883103 0.9999999999999999
    vertex 3.005605399633149 8.545912269370499 -6.0
    vertex 3.005605399633149 8.545912269370499 0.9999999999999999
  endloop
endfacet
facet normal -0.9914448613738104 -0.13052619222005174 -0.0
  outer loop
    vertex 3.005605399633149 8.545912269370499 -6.0
    vertex 2.83523453107849 9.840007494883103 0.9999999999999999
    vertex 2.83523453107849 9.840007494883103 -6.0
  endloop
endfacet
facet normal 0.0 1.0 0.0
  outer loop
    vertex 7.835234531078492 111.84000749488311 0.9999999999999999
    vertex 20.135234531078492 111.84000749488311 -6.0
    vertex 7.835234531078492 111.84000749488311 -6.0
  endloop
endfacet
facet normal 0.0 1.0 0.0
  outer loop
    vertex 20.135234531078492 111.84000749488311 -6.0
    vertex 7.835234531078492 111.84000749488311 0.9999999999999999
    vertex 20.135234531078492 111.84000749488311 0.9999999999999999
  endloop
endfacet
facet normal 0.0 0.0 -1.0
  outer loop
    vertex 2.835234531078493 106.84000749488312 -6.0
    vertex 3.005605399633149 8.545912269370499 -6.0
    vertex 2.83523453107849 9.840007494883103 -6.0
  endloop
endfacet
facet normal 0.0 0.0 -1.0
  outer loop
    vertex 3.005605399633149 8.545912269370499 -6.0
    vertex 2.835234531078493 106.84000749488312 -6.0
    vertex 3.0056053996331586 108.13410272039572 -6.0
  endloop
endfacet
facet normal 0.0 0.0 -1.0
  outer loop
    vertex 3.005605399633149 8.545912269370499 -6.0
    vertex 3.0056053996331586 108.13410272039572 -6.0
    vertex 3.505107512156297 7.340007494883103 -6.0
  endloop
endfacet
facet normal 0.0 0.0 -1.0
  outer loop
    vertex 3.505107512156297 7.340007494883103 -6.0
    vertex 3.0056053996331586 108.13410272039572 -6.0
    vertex 3.298000730969758 108.84000749488311 -6.0
  endloop
endfacet
facet normal 0.0 0.0 -1.0
  outer loop
    vertex 3.505107512156297 7.340007494883103 -6.0
    vertex 3.298000730969758 108.84000749488311 -6.0
    vertex 3.5051075121563047 109.34000749488311 -6.0
  endloop
endfacet
facet normal 0.0 0.0 -1.0
  outer loop
    vertex 3.505107512156297 7.340007494883103 -6.0
    vertex 3.5051075121563047 109.34000749488311 -6.0
    vertex 4.299700625145752 6.3044735889503665 -6.0
  endloop
endfacet
facet normal 0.0 0.0 -1.0
  outer loop
    vertex 4.299700625145752 6.3044735889503665 -6.0
    vertex 3.5051075121563047 109.34000749488311 -6.0
    vertex 4.299700625145761 110.37554140081585 -6.0
  endloop
endfacet
facet normal 0.0 0.0 -1.0
  outer loop
    vertex 4.299700625145752 6.3044735889503665 -6.0
    vertex 4.299700625145761 110.37554140081585 -6.0
    vertex 5.335234531078489 5.509880475960911 -6.0
  endloop
endfacet
facet normal 0.0 0.0 -1.0
  outer loop
    vertex 5.335234531078489 5.509880475960911 -6.0
    vertex 4.299700625145761 110.37554140081585 -6.0
    vertex 5.335234531078495 111.17013451380531 -6.0
  endloop
endfacet
facet normal 0.0 0.0 -1.0
  outer loop
    vertex 5.335234531078489 5.509880475960911 -6.0
    vertex 5.335234531078495 111.17013451380531 -6.0
    vertex 6.541139305565886 5.010378363437763 -6.0
  endloop
endfacet
facet normal 0.0 0.0 -1.0
  outer loop
    vertex 6.541139305565886 5.010378363437763 -6.0
    vertex 5.335234531078495 111.17013451380531 -6.0
    vertex 5.835234531078493 111.37724129499186 -6.0
  endloop
endfacet
facet normal 0.0 0.0 -1.0
  outer loop
    vertex 6.541139305565886 5.010378363437763 -6.0
    vertex 5.835234531078493 111.37724129499186 -6.0
    vertex 6.541139305565887 111.66963662632844 -6.0
  endloop
endfacet
facet normal 0.0 0.0 -1.0
  outer loop
    vertex 6.541139305565886 5.010378363437763 -6.0
    vertex 6.541139305565887 111.66963662632844 -6.0
    vertex 7.835234531078489 4.840007494883103 -6.0
  endloop
endfacet
facet normal 0.0 0.0 -1.0
  outer loop
    vertex 7.835234531078489 4.840007494883103 -6.0
    vertex 6.541139305565887 111.66963662632844 -6.0
    vertex 7.835234531078492 111.84000749488311 -6.0
  endloop
endfacet
facet normal 0.0 0.0 -1.0
  outer loop
    vertex 7.835234531078489 4.840007494883103 -6.0
    vertex 7.835234531078492 111.84000749488311 -6.0
    vertex 20.135234531078492 4.840007494883103 -6.0
  endloop
endfacet
facet normal 0.0 0.0 -1.0
  outer loop
    vertex 20.135234531078492 4.840007494883103 -6.0
    vertex 7.835234531078492 111.84000749488311 -6.0
    vertex 20.135234531078492 111.84000749488311 -6.0
  endloop
endfacet
facet normal 0.0 0.0 -1.0
  outer loop
    vertex 20.135234531078492 4.840007494883103 -6.0
    vertex 20.135234531078492 111.84000749488311 -6.0
    vertex 21.429329756591095 111.66963662632847 -6.0
  endloop
endfacet
facet normal 0.0 0.0 -1.0
  outer loop
    vertex 20.135234531078492 4.840007494883103 -6.0
    vertex 21.429329756591095 111.66963662632847 -6.0
    vertex 21.4293297565911 5.010378363437762 -6.0
  endloop
endfacet
facet normal 0.0 0.0 -1.0
  outer loop
    vertex 21.4293297565911 5.010378363437762 -6.0
    vertex 21.429329756591095 111.66963662632847 -6.0
    vertex 22.135234531078492 111.37724129499186 -6.0
  endloop
endfacet
facet normal 0.0 0.0 -1.0
  outer loop
    vertex 21.4293297565911 5.010378363437762 -6.0
    vertex 22.135234531078492 111.37724129499186 -6.0
    vertex 22.635234531078492 5.509880475960911 -6.0
  endloop
endfacet
facet normal 0.0 0.0 -1.0
  outer loop
    vertex 22.635234531078492 5.509880475960911 -6.0
    vertex 22.135234531078492 111.37724129499186 -6.0
    vertex 22.63523453107849 111.17013451380531 -6.0
  endloop
endfacet
facet normal 0.0 0.0 -1.0
  outer loop
    vertex 22.635234531078492 5.509880475960911 -6.0
    vertex 22.63523453107849 111.17013451380531 -6.0
    vertex 23.670768437011226 110.37554140081586 -6.0
  endloop
endfacet
facet normal 0.0 0.0 -1.0
  outer loop
    vertex 22.635234531078492 5.509880475960911 -6.0
    vertex 23.670768437011226 110.37554140081586 -6.0
    vertex 23.670768437011226 6.304473588950366 -6.0
  endloop
endfacet
facet normal 0.0 0.0 -1.0
  outer loop
    vertex 23.670768437011226 6.304473588950366 -6.0
    vertex 23.670768437011226 110.37554140081586 -6.0
    vertex 24.465361550000683 109.34000749488311 -6.0
  endloop
endfacet
facet normal 0.0 0.0 -1.0
  outer loop
    vertex 23.670768437011226 6.304473588950366 -6.0
    vertex 24.465361550000683 109.34000749488311 -6.0
    vertex 24.465361550000686 7.340007494883103 -6.0
  endloop
endfacet
facet normal 0.0 0.0 -1.0
  outer loop
    vertex 24.465361550000686 7.340007494883103 -6.0
    vertex 24.465361550000683 109.34000749488311 -6.0
    vertex 24.67246833118723 108.84000749488311 -6.0
  endloop
endfacet
facet normal 0.0 0.0 -1.0
  outer loop
    vertex 24.465361550000686 7.340007494883103 -6.0
    vertex 24.67246833118723 108.84000749488311 -6.0
    vertex 24.964863662523832 8.545912269370499 -6.0
  endloop
endfacet
facet normal 0.0 0.0 -1.0
  outer loop
    vertex 24.964863662523832 8.545912269370499 -6.0
    vertex 24.67246833118723 108.84000749488311 -6.0
    vertex 24.96486366252383 108.13410272039572 -6.0
  endloop
endfacet
facet normal 0.0 0.0 -1.0
  outer loop
    vertex 24.964863662523832 8.545912269370499 -6.0
    vertex 24.96486366252383 108.13410272039572 -6.0
    vertex 25.135234531078492 106.84000749488312 -6.0
  endloop
endfacet
facet normal 0.0 0.0 -1.0
  outer loop
    vertex 24.964863662523832 8.545912269370499 -6.0
    vertex 25.135234531078492 106.84000749488312 -6.0
    vertex 25.135234531078492 9.840007494883103 -6.0
  endloop
endfacet
facet normal -1.0 2.907181940771028e-17 0.0
  outer loop
    vertex 2.835234531078493 106.84000749488312 0.9999999999999999
    vertex 2.83523453107849 9.840007494883103 -6.0
    vertex 2.83523453107849 9.840007494883103 0.9999999999999999
  endloop
endfacet
facet normal -1.0 2.907181940771028e-17 0.0
  outer loop
    vertex 2.83523453107849 9.840007494883103 -6.0
    vertex 2.835234531078493 106.84000749488312 0.9999999999999999
    vertex 2.835234531078493 106.84000749488312 -6.0
  endloop
endfacet
facet normal 1.0 0.0 0.0
  outer loop
    vertex 25.135234531078492 106.84000749488312 -6.0
    vertex 25.135234531078492 9.840007494883103 0.9999999999999999
    vertex 25.135234531078492 9.840007494883103 -6.0
  endloop
endfacet
facet normal 1.0 0.0 0.0
  outer loop
    vertex 25.135234531078492 9.840007494883103 0.9999999999999999
    vertex 25.135234531078492 106.84000749488312 -6.0
    vertex 25.135234531078492 106.84000749488312 0.9999999999999999
  endloop
endfacet
facet normal 0.1305261922200391 0.991444861373812 0.0
  outer loop
    vertex 20.135234531078492 111.84000749488311 0.9999999999999999
    vertex 21.429329756591095 111.66963662632847 -6.0
    vertex 20.135234531078492 111.84000749488311 -6.0
  endloop
endfacet
facet normal 0.1305261922200391 0.991444861373812 0.0
  outer loop
    vertex 21.429329756591095 111.66963662632847 -6.0
    vertex 20.135234531078492 111.84000749488311 0.9999999999999999
    vertex 21.429329756591095 111.66963662632847 0.9999999999999999
  endloop
endfacet
endsolid Leg first attempt
