solid Держатель
facet normal 0.0 0.0 -1.0
  outer loop
    vertex 3.895436962821099 26.537186647008408 -1.127986593019159e-14
    vertex 12.73037345336 15.287186647008406 -1.127986593019159e-14
    vertex 3.895436962821099 2.537186647008406 -1.127986593019159e-14
  endloop
endfacet
facet normal 0.0 0.0 -1.0
  outer loop
    vertex 12.73037345336 15.287186647008406 -1.127986593019159e-14
    vertex 3.895436962821099 26.537186647008408 -1.127986593019159e-14
    vertex 13.127670009854729 15.804953599974775 -1.127986593019159e-14
  endloop
endfacet
facet normal 0.0 0.0 -1.0
  outer loop
    vertex 13.127670009854729 15.804953599974775 -1.127986593019159e-14
    vertex 3.895436962821099 26.537186647008408 -1.127986593019159e-14
    vertex 25.895436962821098 26.537186647008408 -1.127986593019159e-14
  endloop
endfacet
facet normal 0.0 0.0 -1.0
  outer loop
    vertex 3.895436962821099 2.537186647008406 -1.127986593019159e-14
    vertex 12.73037345336 15.287186647008406 -1.127986593019159e-14
    vertex 12.480622397098427 14.68423425976471 -1.127986593019159e-14
  endloop
endfacet
facet normal 0.0 0.0 -1.0
  outer loop
    vertex 3.895436962821099 2.537186647008406 -1.127986593019159e-14
    vertex 12.480622397098427 14.68423425976471 -1.127986593019159e-14
    vertex 12.395436962821098 14.037186647008408 -1.127986593019159e-14
  endloop
endfacet
facet normal 0.0 0.0 -1.0
  outer loop
    vertex 13.127670009854729 15.804953599974775 -1.127986593019159e-14
    vertex 25.895436962821098 26.537186647008408 -1.127986593019159e-14
    vertex 13.645436962821098 16.202250156469507 -1.127986593019159e-14
  endloop
endfacet
facet normal 0.0 0.0 -1.0
  outer loop
    vertex 13.645436962821098 16.202250156469507 -1.127986593019159e-14
    vertex 25.895436962821098 26.537186647008408 -1.127986593019159e-14
    vertex 14.248389350064794 16.45200121273108 -1.127986593019159e-14
  endloop
endfacet
facet normal 0.0 0.0 -1.0
  outer loop
    vertex 14.248389350064794 16.45200121273108 -1.127986593019159e-14
    vertex 25.895436962821098 26.537186647008408 -1.127986593019159e-14
    vertex 14.8954369628211 16.537186647008408 -1.127986593019159e-14
  endloop
endfacet
facet normal 0.0 0.0 -1.0
  outer loop
    vertex 14.8954369628211 16.537186647008408 -1.127986593019159e-14
    vertex 25.895436962821098 26.537186647008408 -1.127986593019159e-14
    vertex 15.542484575577399 16.45200121273108 -1.127986593019159e-14
  endloop
endfacet
facet normal 0.0 0.0 -1.0
  outer loop
    vertex 15.542484575577399 16.45200121273108 -1.127986593019159e-14
    vertex 25.895436962821098 26.537186647008408 -1.127986593019159e-14
    vertex 16.145436962821098 16.202250156469507 -1.127986593019159e-14
  endloop
endfacet
facet normal 0.0 0.0 -1.0
  outer loop
    vertex 16.145436962821098 16.202250156469507 -1.127986593019159e-14
    vertex 25.895436962821098 26.537186647008408 -1.127986593019159e-14
    vertex 16.66320391578747 15.804953599974779 -1.127986593019159e-14
  endloop
endfacet
facet normal 0.0 0.0 -1.0
  outer loop
    vertex 16.66320391578747 15.804953599974779 -1.127986593019159e-14
    vertex 25.895436962821098 26.537186647008408 -1.127986593019159e-14
    vertex 17.060500472282197 15.287186647008408 -1.127986593019159e-14
  endloop
endfacet
facet normal 0.0 0.0 -1.0
  outer loop
    vertex 17.060500472282197 15.287186647008408 -1.127986593019159e-14
    vertex 25.895436962821098 26.537186647008408 -1.127986593019159e-14
    vertex 17.31025152854377 14.68423425976471 -1.127986593019159e-14
  endloop
endfacet
facet normal 0.0 0.0 -1.0
  outer loop
    vertex 17.31025152854377 14.68423425976471 -1.127986593019159e-14
    vertex 25.895436962821098 26.537186647008408 -1.127986593019159e-14
    vertex 17.3954369628211 14.037186647008408 -1.127986593019159e-14
  endloop
endfacet
facet normal 0.0 0.0 -1.0
  outer loop
    vertex 3.895436962821099 2.537186647008406 -1.127986593019159e-14
    vertex 13.645436962821098 11.872123137547309 -1.127986593019159e-14
    vertex 25.895436962821098 2.537186647008406 -1.127986593019159e-14
  endloop
endfacet
facet normal 0.0 0.0 -1.0
  outer loop
    vertex 13.645436962821098 11.872123137547309 -1.127986593019159e-14
    vertex 3.895436962821099 2.537186647008406 -1.127986593019159e-14
    vertex 13.12767000985473 12.269419694042037 -1.127986593019159e-14
  endloop
endfacet
facet normal 0.0 0.0 -1.0
  outer loop
    vertex 13.12767000985473 12.269419694042037 -1.127986593019159e-14
    vertex 3.895436962821099 2.537186647008406 -1.127986593019159e-14
    vertex 12.73037345336 12.787186647008408 -1.127986593019159e-14
  endloop
endfacet
facet normal 0.0 0.0 -1.0
  outer loop
    vertex 12.73037345336 12.787186647008408 -1.127986593019159e-14
    vertex 3.895436962821099 2.537186647008406 -1.127986593019159e-14
    vertex 12.480622397098427 13.390139034252103 -1.127986593019159e-14
  endloop
endfacet
facet normal 0.0 0.0 -1.0
  outer loop
    vertex 12.480622397098427 13.390139034252103 -1.127986593019159e-14
    vertex 3.895436962821099 2.537186647008406 -1.127986593019159e-14
    vertex 12.395436962821098 14.037186647008408 -1.127986593019159e-14
  endloop
endfacet
facet normal 0.0 0.0 -1.0
  outer loop
    vertex 25.895436962821098 2.537186647008406 -1.127986593019159e-14
    vertex 13.645436962821098 11.872123137547309 -1.127986593019159e-14
    vertex 14.248389350064798 11.622372081285736 -1.127986593019159e-14
  endloop
endfacet
facet normal 0.0 0.0 -1.0
  outer loop
    vertex 25.895436962821098 2.537186647008406 -1.127986593019159e-14
    vertex 14.248389350064798 11.622372081285736 -1.127986593019159e-14
    vertex 14.8954369628211 11.537186647008406 -1.127986593019159e-14
  endloop
endfacet
facet normal 0.0 0.0 -1.0
  outer loop
    vertex 25.895436962821098 2.537186647008406 -1.127986593019159e-14
    vertex 14.8954369628211 11.537186647008406 -1.127986593019159e-14
    vertex 15.542484575577403 11.622372081285736 -1.127986593019159e-14
  endloop
endfacet
facet normal 0.0 0.0 -1.0
  outer loop
    vertex 25.895436962821098 2.537186647008406 -1.127986593019159e-14
    vertex 15.542484575577403 11.622372081285736 -1.127986593019159e-14
    vertex 16.145436962821098 11.872123137547309 -1.127986593019159e-14
  endloop
endfacet
facet normal 0.0 0.0 -1.0
  outer loop
    vertex 25.895436962821098 2.537186647008406 -1.127986593019159e-14
    vertex 16.145436962821098 11.872123137547309 -1.127986593019159e-14
    vertex 16.66320391578747 12.269419694042039 -1.127986593019159e-14
  endloop
endfacet
facet normal 0.0 0.0 -1.0
  outer loop
    vertex 25.895436962821098 2.537186647008406 -1.127986593019159e-14
    vertex 16.66320391578747 12.269419694042039 -1.127986593019159e-14
    vertex 17.060500472282197 12.787186647008408 -1.127986593019159e-14
  endloop
endfacet
facet normal 0.0 0.0 -1.0
  outer loop
    vertex 25.895436962821098 2.537186647008406 -1.127986593019159e-14
    vertex 17.060500472282197 12.787186647008408 -1.127986593019159e-14
    vertex 17.31025152854377 13.390139034252106 -1.127986593019159e-14
  endloop
endfacet
facet normal 0.0 0.0 -1.0
  outer loop
    vertex 25.895436962821098 2.537186647008406 -1.127986593019159e-14
    vertex 17.31025152854377 13.390139034252106 -1.127986593019159e-14
    vertex 17.3954369628211 14.037186647008408 -1.127986593019159e-14
  endloop
endfacet
facet normal 0.0 0.0 -1.0
  outer loop
    vertex 25.895436962821098 2.537186647008406 -1.127986593019159e-14
    vertex 17.3954369628211 14.037186647008408 -1.127986593019159e-14
    vertex 25.895436962821098 26.537186647008408 -1.127986593019159e-14
  endloop
endfacet
facet normal 0.0 -1.0 0.0
  outer loop
    vertex 25.895436962821098 2.537186647008406 2.999999999999989
    vertex 3.895436962821099 2.537186647008406 -1.127986593019159e-14
    vertex 25.895436962821098 2.537186647008406 -1.127986593019159e-14
  endloop
endfacet
facet normal 0.0 -1.0 0.0
  outer loop
    vertex 3.895436962821099 2.537186647008406 -1.127986593019159e-14
    vertex 25.895436962821098 2.537186647008406 2.999999999999989
    vertex 3.895436962821099 2.537186647008406 2.999999999999989
  endloop
endfacet
facet normal 1.0 0.0 0.0
  outer loop
    vertex 25.895436962821098 26.537186647008408 -1.127986593019159e-14
    vertex 25.895436962821098 2.537186647008406 2.999999999999989
    vertex 25.895436962821098 2.537186647008406 -1.127986593019159e-14
  endloop
endfacet
facet normal 1.0 0.0 0.0
  outer loop
    vertex 25.895436962821098 2.537186647008406 2.999999999999989
    vertex 25.895436962821098 26.537186647008408 -1.127986593019159e-14
    vertex 25.895436962821098 13.037186647008406 2.999999999999989
  endloop
endfacet
facet normal 1.0 0.0 0.0
  outer loop
    vertex 25.895436962821098 13.037186647008406 2.999999999999989
    vertex 25.895436962821098 26.537186647008408 -1.127986593019159e-14
    vertex 25.895436962821098 20.33993671906624 2.999999999999989
  endloop
endfacet
facet normal 1.0 0.0 0.0
  outer loop
    vertex 25.895436962821098 20.33993671906624 2.999999999999989
    vertex 25.895436962821098 26.537186647008408 -1.127986593019159e-14
    vertex 25.895436962821098 23.537186647008408 2.999999999999989
  endloop
endfacet
facet normal 1.0 0.0 0.0
  outer loop
    vertex 25.895436962821098 23.537186647008408 2.999999999999989
    vertex 25.895436962821098 26.537186647008408 -1.127986593019159e-14
    vertex 25.895436962821098 23.537186647008408 13.499999999999986
  endloop
endfacet
facet normal 1.0 0.0 0.0
  outer loop
    vertex 25.895436962821098 23.537186647008408 13.499999999999986
    vertex 25.895436962821098 26.537186647008408 -1.127986593019159e-14
    vertex 25.895436962821098 23.537186647008408 30.49999999999999
  endloop
endfacet
facet normal 1.0 0.0 0.0
  outer loop
    vertex 25.895436962821098 23.537186647008408 30.49999999999999
    vertex 25.895436962821098 26.537186647008408 -1.127986593019159e-14
    vertex 25.895436962821098 26.537186647008408 30.49999999999999
  endloop
endfacet
facet normal 0.0 1.0 0.0
  outer loop
    vertex 3.895436962821099 26.537186647008408 -1.127986593019159e-14
    vertex 12.420563228668183 26.537186647008408 17.025126265847074
    vertex 25.895436962821098 26.537186647008408 -1.127986593019159e-14
  endloop
endfacet
facet normal 0.0 1.0 0.0
  outer loop
    vertex 12.420563228668183 26.537186647008408 17.025126265847074
    vertex 3.895436962821099 26.537186647008408 -1.127986593019159e-14
    vertex 11.864348049575565 26.537186647008408 17.74999999999999
  endloop
endfacet
facet normal 0.0 1.0 0.0
  outer loop
    vertex 11.864348049575565 26.537186647008408 17.74999999999999
    vertex 3.895436962821099 26.537186647008408 -1.127986593019159e-14
    vertex 3.895436962821099 26.537186647008408 30.49999999999999
  endloop
endfacet
facet normal 0.0 1.0 0.0
  outer loop
    vertex 25.895436962821098 26.537186647008408 -1.127986593019159e-14
    vertex 12.420563228668183 26.537186647008408 17.025126265847074
    vertex 13.1454369628211 26.537186647008408 16.468911086754456
  endloop
endfacet
facet normal 0.0 1.0 0.0
  outer loop
    vertex 25.895436962821098 26.537186647008408 -1.127986593019159e-14
    vertex 13.1454369628211 26.537186647008408 16.468911086754456
    vertex 13.989570304962275 26.537186647008408 16.11925960798825
  endloop
endfacet
facet normal 0.0 1.0 0.0
  outer loop
    vertex 25.895436962821098 26.537186647008408 -1.127986593019159e-14
    vertex 13.989570304962275 26.537186647008408 16.11925960798825
    vertex 14.8954369628211 26.537186647008408 15.999999999999991
  endloop
endfacet
facet normal 0.0 1.0 0.0
  outer loop
    vertex 11.864348049575565 26.537186647008408 17.74999999999999
    vertex 3.895436962821099 26.537186647008408 30.49999999999999
    vertex 11.514696570809361 26.537186647008408 18.59413334214117
  endloop
endfacet
facet normal 0.0 1.0 0.0
  outer loop
    vertex 11.514696570809361 26.537186647008408 18.59413334214117
    vertex 3.895436962821099 26.537186647008408 30.49999999999999
    vertex 11.3954369628211 26.537186647008408 19.49999999999999
  endloop
endfacet
facet normal 0.0 1.0 0.0
  outer loop
    vertex 11.3954369628211 26.537186647008408 19.49999999999999
    vertex 3.895436962821099 26.537186647008408 30.49999999999999
    vertex 11.514696570809361 26.537186647008408 20.405866657858812
  endloop
endfacet
facet normal 0.0 1.0 0.0
  outer loop
    vertex 11.514696570809361 26.537186647008408 20.405866657858812
    vertex 3.895436962821099 26.537186647008408 30.49999999999999
    vertex 11.864348049575565 26.537186647008408 21.24999999999999
  endloop
endfacet
facet normal 0.0 1.0 0.0
  outer loop
    vertex 11.864348049575565 26.537186647008408 21.24999999999999
    vertex 3.895436962821099 26.537186647008408 30.49999999999999
    vertex 12.420563228668183 26.537186647008408 21.974873734152908
  endloop
endfacet
facet normal 0.0 1.0 0.0
  outer loop
    vertex 12.420563228668183 26.537186647008408 21.974873734152908
    vertex 3.895436962821099 26.537186647008408 30.49999999999999
    vertex 13.145436962821101 26.537186647008408 22.531088913245526
  endloop
endfacet
facet normal 0.0 1.0 0.0
  outer loop
    vertex 13.145436962821101 26.537186647008408 22.531088913245526
    vertex 3.895436962821099 26.537186647008408 30.49999999999999
    vertex 13.989570304962278 26.537186647008408 22.880740392011727
  endloop
endfacet
facet normal 0.0 1.0 0.0
  outer loop
    vertex 13.989570304962278 26.537186647008408 22.880740392011727
    vertex 3.895436962821099 26.537186647008408 30.49999999999999
    vertex 14.8954369628211 26.537186647008408 22.99999999999999
  endloop
endfacet
facet normal 0.0 1.0 0.0
  outer loop
    vertex 25.895436962821098 26.537186647008408 -1.127986593019159e-14
    vertex 17.926525876066634 26.537186647008408 17.74999999999999
    vertex 25.895436962821098 26.537186647008408 30.49999999999999
  endloop
endfacet
facet normal 0.0 1.0 0.0
  outer loop
    vertex 17.926525876066634 26.537186647008408 17.74999999999999
    vertex 25.895436962821098 26.537186647008408 -1.127986593019159e-14
    vertex 17.370310696974013 26.537186647008408 17.025126265847074
  endloop
endfacet
facet normal 0.0 1.0 0.0
  outer loop
    vertex 17.370310696974013 26.537186647008408 17.025126265847074
    vertex 25.895436962821098 26.537186647008408 -1.127986593019159e-14
    vertex 16.645436962821098 26.537186647008408 16.468911086754456
  endloop
endfacet
facet normal 0.0 1.0 0.0
  outer loop
    vertex 16.645436962821098 26.537186647008408 16.468911086754456
    vertex 25.895436962821098 26.537186647008408 -1.127986593019159e-14
    vertex 15.80130362067992 26.537186647008408 16.11925960798825
  endloop
endfacet
facet normal 0.0 1.0 0.0
  outer loop
    vertex 15.80130362067992 26.537186647008408 16.11925960798825
    vertex 25.895436962821098 26.537186647008408 -1.127986593019159e-14
    vertex 14.8954369628211 26.537186647008408 15.999999999999991
  endloop
endfacet
facet normal 0.0 1.0 0.0
  outer loop
    vertex 25.895436962821098 26.537186647008408 30.49999999999999
    vertex 17.926525876066634 26.537186647008408 17.74999999999999
    vertex 18.276177354832836 26.537186647008408 18.594133342141166
  endloop
endfacet
facet normal 0.0 1.0 0.0
  outer loop
    vertex 25.895436962821098 26.537186647008408 30.49999999999999
    vertex 18.276177354832836 26.537186647008408 18.594133342141166
    vertex 18.395436962821098 26.537186647008408 19.49999999999999
  endloop
endfacet
facet normal 0.0 1.0 0.0
  outer loop
    vertex 25.895436962821098 26.537186647008408 30.49999999999999
    vertex 18.395436962821098 26.537186647008408 19.49999999999999
    vertex 18.276177354832836 26.537186647008408 20.405866657858812
  endloop
endfacet
facet normal 0.0 1.0 0.0
  outer loop
    vertex 25.895436962821098 26.537186647008408 30.49999999999999
    vertex 18.276177354832836 26.537186647008408 20.405866657858812
    vertex 17.926525876066634 26.537186647008408 21.24999999999999
  endloop
endfacet
facet normal 0.0 1.0 0.0
  outer loop
    vertex 25.895436962821098 26.537186647008408 30.49999999999999
    vertex 17.926525876066634 26.537186647008408 21.24999999999999
    vertex 17.370310696974016 26.537186647008408 21.974873734152904
  endloop
endfacet
facet normal 0.0 1.0 0.0
  outer loop
    vertex 25.895436962821098 26.537186647008408 30.49999999999999
    vertex 17.370310696974016 26.537186647008408 21.974873734152904
    vertex 16.645436962821098 26.537186647008408 22.531088913245522
  endloop
endfacet
facet normal 0.0 1.0 0.0
  outer loop
    vertex 25.895436962821098 26.537186647008408 30.49999999999999
    vertex 16.645436962821098 26.537186647008408 22.531088913245522
    vertex 15.801303620679922 26.537186647008408 22.880740392011727
  endloop
endfacet
facet normal 0.0 1.0 0.0
  outer loop
    vertex 25.895436962821098 26.537186647008408 30.49999999999999
    vertex 15.801303620679922 26.537186647008408 22.880740392011727
    vertex 14.8954369628211 26.537186647008408 22.99999999999999
  endloop
endfacet
facet normal 0.0 1.0 0.0
  outer loop
    vertex 25.895436962821098 26.537186647008408 30.49999999999999
    vertex 14.8954369628211 26.537186647008408 22.99999999999999
    vertex 3.895436962821099 26.537186647008408 30.49999999999999
  endloop
endfacet
facet normal -1.0 -0.0 -0.0
  outer loop
    vertex 3.895436962821099 26.537186647008408 30.49999999999999
    vertex 3.895436962821099 23.537186647008404 13.49999999999999
    vertex 3.895436962821099 23.537186647008404 30.49999999999999
  endloop
endfacet
facet normal -1.0 -0.0 -0.0
  outer loop
    vertex 3.895436962821099 23.537186647008404 13.49999999999999
    vertex 3.895436962821099 26.537186647008408 30.49999999999999
    vertex 3.895436962821099 23.537186647008404 2.999999999999989
  endloop
endfacet
facet normal -1.0 -0.0 -0.0
  outer loop
    vertex 3.895436962821099 13.037186647008404 2.999999999999989
    vertex 3.895436962821099 2.537186647008406 -1.127986593019159e-14
    vertex 3.895436962821099 2.537186647008406 2.999999999999989
  endloop
endfacet
facet normal -1.0 -0.0 -0.0
  outer loop
    vertex 3.895436962821099 2.537186647008406 -1.127986593019159e-14
    vertex 3.895436962821099 13.037186647008404 2.999999999999989
    vertex 3.895436962821099 26.537186647008408 -1.127986593019159e-14
  endloop
endfacet
facet normal -1.0 -0.0 -0.0
  outer loop
    vertex 3.895436962821099 26.537186647008408 -1.127986593019159e-14
    vertex 3.895436962821099 13.037186647008404 2.999999999999989
    vertex 3.895436962821099 23.537186647008404 2.999999999999989
  endloop
endfacet
facet normal -1.0 -0.0 -0.0
  outer loop
    vertex 3.895436962821099 26.537186647008408 -1.127986593019159e-14
    vertex 3.895436962821099 23.537186647008404 2.999999999999989
    vertex 3.895436962821099 26.537186647008408 30.49999999999999
  endloop
endfacet
facet normal 0.0 0.0 1.0
  outer loop
    vertex 25.895436962821098 13.037186647008406 2.999999999999989
    vertex 22.895436962821098 20.33993671906624 2.999999999999989
    vertex 22.895436962821098 13.037186647008406 2.999999999999989
  endloop
endfacet
facet normal 0.0 0.0 1.0
  outer loop
    vertex 22.895436962821098 20.33993671906624 2.999999999999989
    vertex 25.895436962821098 13.037186647008406 2.999999999999989
    vertex 25.895436962821098 20.33993671906624 2.999999999999989
  endloop
endfacet
facet normal -0.13052619222005188 -0.9914448613738104 1.971044673880752e-32
  outer loop
    vertex 15.542484575577399 16.45200121273108 2.999999999999989
    vertex 14.8954369628211 16.537186647008408 -1.127986593019159e-14
    vertex 15.542484575577399 16.45200121273108 -1.127986593019159e-14
  endloop
endfacet
facet normal -0.13052619222005188 -0.9914448613738104 1.971044673880752e-32
  outer loop
    vertex 14.8954369628211 16.537186647008408 -1.127986593019159e-14
    vertex 15.542484575577399 16.45200121273108 2.999999999999989
    vertex 14.8954369628211 16.537186647008408 2.999999999999989
  endloop
endfacet
facet normal 0.13052619222005132 -0.9914448613738106 1.9710446738807527e-32
  outer loop
    vertex 14.8954369628211 16.537186647008408 2.999999999999989
    vertex 14.248389350064794 16.45200121273108 -1.127986593019159e-14
    vertex 14.8954369628211 16.537186647008408 -1.127986593019159e-14
  endloop
endfacet
facet normal 0.13052619222005132 -0.9914448613738106 1.9710446738807527e-32
  outer loop
    vertex 14.248389350064794 16.45200121273108 -1.127986593019159e-14
    vertex 14.8954369628211 16.537186647008408 2.999999999999989
    vertex 14.248389350064794 16.45200121273108 2.999999999999989
  endloop
endfacet
facet normal 0.3826834323650902 -0.9238795325112866 1.836721236661113e-32
  outer loop
    vertex 14.248389350064794 16.45200121273108 2.999999999999989
    vertex 13.645436962821098 16.202250156469507 -1.127986593019159e-14
    vertex 14.248389350064794 16.45200121273108 -1.127986593019159e-14
  endloop
endfacet
facet normal 0.3826834323650902 -0.9238795325112866 1.836721236661113e-32
  outer loop
    vertex 13.645436962821098 16.202250156469507 -1.127986593019159e-14
    vertex 14.248389350064794 16.45200121273108 2.999999999999989
    vertex 13.645436962821098 16.202250156469507 2.999999999999989
  endloop
endfacet
facet normal 0.6087614290087223 -0.793353340291234 1.5772282824883756e-32
  outer loop
    vertex 13.645436962821098 16.202250156469507 2.999999999999989
    vertex 13.127670009854729 15.804953599974775 -1.127986593019159e-14
    vertex 13.645436962821098 16.202250156469507 -1.127986593019159e-14
  endloop
endfacet
facet normal 0.6087614290087223 -0.793353340291234 1.5772282824883756e-32
  outer loop
    vertex 13.127670009854729 15.804953599974775 -1.127986593019159e-14
    vertex 13.645436962821098 16.202250156469507 2.999999999999989
    vertex 13.127670009854729 15.804953599974775 2.999999999999989
  endloop
endfacet
facet normal 0.7933533402912362 -0.6087614290087197 1.2102498273570342e-32
  outer loop
    vertex 13.127670009854729 15.804953599974775 -1.127986593019159e-14
    vertex 12.73037345336 15.287186647008406 2.999999999999989
    vertex 12.73037345336 15.287186647008406 -1.127986593019159e-14
  endloop
endfacet
facet normal 0.7933533402912362 -0.6087614290087197 1.2102498273570342e-32
  outer loop
    vertex 12.73037345336 15.287186647008406 2.999999999999989
    vertex 13.127670009854729 15.804953599974775 -1.127986593019159e-14
    vertex 13.127670009854729 15.804953599974775 2.999999999999989
  endloop
endfacet
facet normal 0.9238795325112866 -0.3826834323650902 7.607948465237171e-33
  outer loop
    vertex 12.73037345336 15.287186647008406 -1.127986593019159e-14
    vertex 12.480622397098427 14.68423425976471 2.999999999999989
    vertex 12.480622397098427 14.68423425976471 -1.127986593019159e-14
  endloop
endfacet
facet normal 0.9238795325112866 -0.3826834323650902 7.607948465237171e-33
  outer loop
    vertex 12.480622397098427 14.68423425976471 2.999999999999989
    vertex 12.73037345336 15.287186647008406 -1.127986593019159e-14
    vertex 12.73037345336 15.287186647008406 2.999999999999989
  endloop
endfacet
facet normal 0.9914448613738104 -0.13052619222005188 2.5949295417273578e-33
  outer loop
    vertex 12.480622397098427 14.68423425976471 -1.127986593019159e-14
    vertex 12.395436962821098 14.037186647008408 2.999999999999989
    vertex 12.395436962821098 14.037186647008408 -1.127986593019159e-14
  endloop
endfacet
facet normal 0.9914448613738104 -0.13052619222005188 2.5949295417273578e-33
  outer loop
    vertex 12.395436962821098 14.037186647008408 2.999999999999989
    vertex 12.480622397098427 14.68423425976471 -1.127986593019159e-14
    vertex 12.480622397098427 14.68423425976471 2.999999999999989
  endloop
endfacet
facet normal 0.9914448613738106 0.13052619222005132 -2.5949295417273462e-33
  outer loop
    vertex 12.395436962821098 14.037186647008408 -1.127986593019159e-14
    vertex 12.480622397098427 13.390139034252103 2.999999999999989
    vertex 12.480622397098427 13.390139034252103 -1.127986593019159e-14
  endloop
endfacet
facet normal 0.9914448613738106 0.13052619222005132 -2.5949295417273462e-33
  outer loop
    vertex 12.480622397098427 13.390139034252103 2.999999999999989
    vertex 12.395436962821098 14.037186647008408 -1.127986593019159e-14
    vertex 12.395436962821098 14.037186647008408 2.999999999999989
  endloop
endfacet
facet normal 0.9238795325112866 0.3826834323650902 -7.607948465237171e-33
  outer loop
    vertex 12.480622397098427 13.390139034252103 -1.127986593019159e-14
    vertex 12.73037345336 12.787186647008408 2.999999999999989
    vertex 12.73037345336 12.787186647008408 -1.127986593019159e-14
  endloop
endfacet
facet normal 0.9238795325112866 0.3826834323650902 -7.607948465237171e-33
  outer loop
    vertex 12.73037345336 12.787186647008408 2.999999999999989
    vertex 12.480622397098427 13.390139034252103 -1.127986593019159e-14
    vertex 12.480622397098427 13.390139034252103 2.999999999999989
  endloop
endfacet
facet normal 0.793353340291234 0.6087614290087223 -1.2102498273570395e-32
  outer loop
    vertex 12.73037345336 12.787186647008408 -1.127986593019159e-14
    vertex 13.12767000985473 12.269419694042037 2.999999999999989
    vertex 13.12767000985473 12.269419694042037 -1.127986593019159e-14
  endloop
endfacet
facet normal 0.793353340291234 0.6087614290087223 -1.2102498273570395e-32
  outer loop
    vertex 13.12767000985473 12.269419694042037 2.999999999999989
    vertex 12.73037345336 12.787186647008408 -1.127986593019159e-14
    vertex 12.73037345336 12.787186647008408 2.999999999999989
  endloop
endfacet
facet normal 0.6087614290087217 0.7933533402912344 -1.5772282824883764e-32
  outer loop
    vertex 13.12767000985473 12.269419694042037 2.999999999999989
    vertex 13.645436962821098 11.872123137547309 -1.127986593019159e-14
    vertex 13.12767000985473 12.269419694042037 -1.127986593019159e-14
  endloop
endfacet
facet normal 0.6087614290087217 0.7933533402912344 -1.5772282824883764e-32
  outer loop
    vertex 13.645436962821098 11.872123137547309 -1.127986593019159e-14
    vertex 13.12767000985473 12.269419694042037 2.999999999999989
    vertex 13.645436962821098 11.872123137547309 2.999999999999989
  endloop
endfacet
facet normal 0.3826834323650887 0.9238795325112873 -1.836721236661114e-32
  outer loop
    vertex 13.645436962821098 11.872123137547309 2.999999999999989
    vertex 14.248389350064798 11.622372081285736 -1.127986593019159e-14
    vertex 13.645436962821098 11.872123137547309 -1.127986593019159e-14
  endloop
endfacet
facet normal 0.3826834323650887 0.9238795325112873 -1.836721236661114e-32
  outer loop
    vertex 14.248389350064798 11.622372081285736 -1.127986593019159e-14
    vertex 13.645436962821098 11.872123137547309 2.999999999999989
    vertex 14.248389350064798 11.622372081285736 2.999999999999989
  endloop
endfacet
facet normal 0.13052619222005188 0.9914448613738104 -1.971044673880752e-32
  outer loop
    vertex 14.248389350064798 11.622372081285736 2.999999999999989
    vertex 14.8954369628211 11.537186647008406 -1.127986593019159e-14
    vertex 14.248389350064798 11.622372081285736 -1.127986593019159e-14
  endloop
endfacet
facet normal 0.13052619222005188 0.9914448613738104 -1.971044673880752e-32
  outer loop
    vertex 14.8954369628211 11.537186647008406 -1.127986593019159e-14
    vertex 14.248389350064798 11.622372081285736 2.999999999999989
    vertex 14.8954369628211 11.537186647008406 2.999999999999989
  endloop
endfacet
facet normal -0.13052619222005132 0.9914448613738106 -1.9710446738807527e-32
  outer loop
    vertex 14.8954369628211 11.537186647008406 2.999999999999989
    vertex 15.542484575577403 11.622372081285736 -1.127986593019159e-14
    vertex 14.8954369628211 11.537186647008406 -1.127986593019159e-14
  endloop
endfacet
facet normal -0.13052619222005132 0.9914448613738106 -1.9710446738807527e-32
  outer loop
    vertex 15.542484575577403 11.622372081285736 -1.127986593019159e-14
    vertex 14.8954369628211 11.537186647008406 2.999999999999989
    vertex 15.542484575577403 11.622372081285736 2.999999999999989
  endloop
endfacet
facet normal -0.3826834323650902 0.9238795325112866 -1.836721236661113e-32
  outer loop
    vertex 15.542484575577403 11.622372081285736 2.999999999999989
    vertex 16.145436962821098 11.872123137547309 -1.127986593019159e-14
    vertex 15.542484575577403 11.622372081285736 -1.127986593019159e-14
  endloop
endfacet
facet normal -0.3826834323650902 0.9238795325112866 -1.836721236661113e-32
  outer loop
    vertex 16.145436962821098 11.872123137547309 -1.127986593019159e-14
    vertex 15.542484575577403 11.622372081285736 2.999999999999989
    vertex 16.145436962821098 11.872123137547309 2.999999999999989
  endloop
endfacet
facet normal -0.608761429008721 0.7933533402912349 -1.5772282824883775e-32
  outer loop
    vertex 16.145436962821098 11.872123137547309 2.999999999999989
    vertex 16.66320391578747 12.269419694042039 -1.127986593019159e-14
    vertex 16.145436962821098 11.872123137547309 -1.127986593019159e-14
  endloop
endfacet
facet normal -0.608761429008721 0.7933533402912349 -1.5772282824883775e-32
  outer loop
    vertex 16.66320391578747 12.269419694042039 -1.127986593019159e-14
    vertex 16.145436962821098 11.872123137547309 2.999999999999989
    vertex 16.66320391578747 12.269419694042039 2.999999999999989
  endloop
endfacet
facet normal -0.7933533402912354 0.6087614290087207 -1.2102498273570361e-32
  outer loop
    vertex 17.060500472282197 12.787186647008408 2.999999999999989
    vertex 16.66320391578747 12.269419694042039 -1.127986593019159e-14
    vertex 16.66320391578747 12.269419694042039 2.999999999999989
  endloop
endfacet
facet normal -0.7933533402912354 0.6087614290087207 -1.2102498273570361e-32
  outer loop
    vertex 16.66320391578747 12.269419694042039 -1.127986593019159e-14
    vertex 17.060500472282197 12.787186647008408 2.999999999999989
    vertex 17.060500472282197 12.787186647008408 -1.127986593019159e-14
  endloop
endfacet
facet normal -0.9238795325112873 0.3826834323650887 -7.607948465237141e-33
  outer loop
    vertex 17.31025152854377 13.390139034252106 2.999999999999989
    vertex 17.060500472282197 12.787186647008408 -1.127986593019159e-14
    vertex 17.060500472282197 12.787186647008408 2.999999999999989
  endloop
endfacet
facet normal -0.9238795325112873 0.3826834323650887 -7.607948465237141e-33
  outer loop
    vertex 17.060500472282197 12.787186647008408 -1.127986593019159e-14
    vertex 17.31025152854377 13.390139034252106 2.999999999999989
    vertex 17.31025152854377 13.390139034252106 -1.127986593019159e-14
  endloop
endfacet
facet normal -0.9914448613738104 0.13052619222005188 -2.5949295417273578e-33
  outer loop
    vertex 17.3954369628211 14.037186647008408 2.999999999999989
    vertex 17.31025152854377 13.390139034252106 -1.127986593019159e-14
    vertex 17.31025152854377 13.390139034252106 2.999999999999989
  endloop
endfacet
facet normal -0.9914448613738104 0.13052619222005188 -2.5949295417273578e-33
  outer loop
    vertex 17.31025152854377 13.390139034252106 -1.127986593019159e-14
    vertex 17.3954369628211 14.037186647008408 2.999999999999989
    vertex 17.3954369628211 14.037186647008408 -1.127986593019159e-14
  endloop
endfacet
facet normal -0.9914448613738104 -0.13052619222005188 2.5949295417273568e-33
  outer loop
    vertex 17.31025152854377 14.68423425976471 2.999999999999989
    vertex 17.3954369628211 14.037186647008408 -1.127986593019159e-14
    vertex 17.3954369628211 14.037186647008408 2.999999999999989
  endloop
endfacet
facet normal -0.9914448613738104 -0.13052619222005188 2.5949295417273568e-33
  outer loop
    vertex 17.3954369628211 14.037186647008408 -1.127986593019159e-14
    vertex 17.31025152854377 14.68423425976471 2.999999999999989
    vertex 17.31025152854377 14.68423425976471 -1.127986593019159e-14
  endloop
endfacet
facet normal -0.9238795325112873 -0.3826834323650887 7.607948465237141e-33
  outer loop
    vertex 17.060500472282197 15.287186647008408 2.999999999999989
    vertex 17.31025152854377 14.68423425976471 -1.127986593019159e-14
    vertex 17.31025152854377 14.68423425976471 2.999999999999989
  endloop
endfacet
facet normal -0.9238795325112873 -0.3826834323650887 7.607948465237141e-33
  outer loop
    vertex 17.31025152854377 14.68423425976471 -1.127986593019159e-14
    vertex 17.060500472282197 15.287186647008408 2.999999999999989
    vertex 17.060500472282197 15.287186647008408 -1.127986593019159e-14
  endloop
endfacet
facet normal -0.7933533402912362 -0.6087614290087197 1.2102498273570342e-32
  outer loop
    vertex 16.66320391578747 15.804953599974779 2.999999999999989
    vertex 17.060500472282197 15.287186647008408 -1.127986593019159e-14
    vertex 17.060500472282197 15.287186647008408 2.999999999999989
  endloop
endfacet
facet normal -0.7933533402912362 -0.6087614290087197 1.2102498273570342e-32
  outer loop
    vertex 17.060500472282197 15.287186647008408 -1.127986593019159e-14
    vertex 16.66320391578747 15.804953599974779 2.999999999999989
    vertex 16.66320391578747 15.804953599974779 -1.127986593019159e-14
  endloop
endfacet
facet normal -0.6087614290087197 -0.7933533402912362 1.57722828248838e-32
  outer loop
    vertex 16.66320391578747 15.804953599974779 2.999999999999989
    vertex 16.145436962821098 16.202250156469507 -1.127986593019159e-14
    vertex 16.66320391578747 15.804953599974779 -1.127986593019159e-14
  endloop
endfacet
facet normal -0.6087614290087197 -0.7933533402912362 1.57722828248838e-32
  outer loop
    vertex 16.145436962821098 16.202250156469507 -1.127986593019159e-14
    vertex 16.66320391578747 15.804953599974779 2.999999999999989
    vertex 16.145436962821098 16.202250156469507 2.999999999999989
  endloop
endfacet
facet normal -0.3826834323650887 -0.9238795325112873 1.836721236661114e-32
  outer loop
    vertex 16.145436962821098 16.202250156469507 2.999999999999989
    vertex 15.542484575577399 16.45200121273108 -1.127986593019159e-14
    vertex 16.145436962821098 16.202250156469507 -1.127986593019159e-14
  endloop
endfacet
facet normal -0.3826834323650887 -0.9238795325112873 1.836721236661114e-32
  outer loop
    vertex 15.542484575577399 16.45200121273108 -1.127986593019159e-14
    vertex 16.145436962821098 16.202250156469507 2.999999999999989
    vertex 15.542484575577399 16.45200121273108 2.999999999999989
  endloop
endfacet
facet normal 0.0 0.0 1.0
  outer loop
    vertex 25.895436962821098 23.537186647008408 30.49999999999999
    vertex 3.895436962821099 26.537186647008408 30.49999999999999
    vertex 3.895436962821099 23.537186647008404 30.49999999999999
  endloop
endfacet
facet normal 0.0 0.0 1.0
  outer loop
    vertex 3.895436962821099 26.537186647008408 30.49999999999999
    vertex 25.895436962821098 23.537186647008408 30.49999999999999
    vertex 25.895436962821098 26.537186647008408 30.49999999999999
  endloop
endfacet
facet normal 1.402024181341258e-16 -1.0 -1.6740609499124453e-18
  outer loop
    vertex 25.895436962821098 23.537186647008408 30.49999999999999
    vertex 22.895436962821098 23.537186647008408 13.499999999999986
    vertex 25.895436962821098 23.537186647008408 13.499999999999986
  endloop
endfacet
facet normal 1.402024181341258e-16 -1.0 -1.6740609499124453e-18
  outer loop
    vertex 22.895436962821098 23.537186647008408 13.499999999999986
    vertex 25.895436962821098 23.537186647008408 30.49999999999999
    vertex 6.895436962821099 23.537186647008404 13.49999999999999
  endloop
endfacet
facet normal 1.402024181341258e-16 -1.0 -1.6740609499124453e-18
  outer loop
    vertex 6.895436962821099 23.537186647008404 13.49999999999999
    vertex 25.895436962821098 23.537186647008408 30.49999999999999
    vertex 3.895436962821099 23.537186647008404 13.49999999999999
  endloop
endfacet
facet normal 1.402024181341258e-16 -1.0 -1.6740609499124453e-18
  outer loop
    vertex 3.895436962821099 23.537186647008404 13.49999999999999
    vertex 25.895436962821098 23.537186647008408 30.49999999999999
    vertex 3.895436962821099 23.537186647008404 30.49999999999999
  endloop
endfacet
facet normal 1.402024181341258e-16 -1.0 -1.6740609499124453e-18
  outer loop
    vertex 22.895436962821098 23.537186647008408 13.499999999999986
    vertex 6.895436962821099 23.537186647008404 2.999999999999989
    vertex 22.895436962821098 23.537186647008408 2.999999999999989
  endloop
endfacet
facet normal 1.402024181341258e-16 -1.0 -1.6740609499124453e-18
  outer loop
    vertex 6.895436962821099 23.537186647008404 2.999999999999989
    vertex 22.895436962821098 23.537186647008408 13.499999999999986
    vertex 6.895436962821099 23.537186647008404 13.49999999999999
  endloop
endfacet
facet normal 0.0 1.0 0.0
  outer loop
    vertex 13.989570304962275 39.537186647008404 16.11925960798825
    vertex 15.80130362067992 39.537186647008404 16.11925960798825
    vertex 14.8954369628211 39.537186647008404 15.999999999999991
  endloop
endfacet
facet normal 0.0 1.0 0.0
  outer loop
    vertex 15.80130362067992 39.537186647008404 16.11925960798825
    vertex 13.989570304962275 39.537186647008404 16.11925960798825
    vertex 13.1454369628211 39.537186647008404 16.468911086754456
  endloop
endfacet
facet normal 0.0 1.0 0.0
  outer loop
    vertex 15.80130362067992 39.537186647008404 16.11925960798825
    vertex 13.1454369628211 39.537186647008404 16.468911086754456
    vertex 16.645436962821098 39.537186647008404 16.468911086754456
  endloop
endfacet
facet normal 0.0 1.0 0.0
  outer loop
    vertex 16.645436962821098 39.537186647008404 16.468911086754456
    vertex 13.1454369628211 39.537186647008404 16.468911086754456
    vertex 12.420563228668183 39.537186647008404 17.025126265847074
  endloop
endfacet
facet normal 0.0 1.0 0.0
  outer loop
    vertex 16.645436962821098 39.537186647008404 16.468911086754456
    vertex 12.420563228668183 39.537186647008404 17.025126265847074
    vertex 17.370310696974013 39.537186647008404 17.025126265847074
  endloop
endfacet
facet normal 0.0 1.0 0.0
  outer loop
    vertex 17.370310696974013 39.537186647008404 17.025126265847074
    vertex 12.420563228668183 39.537186647008404 17.025126265847074
    vertex 11.864348049575565 39.537186647008404 17.74999999999999
  endloop
endfacet
facet normal 0.0 1.0 0.0
  outer loop
    vertex 17.370310696974013 39.537186647008404 17.025126265847074
    vertex 11.864348049575565 39.537186647008404 17.74999999999999
    vertex 17.926525876066634 39.537186647008404 17.74999999999999
  endloop
endfacet
facet normal 0.0 1.0 0.0
  outer loop
    vertex 17.926525876066634 39.537186647008404 17.74999999999999
    vertex 11.864348049575565 39.537186647008404 17.74999999999999
    vertex 11.514696570809361 39.537186647008404 18.59413334214117
  endloop
endfacet
facet normal 0.0 1.0 0.0
  outer loop
    vertex 17.926525876066634 39.537186647008404 17.74999999999999
    vertex 11.514696570809361 39.537186647008404 18.59413334214117
    vertex 18.276177354832836 39.537186647008404 18.594133342141166
  endloop
endfacet
facet normal 0.0 1.0 0.0
  outer loop
    vertex 18.276177354832836 39.537186647008404 18.594133342141166
    vertex 11.514696570809361 39.537186647008404 18.59413334214117
    vertex 18.395436962821098 39.537186647008404 19.49999999999999
  endloop
endfacet
facet normal 0.0 1.0 0.0
  outer loop
    vertex 18.395436962821098 39.537186647008404 19.49999999999999
    vertex 11.514696570809361 39.537186647008404 18.59413334214117
    vertex 11.3954369628211 39.537186647008404 19.49999999999999
  endloop
endfacet
facet normal 0.0 1.0 0.0
  outer loop
    vertex 18.395436962821098 39.537186647008404 19.49999999999999
    vertex 11.3954369628211 39.537186647008404 19.49999999999999
    vertex 11.514696570809361 39.537186647008404 20.405866657858812
  endloop
endfacet
facet normal 0.0 1.0 0.0
  outer loop
    vertex 18.395436962821098 39.537186647008404 19.49999999999999
    vertex 11.514696570809361 39.537186647008404 20.405866657858812
    vertex 18.276177354832836 39.537186647008404 20.405866657858812
  endloop
endfacet
facet normal 0.0 1.0 0.0
  outer loop
    vertex 18.276177354832836 39.537186647008404 20.405866657858812
    vertex 11.514696570809361 39.537186647008404 20.405866657858812
    vertex 17.926525876066634 39.537186647008404 21.24999999999999
  endloop
endfacet
facet normal 0.0 1.0 0.0
  outer loop
    vertex 17.926525876066634 39.537186647008404 21.24999999999999
    vertex 11.514696570809361 39.537186647008404 20.405866657858812
    vertex 11.864348049575565 39.537186647008404 21.24999999999999
  endloop
endfacet
facet normal 0.0 1.0 0.0
  outer loop
    vertex 17.926525876066634 39.537186647008404 21.24999999999999
    vertex 11.864348049575565 39.537186647008404 21.24999999999999
    vertex 12.420563228668183 39.537186647008404 21.974873734152908
  endloop
endfacet
facet normal 0.0 1.0 0.0
  outer loop
    vertex 17.926525876066634 39.537186647008404 21.24999999999999
    vertex 12.420563228668183 39.537186647008404 21.974873734152908
    vertex 17.370310696974016 39.537186647008404 21.974873734152904
  endloop
endfacet
facet normal 0.0 1.0 0.0
  outer loop
    vertex 17.370310696974016 39.537186647008404 21.974873734152904
    vertex 12.420563228668183 39.537186647008404 21.974873734152908
    vertex 16.645436962821098 39.537186647008404 22.531088913245522
  endloop
endfacet
facet normal 0.0 1.0 0.0
  outer loop
    vertex 16.645436962821098 39.537186647008404 22.531088913245522
    vertex 12.420563228668183 39.537186647008404 21.974873734152908
    vertex 13.145436962821101 39.537186647008404 22.531088913245526
  endloop
endfacet
facet normal 0.0 1.0 0.0
  outer loop
    vertex 16.645436962821098 39.537186647008404 22.531088913245522
    vertex 13.145436962821101 39.537186647008404 22.531088913245526
    vertex 15.801303620679922 39.537186647008404 22.880740392011727
  endloop
endfacet
facet normal 0.0 1.0 0.0
  outer loop
    vertex 15.801303620679922 39.537186647008404 22.880740392011727
    vertex 13.145436962821101 39.537186647008404 22.531088913245526
    vertex 13.989570304962278 39.537186647008404 22.880740392011727
  endloop
endfacet
facet normal 0.0 1.0 0.0
  outer loop
    vertex 15.801303620679922 39.537186647008404 22.880740392011727
    vertex 13.989570304962278 39.537186647008404 22.880740392011727
    vertex 14.8954369628211 39.537186647008404 22.99999999999999
  endloop
endfacet
facet normal 0.13052619222005196 0.0 -0.9914448613738105
  outer loop
    vertex 15.80130362067992 39.537186647008404 16.11925960798825
    vertex 14.8954369628211 26.537186647008408 15.999999999999991
    vertex 14.8954369628211 39.537186647008404 15.999999999999991
  endloop
endfacet
facet normal 0.13052619222005196 0.0 -0.9914448613738105
  outer loop
    vertex 14.8954369628211 26.537186647008408 15.999999999999991
    vertex 15.80130362067992 39.537186647008404 16.11925960798825
    vertex 15.80130362067992 26.537186647008408 16.11925960798825
  endloop
endfacet
facet normal -0.13052619222005155 -0.0 -0.9914448613738105
  outer loop
    vertex 14.8954369628211 39.537186647008404 15.999999999999991
    vertex 13.989570304962275 26.537186647008408 16.11925960798825
    vertex 13.989570304962275 39.537186647008404 16.11925960798825
  endloop
endfacet
facet normal -0.13052619222005155 -0.0 -0.9914448613738105
  outer loop
    vertex 13.989570304962275 26.537186647008408 16.11925960798825
    vertex 14.8954369628211 39.537186647008404 15.999999999999991
    vertex 14.8954369628211 26.537186647008408 15.999999999999991
  endloop
endfacet
facet normal -0.38268343236509056 -0.0 -0.9238795325112865
  outer loop
    vertex 13.989570304962275 39.537186647008404 16.11925960798825
    vertex 13.1454369628211 26.537186647008408 16.468911086754456
    vertex 13.1454369628211 39.537186647008404 16.468911086754456
  endloop
endfacet
facet normal -0.38268343236509056 -0.0 -0.9238795325112865
  outer loop
    vertex 13.1454369628211 26.537186647008408 16.468911086754456
    vertex 13.989570304962275 39.537186647008404 16.11925960798825
    vertex 13.989570304962275 26.537186647008408 16.11925960798825
  endloop
endfacet
facet normal -0.6087614290087199 -0.0 -0.7933533402912359
  outer loop
    vertex 13.1454369628211 39.537186647008404 16.468911086754456
    vertex 12.420563228668183 26.537186647008408 17.025126265847074
    vertex 12.420563228668183 39.537186647008404 17.025126265847074
  endloop
endfacet
facet normal -0.6087614290087199 -0.0 -0.7933533402912359
  outer loop
    vertex 12.420563228668183 26.537186647008408 17.025126265847074
    vertex 13.1454369628211 39.537186647008404 16.468911086754456
    vertex 13.1454369628211 26.537186647008408 16.468911086754456
  endloop
endfacet
facet normal -0.7933533402912356 -0.0 -0.6087614290087201
  outer loop
    vertex 11.864348049575565 39.537186647008404 17.74999999999999
    vertex 12.420563228668183 26.537186647008408 17.025126265847074
    vertex 11.864348049575565 26.537186647008408 17.74999999999999
  endloop
endfacet
facet normal -0.7933533402912356 -0.0 -0.6087614290087201
  outer loop
    vertex 12.420563228668183 26.537186647008408 17.025126265847074
    vertex 11.864348049575565 39.537186647008404 17.74999999999999
    vertex 12.420563228668183 39.537186647008404 17.025126265847074
  endloop
endfacet
facet normal -0.923879532511287 -0.0 -0.38268343236508945
  outer loop
    vertex 11.514696570809361 39.537186647008404 18.59413334214117
    vertex 11.864348049575565 26.537186647008408 17.74999999999999
    vertex 11.514696570809361 26.537186647008408 18.59413334214117
  endloop
endfacet
facet normal -0.923879532511287 -0.0 -0.38268343236508945
  outer loop
    vertex 11.864348049575565 26.537186647008408 17.74999999999999
    vertex 11.514696570809361 39.537186647008404 18.59413334214117
    vertex 11.864348049575565 39.537186647008404 17.74999999999999
  endloop
endfacet
facet normal -0.9914448613738105 -0.0 -0.13052619222005196
  outer loop
    vertex 11.3954369628211 39.537186647008404 19.49999999999999
    vertex 11.514696570809361 26.537186647008408 18.59413334214117
    vertex 11.3954369628211 26.537186647008408 19.49999999999999
  endloop
endfacet
facet normal -0.9914448613738105 -0.0 -0.13052619222005196
  outer loop
    vertex 11.514696570809361 26.537186647008408 18.59413334214117
    vertex 11.3954369628211 39.537186647008404 19.49999999999999
    vertex 11.514696570809361 39.537186647008404 18.59413334214117
  endloop
endfacet
facet normal -0.9914448613738105 0.0 0.13052619222005155
  outer loop
    vertex 11.514696570809361 39.537186647008404 20.405866657858812
    vertex 11.3954369628211 26.537186647008408 19.49999999999999
    vertex 11.514696570809361 26.537186647008408 20.405866657858812
  endloop
endfacet
facet normal -0.9914448613738105 0.0 0.13052619222005155
  outer loop
    vertex 11.3954369628211 26.537186647008408 19.49999999999999
    vertex 11.514696570809361 39.537186647008404 20.405866657858812
    vertex 11.3954369628211 39.537186647008404 19.49999999999999
  endloop
endfacet
facet normal -0.9238795325112865 0.0 0.38268343236509056
  outer loop
    vertex 11.864348049575565 39.537186647008404 21.24999999999999
    vertex 11.514696570809361 26.537186647008408 20.405866657858812
    vertex 11.864348049575565 26.537186647008408 21.24999999999999
  endloop
endfacet
facet normal -0.9238795325112865 0.0 0.38268343236509056
  outer loop
    vertex 11.514696570809361 26.537186647008408 20.405866657858812
    vertex 11.864348049575565 39.537186647008404 21.24999999999999
    vertex 11.514696570809361 39.537186647008404 20.405866657858812
  endloop
endfacet
facet normal -0.7933533402912356 0.0 0.6087614290087201
  outer loop
    vertex 12.420563228668183 39.537186647008404 21.974873734152908
    vertex 11.864348049575565 26.537186647008408 21.24999999999999
    vertex 12.420563228668183 26.537186647008408 21.974873734152908
  endloop
endfacet
facet normal -0.7933533402912356 0.0 0.6087614290087201
  outer loop
    vertex 11.864348049575565 26.537186647008408 21.24999999999999
    vertex 12.420563228668183 39.537186647008404 21.974873734152908
    vertex 11.864348049575565 39.537186647008404 21.24999999999999
  endloop
endfacet
facet normal -0.6087614290087203 0.0 0.7933533402912355
  outer loop
    vertex 13.145436962821101 26.537186647008408 22.531088913245526
    vertex 12.420563228668183 39.537186647008404 21.974873734152908
    vertex 12.420563228668183 26.537186647008408 21.974873734152908
  endloop
endfacet
facet normal -0.6087614290087203 0.0 0.7933533402912355
  outer loop
    vertex 12.420563228668183 39.537186647008404 21.974873734152908
    vertex 13.145436962821101 26.537186647008408 22.531088913245526
    vertex 13.145436962821101 39.537186647008404 22.531088913245526
  endloop
endfacet
facet normal -0.3826834323650879 0.0 0.9238795325112875
  outer loop
    vertex 13.989570304962278 26.537186647008408 22.880740392011727
    vertex 13.145436962821101 39.537186647008404 22.531088913245526
    vertex 13.145436962821101 26.537186647008408 22.531088913245526
  endloop
endfacet
facet normal -0.3826834323650879 0.0 0.9238795325112875
  outer loop
    vertex 13.145436962821101 39.537186647008404 22.531088913245526
    vertex 13.989570304962278 26.537186647008408 22.880740392011727
    vertex 13.989570304962278 39.537186647008404 22.880740392011727
  endloop
endfacet
facet normal -0.13052619222005196 0.0 0.9914448613738105
  outer loop
    vertex 14.8954369628211 26.537186647008408 22.99999999999999
    vertex 13.989570304962278 39.537186647008404 22.880740392011727
    vertex 13.989570304962278 26.537186647008408 22.880740392011727
  endloop
endfacet
facet normal -0.13052619222005196 0.0 0.9914448613738105
  outer loop
    vertex 13.989570304962278 39.537186647008404 22.880740392011727
    vertex 14.8954369628211 26.537186647008408 22.99999999999999
    vertex 14.8954369628211 39.537186647008404 22.99999999999999
  endloop
endfacet
facet normal 0.13052619222005155 0.0 0.9914448613738105
  outer loop
    vertex 15.801303620679922 26.537186647008408 22.880740392011727
    vertex 14.8954369628211 39.537186647008404 22.99999999999999
    vertex 14.8954369628211 26.537186647008408 22.99999999999999
  endloop
endfacet
facet normal 0.13052619222005155 0.0 0.9914448613738105
  outer loop
    vertex 14.8954369628211 39.537186647008404 22.99999999999999
    vertex 15.801303620679922 26.537186647008408 22.880740392011727
    vertex 15.801303620679922 39.537186647008404 22.880740392011727
  endloop
endfacet
facet normal 0.38268343236509056 0.0 0.9238795325112865
  outer loop
    vertex 16.645436962821098 26.537186647008408 22.531088913245522
    vertex 15.801303620679922 39.537186647008404 22.880740392011727
    vertex 15.801303620679922 26.537186647008408 22.880740392011727
  endloop
endfacet
facet normal 0.38268343236509056 0.0 0.9238795325112865
  outer loop
    vertex 15.801303620679922 39.537186647008404 22.880740392011727
    vertex 16.645436962821098 26.537186647008408 22.531088913245522
    vertex 16.645436962821098 39.537186647008404 22.531088913245522
  endloop
endfacet
facet normal 0.6087614290087211 0.0 0.793353340291235
  outer loop
    vertex 17.370310696974016 26.537186647008408 21.974873734152904
    vertex 16.645436962821098 39.537186647008404 22.531088913245522
    vertex 16.645436962821098 26.537186647008408 22.531088913245522
  endloop
endfacet
facet normal 0.6087614290087211 0.0 0.793353340291235
  outer loop
    vertex 16.645436962821098 39.537186647008404 22.531088913245522
    vertex 17.370310696974016 26.537186647008408 21.974873734152904
    vertex 17.370310696974016 39.537186647008404 21.974873734152904
  endloop
endfacet
facet normal 0.7933533402912353 0.0 0.6087614290087207
  outer loop
    vertex 17.926525876066634 39.537186647008404 21.24999999999999
    vertex 17.370310696974016 26.537186647008408 21.974873734152904
    vertex 17.926525876066634 26.537186647008408 21.24999999999999
  endloop
endfacet
facet normal 0.7933533402912353 0.0 0.6087614290087207
  outer loop
    vertex 17.370310696974016 26.537186647008408 21.974873734152904
    vertex 17.926525876066634 39.537186647008404 21.24999999999999
    vertex 17.370310696974016 39.537186647008404 21.974873734152904
  endloop
endfacet
facet normal 0.923879532511287 0.0 0.38268343236508945
  outer loop
    vertex 18.276177354832836 39.537186647008404 20.405866657858812
    vertex 17.926525876066634 26.537186647008408 21.24999999999999
    vertex 18.276177354832836 26.537186647008408 20.405866657858812
  endloop
endfacet
facet normal 0.923879532511287 0.0 0.38268343236508945
  outer loop
    vertex 17.926525876066634 26.537186647008408 21.24999999999999
    vertex 18.276177354832836 39.537186647008404 20.405866657858812
    vertex 17.926525876066634 39.537186647008404 21.24999999999999
  endloop
endfacet
facet normal 0.9914448613738105 0.0 0.13052619222005196
  outer loop
    vertex 18.395436962821098 39.537186647008404 19.49999999999999
    vertex 18.276177354832836 26.537186647008408 20.405866657858812
    vertex 18.395436962821098 26.537186647008408 19.49999999999999
  endloop
endfacet
facet normal 0.9914448613738105 0.0 0.13052619222005196
  outer loop
    vertex 18.276177354832836 26.537186647008408 20.405866657858812
    vertex 18.395436962821098 39.537186647008404 19.49999999999999
    vertex 18.276177354832836 39.537186647008404 20.405866657858812
  endloop
endfacet
facet normal 0.9914448613738105 0.0 -0.13052619222005155
  outer loop
    vertex 18.276177354832836 39.537186647008404 18.594133342141166
    vertex 18.395436962821098 26.537186647008408 19.49999999999999
    vertex 18.276177354832836 26.537186647008408 18.594133342141166
  endloop
endfacet
facet normal 0.9914448613738105 0.0 -0.13052619222005155
  outer loop
    vertex 18.395436962821098 26.537186647008408 19.49999999999999
    vertex 18.276177354832836 39.537186647008404 18.594133342141166
    vertex 18.395436962821098 39.537186647008404 19.49999999999999
  endloop
endfacet
facet normal 0.9238795325112865 0.0 -0.38268343236509056
  outer loop
    vertex 17.926525876066634 39.537186647008404 17.74999999999999
    vertex 18.276177354832836 26.537186647008408 18.594133342141166
    vertex 17.926525876066634 26.537186647008408 17.74999999999999
  endloop
endfacet
facet normal 0.9238795325112865 0.0 -0.38268343236509056
  outer loop
    vertex 18.276177354832836 26.537186647008408 18.594133342141166
    vertex 17.926525876066634 39.537186647008404 17.74999999999999
    vertex 18.276177354832836 39.537186647008404 18.594133342141166
  endloop
endfacet
facet normal 0.793353340291235 0.0 -0.6087614290087211
  outer loop
    vertex 17.370310696974013 39.537186647008404 17.025126265847074
    vertex 17.926525876066634 26.537186647008408 17.74999999999999
    vertex 17.370310696974013 26.537186647008408 17.025126265847074
  endloop
endfacet
facet normal 0.793353340291235 0.0 -0.6087614290087211
  outer loop
    vertex 17.926525876066634 26.537186647008408 17.74999999999999
    vertex 17.370310696974013 39.537186647008404 17.025126265847074
    vertex 17.926525876066634 39.537186647008404 17.74999999999999
  endloop
endfacet
facet normal 0.6087614290087207 0.0 -0.7933533402912353
  outer loop
    vertex 17.370310696974013 39.537186647008404 17.025126265847074
    vertex 16.645436962821098 26.537186647008408 16.468911086754456
    vertex 16.645436962821098 39.537186647008404 16.468911086754456
  endloop
endfacet
facet normal 0.6087614290087207 0.0 -0.7933533402912353
  outer loop
    vertex 16.645436962821098 26.537186647008408 16.468911086754456
    vertex 17.370310696974013 39.537186647008404 17.025126265847074
    vertex 17.370310696974013 26.537186647008408 17.025126265847074
  endloop
endfacet
facet normal 0.38268343236508945 0.0 -0.923879532511287
  outer loop
    vertex 16.645436962821098 39.537186647008404 16.468911086754456
    vertex 15.80130362067992 26.537186647008408 16.11925960798825
    vertex 15.80130362067992 39.537186647008404 16.11925960798825
  endloop
endfacet
facet normal 0.38268343236508945 0.0 -0.923879532511287
  outer loop
    vertex 15.80130362067992 26.537186647008408 16.11925960798825
    vertex 16.645436962821098 39.537186647008404 16.468911086754456
    vertex 16.645436962821098 26.537186647008408 16.468911086754456
  endloop
endfacet
facet normal 1.0 0.0 0.0
  outer loop
    vertex 25.895436962821098 20.33993671906624 2.999999999999989
    vertex 25.895436962821098 23.537186647008408 13.499999999999986
    vertex 25.895436962821098 13.037186647008406 2.999999999999989
  endloop
endfacet
facet normal 1.0 0.0 0.0
  outer loop
    vertex 25.895436962821098 23.537186647008408 13.499999999999986
    vertex 25.895436962821098 20.33993671906624 2.999999999999989
    vertex 25.895436962821098 23.537186647008408 2.999999999999989
  endloop
endfacet
facet normal -1.0 0.0 0.0
  outer loop
    vertex 22.895436962821098 23.537186647008408 13.499999999999986
    vertex 22.895436962821098 20.33993671906624 2.999999999999989
    vertex 22.895436962821098 13.037186647008406 2.999999999999989
  endloop
endfacet
facet normal -1.0 0.0 0.0
  outer loop
    vertex 22.895436962821098 20.33993671906624 2.999999999999989
    vertex 22.895436962821098 23.537186647008408 13.499999999999986
    vertex 22.895436962821098 23.537186647008408 2.999999999999989
  endloop
endfacet
facet normal 0.0 -0.7071067811865475 0.7071067811865476
  outer loop
    vertex 25.895436962821098 13.037186647008406 2.999999999999989
    vertex 22.895436962821098 23.537186647008408 13.499999999999986
    vertex 22.895436962821098 13.037186647008406 2.999999999999989
  endloop
endfacet
facet normal 0.0 -0.7071067811865475 0.7071067811865476
  outer loop
    vertex 22.895436962821098 23.537186647008408 13.499999999999986
    vertex 25.895436962821098 13.037186647008406 2.999999999999989
    vertex 25.895436962821098 23.537186647008408 13.499999999999986
  endloop
endfacet
facet normal 0.0 0.0 1.0
  outer loop
    vertex 25.895436962821098 20.33993671906624 2.999999999999989
    vertex 22.895436962821098 23.537186647008408 2.999999999999989
    vertex 22.895436962821098 20.33993671906624 2.999999999999989
  endloop
endfacet
facet normal 0.0 0.0 1.0
  outer loop
    vertex 22.895436962821098 23.537186647008408 2.999999999999989
    vertex 25.895436962821098 20.33993671906624 2.999999999999989
    vertex 25.895436962821098 23.537186647008408 2.999999999999989
  endloop
endfacet
facet normal 0.0 -1.0 0.0
  outer loop
    vertex 25.895436962821098 23.537186647008408 13.499999999999986
    vertex 22.895436962821098 23.537186647008408 2.999999999999989
    vertex 25.895436962821098 23.537186647008408 2.999999999999989
  endloop
endfacet
facet normal 0.0 -1.0 0.0
  outer loop
    vertex 22.895436962821098 23.537186647008408 2.999999999999989
    vertex 25.895436962821098 23.537186647008408 13.499999999999986
    vertex 22.895436962821098 23.537186647008408 13.499999999999986
  endloop
endfacet
facet normal 0.0 0.0 1.0
  outer loop
    vertex 25.895436962821098 2.537186647008406 2.999999999999989
    vertex 3.895436962821099 13.037186647008404 2.999999999999989
    vertex 3.895436962821099 2.537186647008406 2.999999999999989
  endloop
endfacet
facet normal 0.0 0.0 1.0
  outer loop
    vertex 3.895436962821099 13.037186647008404 2.999999999999989
    vertex 25.895436962821098 2.537186647008406 2.999999999999989
    vertex 6.895436962821099 13.037186647008404 2.999999999999989
  endloop
endfacet
facet normal 0.0 0.0 1.0
  outer loop
    vertex 6.895436962821099 13.037186647008404 2.999999999999989
    vertex 25.895436962821098 2.537186647008406 2.999999999999989
    vertex 13.645436962821098 11.872123137547309 2.999999999999989
  endloop
endfacet
facet normal 0.0 0.0 1.0
  outer loop
    vertex 6.895436962821099 13.037186647008404 2.999999999999989
    vertex 13.645436962821098 11.872123137547309 2.999999999999989
    vertex 13.12767000985473 12.269419694042037 2.999999999999989
  endloop
endfacet
facet normal 0.0 0.0 1.0
  outer loop
    vertex 6.895436962821099 13.037186647008404 2.999999999999989
    vertex 13.12767000985473 12.269419694042037 2.999999999999989
    vertex 12.73037345336 12.787186647008408 2.999999999999989
  endloop
endfacet
facet normal 0.0 0.0 1.0
  outer loop
    vertex 6.895436962821099 13.037186647008404 2.999999999999989
    vertex 12.73037345336 12.787186647008408 2.999999999999989
    vertex 6.895436962821099 23.537186647008404 2.999999999999989
  endloop
endfacet
facet normal 0.0 0.0 1.0
  outer loop
    vertex 6.895436962821099 23.537186647008404 2.999999999999989
    vertex 12.73037345336 12.787186647008408 2.999999999999989
    vertex 12.480622397098427 13.390139034252103 2.999999999999989
  endloop
endfacet
facet normal 0.0 0.0 1.0
  outer loop
    vertex 6.895436962821099 23.537186647008404 2.999999999999989
    vertex 12.480622397098427 13.390139034252103 2.999999999999989
    vertex 12.395436962821098 14.037186647008408 2.999999999999989
  endloop
endfacet
facet normal 0.0 0.0 1.0
  outer loop
    vertex 13.645436962821098 11.872123137547309 2.999999999999989
    vertex 25.895436962821098 2.537186647008406 2.999999999999989
    vertex 14.248389350064798 11.622372081285736 2.999999999999989
  endloop
endfacet
facet normal 0.0 0.0 1.0
  outer loop
    vertex 14.248389350064798 11.622372081285736 2.999999999999989
    vertex 25.895436962821098 2.537186647008406 2.999999999999989
    vertex 14.8954369628211 11.537186647008406 2.999999999999989
  endloop
endfacet
facet normal 0.0 0.0 1.0
  outer loop
    vertex 14.8954369628211 11.537186647008406 2.999999999999989
    vertex 25.895436962821098 2.537186647008406 2.999999999999989
    vertex 15.542484575577403 11.622372081285736 2.999999999999989
  endloop
endfacet
facet normal 0.0 0.0 1.0
  outer loop
    vertex 15.542484575577403 11.622372081285736 2.999999999999989
    vertex 25.895436962821098 2.537186647008406 2.999999999999989
    vertex 16.145436962821098 11.872123137547309 2.999999999999989
  endloop
endfacet
facet normal 0.0 0.0 1.0
  outer loop
    vertex 16.145436962821098 11.872123137547309 2.999999999999989
    vertex 25.895436962821098 2.537186647008406 2.999999999999989
    vertex 16.66320391578747 12.269419694042039 2.999999999999989
  endloop
endfacet
facet normal 0.0 0.0 1.0
  outer loop
    vertex 16.66320391578747 12.269419694042039 2.999999999999989
    vertex 25.895436962821098 2.537186647008406 2.999999999999989
    vertex 17.060500472282197 12.787186647008408 2.999999999999989
  endloop
endfacet
facet normal 0.0 0.0 1.0
  outer loop
    vertex 17.060500472282197 12.787186647008408 2.999999999999989
    vertex 25.895436962821098 2.537186647008406 2.999999999999989
    vertex 17.31025152854377 13.390139034252106 2.999999999999989
  endloop
endfacet
facet normal 0.0 0.0 1.0
  outer loop
    vertex 17.31025152854377 13.390139034252106 2.999999999999989
    vertex 25.895436962821098 2.537186647008406 2.999999999999989
    vertex 17.3954369628211 14.037186647008408 2.999999999999989
  endloop
endfacet
facet normal 0.0 0.0 1.0
  outer loop
    vertex 17.3954369628211 14.037186647008408 2.999999999999989
    vertex 25.895436962821098 2.537186647008406 2.999999999999989
    vertex 22.895436962821098 13.037186647008406 2.999999999999989
  endloop
endfacet
facet normal 0.0 0.0 1.0
  outer loop
    vertex 22.895436962821098 13.037186647008406 2.999999999999989
    vertex 25.895436962821098 2.537186647008406 2.999999999999989
    vertex 25.895436962821098 13.037186647008406 2.999999999999989
  endloop
endfacet
facet normal 0.0 0.0 1.0
  outer loop
    vertex 6.895436962821099 23.537186647008404 2.999999999999989
    vertex 13.127670009854729 15.804953599974775 2.999999999999989
    vertex 22.895436962821098 23.537186647008408 2.999999999999989
  endloop
endfacet
facet normal 0.0 0.0 1.0
  outer loop
    vertex 13.127670009854729 15.804953599974775 2.999999999999989
    vertex 6.895436962821099 23.537186647008404 2.999999999999989
    vertex 12.73037345336 15.287186647008406 2.999999999999989
  endloop
endfacet
facet normal 0.0 0.0 1.0
  outer loop
    vertex 12.73037345336 15.287186647008406 2.999999999999989
    vertex 6.895436962821099 23.537186647008404 2.999999999999989
    vertex 12.480622397098427 14.68423425976471 2.999999999999989
  endloop
endfacet
facet normal 0.0 0.0 1.0
  outer loop
    vertex 12.480622397098427 14.68423425976471 2.999999999999989
    vertex 6.895436962821099 23.537186647008404 2.999999999999989
    vertex 12.395436962821098 14.037186647008408 2.999999999999989
  endloop
endfacet
facet normal 0.0 0.0 1.0
  outer loop
    vertex 22.895436962821098 23.537186647008408 2.999999999999989
    vertex 13.127670009854729 15.804953599974775 2.999999999999989
    vertex 13.645436962821098 16.202250156469507 2.999999999999989
  endloop
endfacet
facet normal 0.0 0.0 1.0
  outer loop
    vertex 22.895436962821098 23.537186647008408 2.999999999999989
    vertex 13.645436962821098 16.202250156469507 2.999999999999989
    vertex 14.248389350064794 16.45200121273108 2.999999999999989
  endloop
endfacet
facet normal 0.0 0.0 1.0
  outer loop
    vertex 22.895436962821098 23.537186647008408 2.999999999999989
    vertex 14.248389350064794 16.45200121273108 2.999999999999989
    vertex 14.8954369628211 16.537186647008408 2.999999999999989
  endloop
endfacet
facet normal 0.0 0.0 1.0
  outer loop
    vertex 22.895436962821098 23.537186647008408 2.999999999999989
    vertex 14.8954369628211 16.537186647008408 2.999999999999989
    vertex 15.542484575577399 16.45200121273108 2.999999999999989
  endloop
endfacet
facet normal 0.0 0.0 1.0
  outer loop
    vertex 22.895436962821098 23.537186647008408 2.999999999999989
    vertex 15.542484575577399 16.45200121273108 2.999999999999989
    vertex 16.145436962821098 16.202250156469507 2.999999999999989
  endloop
endfacet
facet normal 0.0 0.0 1.0
  outer loop
    vertex 22.895436962821098 23.537186647008408 2.999999999999989
    vertex 16.145436962821098 16.202250156469507 2.999999999999989
    vertex 16.66320391578747 15.804953599974779 2.999999999999989
  endloop
endfacet
facet normal 0.0 0.0 1.0
  outer loop
    vertex 22.895436962821098 23.537186647008408 2.999999999999989
    vertex 16.66320391578747 15.804953599974779 2.999999999999989
    vertex 17.060500472282197 15.287186647008408 2.999999999999989
  endloop
endfacet
facet normal 0.0 0.0 1.0
  outer loop
    vertex 22.895436962821098 23.537186647008408 2.999999999999989
    vertex 17.060500472282197 15.287186647008408 2.999999999999989
    vertex 17.31025152854377 14.68423425976471 2.999999999999989
  endloop
endfacet
facet normal 0.0 0.0 1.0
  outer loop
    vertex 22.895436962821098 23.537186647008408 2.999999999999989
    vertex 17.31025152854377 14.68423425976471 2.999999999999989
    vertex 17.3954369628211 14.037186647008408 2.999999999999989
  endloop
endfacet
facet normal 0.0 0.0 1.0
  outer loop
    vertex 22.895436962821098 23.537186647008408 2.999999999999989
    vertex 17.3954369628211 14.037186647008408 2.999999999999989
    vertex 22.895436962821098 13.037186647008406 2.999999999999989
  endloop
endfacet
facet normal 0.0 0.0 1.0
  outer loop
    vertex 22.895436962821098 23.537186647008408 2.999999999999989
    vertex 22.895436962821098 13.037186647008406 2.999999999999989
    vertex 22.895436962821098 20.33993671906624 2.999999999999989
  endloop
endfacet
facet normal -1.0 0.0 0.0
  outer loop
    vertex 3.895436962821099 23.537186647008404 2.999999999999989
    vertex 3.895436962821099 13.037186647008404 2.999999999999989
    vertex 3.895436962821099 23.537186647008404 13.49999999999999
  endloop
endfacet
facet normal 1.0 0.0 0.0
  outer loop
    vertex 6.895436962821099 23.537186647008404 13.49999999999999
    vertex 6.895436962821099 13.037186647008404 2.999999999999989
    vertex 6.895436962821099 23.537186647008404 2.999999999999989
  endloop
endfacet
facet normal 0.0 -0.7071067811865476 0.7071067811865476
  outer loop
    vertex 6.895436962821099 23.537186647008404 13.49999999999999
    vertex 3.895436962821099 13.037186647008404 2.999999999999989
    vertex 6.895436962821099 13.037186647008404 2.999999999999989
  endloop
endfacet
facet normal 0.0 -0.7071067811865476 0.7071067811865476
  outer loop
    vertex 3.895436962821099 13.037186647008404 2.999999999999989
    vertex 6.895436962821099 23.537186647008404 13.49999999999999
    vertex 3.895436962821099 23.537186647008404 13.49999999999999
  endloop
endfacet
facet normal 0.0 -1.0 0.0
  outer loop
    vertex 6.895436962821099 23.537186647008404 13.49999999999999
    vertex 3.895436962821099 23.537186647008404 2.999999999999989
    vertex 6.895436962821099 23.537186647008404 2.999999999999989
  endloop
endfacet
facet normal 0.0 -1.0 0.0
  outer loop
    vertex 3.895436962821099 23.537186647008404 2.999999999999989
    vertex 6.895436962821099 23.537186647008404 13.49999999999999
    vertex 3.895436962821099 23.537186647008404 13.49999999999999
  endloop
endfacet
facet normal 0.0 0.0 1.0
  outer loop
    vertex 6.895436962821099 13.037186647008404 2.999999999999989
    vertex 3.895436962821099 23.537186647008404 2.999999999999989
    vertex 3.895436962821099 13.037186647008404 2.999999999999989
  endloop
endfacet
facet normal 0.0 0.0 1.0
  outer loop
    vertex 3.895436962821099 23.537186647008404 2.999999999999989
    vertex 6.895436962821099 13.037186647008404 2.999999999999989
    vertex 6.895436962821099 23.537186647008404 2.999999999999989
  endloop
endfacet
endsolid Держатель
