solid Vacuum 3
facet normal -1.0 0.0 0.0
  outer loop
    vertex 87.23957907845633 124.69306783931643 24.999999999999996
    vertex 87.23957907845633 39.69306783931642 0.0
    vertex 87.23957907845633 39.69306783931642 24.999999999999996
  endloop
endfacet
facet normal -1.0 0.0 0.0
  outer loop
    vertex 87.23957907845633 39.69306783931642 0.0
    vertex 87.23957907845633 124.69306783931643 24.999999999999996
    vertex 87.23957907845633 129.69306783931643 0.0
  endloop
endfacet
facet normal 0.0 0.9805806756909201 0.1961161351381846
  outer loop
    vertex 87.23957907845633 124.69306783931643 24.999999999999996
    vertex 97.23957907845634 129.69306783931643 0.0
    vertex 87.23957907845633 129.69306783931643 0.0
  endloop
endfacet
facet normal 0.0 0.9805806756909201 0.1961161351381846
  outer loop
    vertex 97.23957907845634 129.69306783931643 0.0
    vertex 87.23957907845633 124.69306783931643 24.999999999999996
    vertex 97.23957907845634 124.69306783931643 24.999999999999996
  endloop
endfacet
facet normal 0.0 0.0 -1.0
  outer loop
    vertex 97.23957907845634 129.69306783931643 0.0
    vertex 87.23957907845633 39.69306783931642 0.0
    vertex 87.23957907845633 129.69306783931643 0.0
  endloop
endfacet
facet normal 0.0 0.0 -1.0
  outer loop
    vertex 87.23957907845633 39.69306783931642 0.0
    vertex 97.23957907845634 129.69306783931643 0.0
    vertex 87.23957907845633 35.69306783931642 0.0
  endloop
endfacet
facet normal 0.0 0.0 -1.0
  outer loop
    vertex 87.23957907845633 35.69306783931642 0.0
    vertex 97.23957907845634 129.69306783931643 0.0
    vertex 97.23957907845634 35.69306783931642 0.0
  endloop
endfacet
facet normal 0.0 0.0 -1.0
  outer loop
    vertex 97.23957907845634 35.69306783931642 0.0
    vertex 97.23957907845634 129.69306783931643 0.0
    vertex 97.23957907845634 39.69306783931642 0.0
  endloop
endfacet
facet normal 0.0 0.0 1.0
  outer loop
    vertex 97.23957907845634 35.69306783931642 24.999999999999996
    vertex 87.23957907845633 39.69306783931642 24.999999999999996
    vertex 87.23957907845633 35.69306783931642 24.999999999999996
  endloop
endfacet
facet normal 0.0 0.0 1.0
  outer loop
    vertex 87.23957907845633 39.69306783931642 24.999999999999996
    vertex 97.23957907845634 35.69306783931642 24.999999999999996
    vertex 87.23957907845633 124.69306783931643 24.999999999999996
  endloop
endfacet
facet normal 0.0 0.0 1.0
  outer loop
    vertex 87.23957907845633 124.69306783931643 24.999999999999996
    vertex 97.23957907845634 35.69306783931642 24.999999999999996
    vertex 97.23957907845634 124.69306783931643 24.999999999999996
  endloop
endfacet
facet normal 0.0 0.0 1.0
  outer loop
    vertex 97.23957907845634 124.69306783931643 24.999999999999996
    vertex 97.23957907845634 35.69306783931642 24.999999999999996
    vertex 97.23957907845634 39.69306783931642 24.999999999999996
  endloop
endfacet
facet normal 0.0 1.0 0.0
  outer loop
    vertex 67.23957907845634 39.69306783931642 0.0
    vertex 75.67784145957027 39.69306783931642 10.54782797639242
    vertex 87.23957907845633 39.69306783931642 0.0
  endloop
endfacet
facet normal 0.0 1.0 0.0
  outer loop
    vertex 75.67784145957027 39.69306783931642 10.54782797639242
    vertex 67.23957907845634 39.69306783931642 0.0
    vertex 75.22579707946113 39.69306783931642 11.018554064259217
  endloop
endfacet
facet normal 0.0 1.0 0.0
  outer loop
    vertex 75.22579707946113 39.69306783931642 11.018554064259217
    vertex 67.23957907845634 39.69306783931642 0.0
    vertex 67.23957907845634 39.69306783931642 24.999999999999996
  endloop
endfacet
facet normal 0.0 1.0 0.0
  outer loop
    vertex 87.23957907845633 39.69306783931642 0.0
    vertex 75.67784145957027 39.69306783931642 10.54782797639242
    vertex 76.23631567751308 39.69306783931642 10.21013918581767
  endloop
endfacet
facet normal 0.0 1.0 0.0
  outer loop
    vertex 87.23957907845633 39.69306783931642 0.0
    vertex 76.23631567751308 39.69306783931642 10.21013918581767
    vertex 76.86316063825899 39.69306783931642 10.028500625555532
  endloop
endfacet
facet normal 0.0 1.0 0.0
  outer loop
    vertex 87.23957907845633 39.69306783931642 0.0
    vertex 76.86316063825899 39.69306783931642 10.028500625555532
    vertex 77.51565789364345 39.69306783931642 10.015290663315952
  endloop
endfacet
facet normal 0.0 1.0 0.0
  outer loop
    vertex 75.22579707946113 39.69306783931642 11.018554064259217
    vertex 67.23957907845634 39.69306783931642 24.999999999999996
    vertex 74.9109886146514 39.69306783931642 11.590238244441586
  endloop
endfacet
facet normal 0.0 1.0 0.0
  outer loop
    vertex 74.9109886146514 39.69306783931642 11.590238244441586
    vertex 67.23957907845634 39.69306783931642 24.999999999999996
    vertex 74.75486974177228 39.69306783931642 12.223921184812873
  endloop
endfacet
facet normal 0.0 1.0 0.0
  outer loop
    vertex 74.75486974177228 39.69306783931642 12.223921184812873
    vertex 67.23957907845634 39.69306783931642 24.999999999999996
    vertex 74.76807970401187 39.69306783931642 12.87641844019735
  endloop
endfacet
facet normal 0.0 1.0 0.0
  outer loop
    vertex 74.76807970401187 39.69306783931642 12.87641844019735
    vertex 67.23957907845634 39.69306783931642 24.999999999999996
    vertex 74.949718264274 39.69306783931642 13.50326340094326
  endloop
endfacet
facet normal 0.0 1.0 0.0
  outer loop
    vertex 74.949718264274 39.69306783931642 13.50326340094326
    vertex 67.23957907845634 39.69306783931642 24.999999999999996
    vertex 75.28740705484874 39.69306783931642 14.06173761888605
  endloop
endfacet
facet normal 0.0 1.0 0.0
  outer loop
    vertex 75.28740705484874 39.69306783931642 14.06173761888605
    vertex 67.23957907845634 39.69306783931642 24.999999999999996
    vertex 75.68485185651127 39.69306783931642 14.443409027431336
  endloop
endfacet
facet normal 0.0 1.0 0.0
  outer loop
    vertex 75.68485185651127 39.69306783931642 14.443409027431336
    vertex 67.23957907845634 39.69306783931642 24.999999999999996
    vertex 75.75813314271555 39.69306783931642 14.513781998995201
  endloop
endfacet
facet normal 0.0 1.0 0.0
  outer loop
    vertex 75.75813314271555 39.69306783931642 14.513781998995201
    vertex 67.23957907845634 39.69306783931642 24.999999999999996
    vertex 76.32981732289792 39.69306783931642 14.82859046380493
  endloop
endfacet
facet normal 0.0 1.0 0.0
  outer loop
    vertex 76.32981732289792 39.69306783931642 14.82859046380493
    vertex 67.23957907845634 39.69306783931642 24.999999999999996
    vertex 76.96350026326921 39.69306783931642 14.984709336684045
  endloop
endfacet
facet normal 0.0 1.0 0.0
  outer loop
    vertex 87.23957907845633 39.69306783931642 0.0
    vertex 79.52943989263866 39.69306783931642 11.496736599056735
    vertex 87.23957907845633 39.69306783931642 24.999999999999996
  endloop
endfacet
facet normal 0.0 1.0 0.0
  outer loop
    vertex 79.52943989263866 39.69306783931642 11.496736599056735
    vertex 87.23957907845633 39.69306783931642 0.0
    vertex 79.19175110206392 39.69306783931642 10.938262381113944
  endloop
endfacet
facet normal 0.0 1.0 0.0
  outer loop
    vertex 79.19175110206392 39.69306783931642 10.938262381113944
    vertex 87.23957907845633 39.69306783931642 0.0
    vertex 78.72102501419711 39.69306783931642 10.486218001004795
  endloop
endfacet
facet normal 0.0 1.0 0.0
  outer loop
    vertex 78.72102501419711 39.69306783931642 10.486218001004795
    vertex 87.23957907845633 39.69306783931642 0.0
    vertex 78.14934083401474 39.69306783931642 10.171409536195066
  endloop
endfacet
facet normal 0.0 1.0 0.0
  outer loop
    vertex 78.14934083401474 39.69306783931642 10.171409536195066
    vertex 87.23957907845633 39.69306783931642 0.0
    vertex 77.51565789364345 39.69306783931642 10.015290663315952
  endloop
endfacet
facet normal 0.0 1.0 0.0
  outer loop
    vertex 79.19175110206392 39.69306783931642 10.938262381113944
    vertex 78.72102501419711 39.69306783931642 10.486218001004795
    vertex 78.7943063004014 39.69306783931642 10.556590972568662
  endloop
endfacet
facet normal 0.0 1.0 0.0
  outer loop
    vertex 87.23957907845633 39.69306783931642 24.999999999999996
    vertex 79.52943989263866 39.69306783931642 11.496736599056735
    vertex 79.7110784529008 39.69306783931642 12.123581559802647
  endloop
endfacet
facet normal 0.0 1.0 0.0
  outer loop
    vertex 87.23957907845633 39.69306783931642 24.999999999999996
    vertex 79.7110784529008 39.69306783931642 12.123581559802647
    vertex 79.72428841514038 39.69306783931642 12.776078815187121
  endloop
endfacet
facet normal 0.0 1.0 0.0
  outer loop
    vertex 87.23957907845633 39.69306783931642 24.999999999999996
    vertex 79.72428841514038 39.69306783931642 12.776078815187121
    vertex 79.56816954226126 39.69306783931642 13.40976175555841
  endloop
endfacet
facet normal 0.0 1.0 0.0
  outer loop
    vertex 87.23957907845633 39.69306783931642 24.999999999999996
    vertex 79.56816954226126 39.69306783931642 13.40976175555841
    vertex 79.25336107745154 39.69306783931642 13.98144593574078
  endloop
endfacet
facet normal 0.0 1.0 0.0
  outer loop
    vertex 87.23957907845633 39.69306783931642 24.999999999999996
    vertex 79.25336107745154 39.69306783931642 13.98144593574078
    vertex 78.80131669734239 39.69306783931642 14.452172023607577
  endloop
endfacet
facet normal 0.0 1.0 0.0
  outer loop
    vertex 87.23957907845633 39.69306783931642 24.999999999999996
    vertex 78.80131669734239 39.69306783931642 14.452172023607577
    vertex 78.24284247939958 39.69306783931642 14.789860814182328
  endloop
endfacet
facet normal 0.0 1.0 0.0
  outer loop
    vertex 87.23957907845633 39.69306783931642 24.999999999999996
    vertex 78.24284247939958 39.69306783931642 14.789860814182328
    vertex 77.61599751865369 39.69306783931642 14.971499374444464
  endloop
endfacet
facet normal 0.0 1.0 0.0
  outer loop
    vertex 87.23957907845633 39.69306783931642 24.999999999999996
    vertex 77.61599751865369 39.69306783931642 14.971499374444464
    vertex 76.96350026326921 39.69306783931642 14.984709336684045
  endloop
endfacet
facet normal 0.0 1.0 0.0
  outer loop
    vertex 87.23957907845633 39.69306783931642 24.999999999999996
    vertex 76.96350026326921 39.69306783931642 14.984709336684045
    vertex 67.23957907845634 39.69306783931642 24.999999999999996
  endloop
endfacet
facet normal 0.0 1.0 0.0
  outer loop
    vertex 97.23957907845634 39.69306783931642 0.0
    vertex 106.86316063825899 39.69306783931642 10.028500625555532
    vertex 107.51565789364346 39.69306783931642 10.015290663315952
  endloop
endfacet
facet normal 0.0 1.0 0.0
  outer loop
    vertex 106.86316063825899 39.69306783931642 10.028500625555532
    vertex 97.23957907845634 39.69306783931642 0.0
    vertex 106.23631567751309 39.69306783931642 10.210139185817672
  endloop
endfacet
facet normal 0.0 1.0 0.0
  outer loop
    vertex 106.23631567751309 39.69306783931642 10.210139185817672
    vertex 97.23957907845634 39.69306783931642 0.0
    vertex 105.67784145957029 39.69306783931642 10.54782797639242
  endloop
endfacet
facet normal 0.0 1.0 0.0
  outer loop
    vertex 105.67784145957029 39.69306783931642 10.54782797639242
    vertex 97.23957907845634 39.69306783931642 0.0
    vertex 105.22579707946113 39.69306783931642 11.018554064259217
  endloop
endfacet
facet normal 0.0 1.0 0.0
  outer loop
    vertex 105.22579707946113 39.69306783931642 11.018554064259217
    vertex 97.23957907845634 39.69306783931642 0.0
    vertex 97.23957907845634 39.69306783931642 24.999999999999996
  endloop
endfacet
facet normal 0.0 1.0 0.0
  outer loop
    vertex 105.22579707946113 39.69306783931642 11.018554064259217
    vertex 97.23957907845634 39.69306783931642 24.999999999999996
    vertex 104.91098861465143 39.69306783931642 11.590238244441586
  endloop
endfacet
facet normal 0.0 1.0 0.0
  outer loop
    vertex 104.91098861465143 39.69306783931642 11.590238244441586
    vertex 97.23957907845634 39.69306783931642 24.999999999999996
    vertex 104.7548697417723 39.69306783931642 12.223921184812873
  endloop
endfacet
facet normal 0.0 1.0 0.0
  outer loop
    vertex 104.7548697417723 39.69306783931642 12.223921184812873
    vertex 97.23957907845634 39.69306783931642 24.999999999999996
    vertex 104.76807970401188 39.69306783931642 12.87641844019735
  endloop
endfacet
facet normal 0.0 1.0 0.0
  outer loop
    vertex 104.76807970401188 39.69306783931642 12.87641844019735
    vertex 97.23957907845634 39.69306783931642 24.999999999999996
    vertex 104.94971826427401 39.69306783931642 13.50326340094326
  endloop
endfacet
facet normal 0.0 1.0 0.0
  outer loop
    vertex 104.94971826427401 39.69306783931642 13.50326340094326
    vertex 97.23957907845634 39.69306783931642 24.999999999999996
    vertex 105.28740705484876 39.69306783931642 14.06173761888605
  endloop
endfacet
facet normal 0.0 1.0 0.0
  outer loop
    vertex 105.28740705484876 39.69306783931642 14.06173761888605
    vertex 97.23957907845634 39.69306783931642 24.999999999999996
    vertex 105.68485185651127 39.69306783931642 14.443409027431338
  endloop
endfacet
facet normal 0.0 1.0 0.0
  outer loop
    vertex 105.68485185651127 39.69306783931642 14.443409027431338
    vertex 97.23957907845634 39.69306783931642 24.999999999999996
    vertex 105.75813314271555 39.69306783931642 14.513781998995197
  endloop
endfacet
facet normal 0.0 1.0 0.0
  outer loop
    vertex 105.75813314271555 39.69306783931642 14.513781998995197
    vertex 97.23957907845634 39.69306783931642 24.999999999999996
    vertex 106.32981732289794 39.69306783931642 14.828590463804927
  endloop
endfacet
facet normal 0.0 1.0 0.0
  outer loop
    vertex 106.32981732289794 39.69306783931642 14.828590463804927
    vertex 97.23957907845634 39.69306783931642 24.999999999999996
    vertex 106.96350026326922 39.69306783931642 14.984709336684041
  endloop
endfacet
facet normal 0.0 1.0 0.0
  outer loop
    vertex 117.23957907845634 39.69306783931642 -2.8199664825478975e-15
    vertex 109.52943989263868 39.69306783931642 11.496736599056732
    vertex 117.23957907845634 39.69306783931642 24.999999999999996
  endloop
endfacet
facet normal 0.0 1.0 0.0
  outer loop
    vertex 109.52943989263868 39.69306783931642 11.496736599056732
    vertex 117.23957907845634 39.69306783931642 -2.8199664825478975e-15
    vertex 109.19175110206393 39.69306783931642 10.938262381113944
  endloop
endfacet
facet normal 0.0 1.0 0.0
  outer loop
    vertex 109.19175110206393 39.69306783931642 10.938262381113944
    vertex 117.23957907845634 39.69306783931642 -2.8199664825478975e-15
    vertex 108.79430630040142 39.69306783931642 10.556590972568655
  endloop
endfacet
facet normal 0.0 1.0 0.0
  outer loop
    vertex 108.79430630040142 39.69306783931642 10.556590972568655
    vertex 117.23957907845634 39.69306783931642 -2.8199664825478975e-15
    vertex 108.72102501419714 39.69306783931642 10.486218001004795
  endloop
endfacet
facet normal 0.0 1.0 0.0
  outer loop
    vertex 108.72102501419714 39.69306783931642 10.486218001004795
    vertex 117.23957907845634 39.69306783931642 -2.8199664825478975e-15
    vertex 97.23957907845634 39.69306783931642 0.0
  endloop
endfacet
facet normal 0.0 1.0 0.0
  outer loop
    vertex 108.72102501419714 39.69306783931642 10.486218001004795
    vertex 97.23957907845634 39.69306783931642 0.0
    vertex 108.14934083401475 39.69306783931642 10.171409536195066
  endloop
endfacet
facet normal 0.0 1.0 0.0
  outer loop
    vertex 108.14934083401475 39.69306783931642 10.171409536195066
    vertex 97.23957907845634 39.69306783931642 0.0
    vertex 107.51565789364346 39.69306783931642 10.015290663315952
  endloop
endfacet
facet normal 0.0 1.0 0.0
  outer loop
    vertex 117.23957907845634 39.69306783931642 24.999999999999996
    vertex 109.52943989263868 39.69306783931642 11.496736599056732
    vertex 109.71107845290081 39.69306783931642 12.123581559802645
  endloop
endfacet
facet normal 0.0 1.0 0.0
  outer loop
    vertex 117.23957907845634 39.69306783931642 24.999999999999996
    vertex 109.71107845290081 39.69306783931642 12.123581559802645
    vertex 109.72428841514039 39.69306783931642 12.776078815187121
  endloop
endfacet
facet normal 0.0 1.0 0.0
  outer loop
    vertex 117.23957907845634 39.69306783931642 24.999999999999996
    vertex 109.72428841514039 39.69306783931642 12.776078815187121
    vertex 109.56816954226129 39.69306783931642 13.409761755558408
  endloop
endfacet
facet normal 0.0 1.0 0.0
  outer loop
    vertex 117.23957907845634 39.69306783931642 24.999999999999996
    vertex 109.56816954226129 39.69306783931642 13.409761755558408
    vertex 109.25336107745154 39.69306783931642 13.981445935740776
  endloop
endfacet
facet normal 0.0 1.0 0.0
  outer loop
    vertex 117.23957907845634 39.69306783931642 24.999999999999996
    vertex 109.25336107745154 39.69306783931642 13.981445935740776
    vertex 108.8013166973424 39.69306783931642 14.452172023607575
  endloop
endfacet
facet normal 0.0 1.0 0.0
  outer loop
    vertex 117.23957907845634 39.69306783931642 24.999999999999996
    vertex 108.8013166973424 39.69306783931642 14.452172023607575
    vertex 108.2428424793996 39.69306783931642 14.789860814182322
  endloop
endfacet
facet normal 0.0 1.0 0.0
  outer loop
    vertex 117.23957907845634 39.69306783931642 24.999999999999996
    vertex 108.2428424793996 39.69306783931642 14.789860814182322
    vertex 107.6159975186537 39.69306783931642 14.97149937444446
  endloop
endfacet
facet normal 0.0 1.0 0.0
  outer loop
    vertex 117.23957907845634 39.69306783931642 24.999999999999996
    vertex 107.6159975186537 39.69306783931642 14.97149937444446
    vertex 106.96350026326922 39.69306783931642 14.984709336684041
  endloop
endfacet
facet normal 0.0 1.0 0.0
  outer loop
    vertex 117.23957907845634 39.69306783931642 24.999999999999996
    vertex 106.96350026326922 39.69306783931642 14.984709336684041
    vertex 97.23957907845634 39.69306783931642 24.999999999999996
  endloop
endfacet
facet normal 1.0 0.0 0.0
  outer loop
    vertex 97.23957907845634 129.69306783931643 0.0
    vertex 97.23957907845634 39.69306783931642 24.999999999999996
    vertex 97.23957907845634 39.69306783931642 0.0
  endloop
endfacet
facet normal 1.0 0.0 0.0
  outer loop
    vertex 97.23957907845634 39.69306783931642 24.999999999999996
    vertex 97.23957907845634 129.69306783931643 0.0
    vertex 97.23957907845634 124.69306783931643 24.999999999999996
  endloop
endfacet
facet normal 0.0 -1.0 0.0
  outer loop
    vertex 117.23957907845634 35.69306783931642 24.999999999999996
    vertex 108.2428424793996 35.69306783931642 14.789860814182322
    vertex 108.8013166973424 35.69306783931642 14.452172023607575
  endloop
endfacet
facet normal 0.0 -1.0 0.0
  outer loop
    vertex 108.2428424793996 35.69306783931642 14.789860814182322
    vertex 117.23957907845634 35.69306783931642 24.999999999999996
    vertex 107.6159975186537 35.69306783931642 14.97149937444446
  endloop
endfacet
facet normal 0.0 -1.0 0.0
  outer loop
    vertex 107.6159975186537 35.69306783931642 14.97149937444446
    vertex 117.23957907845634 35.69306783931642 24.999999999999996
    vertex 106.96350026326922 35.69306783931642 14.984709336684041
  endloop
endfacet
facet normal 0.0 -1.0 0.0
  outer loop
    vertex 105.75813314271555 35.69306783931642 14.513781998995197
    vertex 97.23957907845634 35.69306783931642 24.999999999999996
    vertex 105.68485185651127 35.69306783931642 14.443409027431338
  endloop
endfacet
facet normal 0.0 -1.0 0.0
  outer loop
    vertex 97.23957907845634 35.69306783931642 24.999999999999996
    vertex 105.75813314271555 35.69306783931642 14.513781998995197
    vertex 106.32981732289794 35.69306783931642 14.828590463804927
  endloop
endfacet
facet normal 0.0 -1.0 0.0
  outer loop
    vertex 97.23957907845634 35.69306783931642 24.999999999999996
    vertex 106.32981732289794 35.69306783931642 14.828590463804927
    vertex 106.96350026326922 35.69306783931642 14.984709336684041
  endloop
endfacet
facet normal 0.0 -1.0 0.0
  outer loop
    vertex 97.23957907845634 35.69306783931642 24.999999999999996
    vertex 106.96350026326922 35.69306783931642 14.984709336684041
    vertex 117.23957907845634 35.69306783931642 24.999999999999996
  endloop
endfacet
facet normal -1.409983241273948e-16 0.0 -1.0
  outer loop
    vertex 117.23957907845634 39.69306783931642 -2.8199664825478975e-15
    vertex 97.23957907845634 35.69306783931642 0.0
    vertex 97.23957907845634 39.69306783931642 0.0
  endloop
endfacet
facet normal -1.409983241273948e-16 0.0 -1.0
  outer loop
    vertex 97.23957907845634 35.69306783931642 0.0
    vertex 117.23957907845634 39.69306783931642 -2.8199664825478975e-15
    vertex 117.23957907845634 35.69306783931642 -2.8199664825478975e-15
  endloop
endfacet
facet normal 1.0 0.0 0.0
  outer loop
    vertex 117.23957907845634 39.69306783931642 -2.8199664825478975e-15
    vertex 117.23957907845634 35.69306783931642 24.999999999999996
    vertex 117.23957907845634 35.69306783931642 -2.8199664825478975e-15
  endloop
endfacet
facet normal 1.0 0.0 0.0
  outer loop
    vertex 117.23957907845634 35.69306783931642 24.999999999999996
    vertex 117.23957907845634 39.69306783931642 -2.8199664825478975e-15
    vertex 117.23957907845634 39.69306783931642 24.999999999999996
  endloop
endfacet
facet normal 0.0 0.0 1.0
  outer loop
    vertex 117.23957907845634 35.69306783931642 24.999999999999996
    vertex 97.23957907845634 39.69306783931642 24.999999999999996
    vertex 97.23957907845634 35.69306783931642 24.999999999999996
  endloop
endfacet
facet normal 0.0 0.0 1.0
  outer loop
    vertex 97.23957907845634 39.69306783931642 24.999999999999996
    vertex 117.23957907845634 35.69306783931642 24.999999999999996
    vertex 117.23957907845634 39.69306783931642 24.999999999999996
  endloop
endfacet
facet normal -1.0 0.0 0.0
  outer loop
    vertex 97.23957907845634 39.69306783931642 24.999999999999996
    vertex 97.23957907845634 35.69306783931642 0.0
    vertex 97.23957907845634 35.69306783931642 24.999999999999996
  endloop
endfacet
facet normal -1.0 0.0 0.0
  outer loop
    vertex 97.23957907845634 35.69306783931642 0.0
    vertex 97.23957907845634 39.69306783931642 24.999999999999996
    vertex 97.23957907845634 39.69306783931642 0.0
  endloop
endfacet
facet normal 0.0 -1.0 0.0
  outer loop
    vertex 97.23957907845634 35.69306783931642 24.999999999999996
    vertex 87.23957907845633 35.69306783931642 0.0
    vertex 97.23957907845634 35.69306783931642 0.0
  endloop
endfacet
facet normal 0.0 -1.0 0.0
  outer loop
    vertex 87.23957907845633 35.69306783931642 0.0
    vertex 97.23957907845634 35.69306783931642 24.999999999999996
    vertex 87.23957907845633 35.69306783931642 24.999999999999996
  endloop
endfacet
facet normal 0.0 -1.0 0.0
  outer loop
    vertex 87.23957907845633 35.69306783931642 24.999999999999996
    vertex 78.24284247939958 35.69306783931642 14.789860814182328
    vertex 78.80131669734239 35.69306783931642 14.452172023607577
  endloop
endfacet
facet normal 0.0 -1.0 0.0
  outer loop
    vertex 78.24284247939958 35.69306783931642 14.789860814182328
    vertex 87.23957907845633 35.69306783931642 24.999999999999996
    vertex 77.61599751865369 35.69306783931642 14.971499374444464
  endloop
endfacet
facet normal 0.0 -1.0 0.0
  outer loop
    vertex 77.61599751865369 35.69306783931642 14.971499374444464
    vertex 87.23957907845633 35.69306783931642 24.999999999999996
    vertex 76.96350026326921 35.69306783931642 14.984709336684045
  endloop
endfacet
facet normal 0.0 -1.0 0.0
  outer loop
    vertex 75.75813314271555 35.69306783931642 14.513781998995201
    vertex 67.23957907845634 35.69306783931642 24.999999999999996
    vertex 75.68485185651127 35.69306783931642 14.443409027431336
  endloop
endfacet
facet normal 0.0 -1.0 0.0
  outer loop
    vertex 67.23957907845634 35.69306783931642 24.999999999999996
    vertex 75.75813314271555 35.69306783931642 14.513781998995201
    vertex 76.32981732289792 35.69306783931642 14.82859046380493
  endloop
endfacet
facet normal 0.0 -1.0 0.0
  outer loop
    vertex 67.23957907845634 35.69306783931642 24.999999999999996
    vertex 76.32981732289792 35.69306783931642 14.82859046380493
    vertex 76.96350026326921 35.69306783931642 14.984709336684045
  endloop
endfacet
facet normal 0.0 -1.0 0.0
  outer loop
    vertex 67.23957907845634 35.69306783931642 24.999999999999996
    vertex 76.96350026326921 35.69306783931642 14.984709336684045
    vertex 87.23957907845633 35.69306783931642 24.999999999999996
  endloop
endfacet
facet normal 0.0 0.0 -1.0
  outer loop
    vertex 87.23957907845633 39.69306783931642 0.0
    vertex 67.23957907845634 35.69306783931642 0.0
    vertex 67.23957907845634 39.69306783931642 0.0
  endloop
endfacet
facet normal 0.0 0.0 -1.0
  outer loop
    vertex 67.23957907845634 35.69306783931642 0.0
    vertex 87.23957907845633 39.69306783931642 0.0
    vertex 87.23957907845633 35.69306783931642 0.0
  endloop
endfacet
facet normal 0.0 0.0 1.0
  outer loop
    vertex 87.23957907845633 35.69306783931642 24.999999999999996
    vertex 67.23957907845634 39.69306783931642 24.999999999999996
    vertex 67.23957907845634 35.69306783931642 24.999999999999996
  endloop
endfacet
facet normal 0.0 0.0 1.0
  outer loop
    vertex 67.23957907845634 39.69306783931642 24.999999999999996
    vertex 87.23957907845633 35.69306783931642 24.999999999999996
    vertex 87.23957907845633 39.69306783931642 24.999999999999996
  endloop
endfacet
facet normal -1.0 -0.0 -0.0
  outer loop
    vertex 67.23957907845634 39.69306783931642 24.999999999999996
    vertex 67.23957907845634 35.69306783931642 0.0
    vertex 67.23957907845634 35.69306783931642 24.999999999999996
  endloop
endfacet
facet normal -1.0 -0.0 -0.0
  outer loop
    vertex 67.23957907845634 35.69306783931642 0.0
    vertex 67.23957907845634 39.69306783931642 24.999999999999996
    vertex 67.23957907845634 39.69306783931642 0.0
  endloop
endfacet
facet normal -1.0 0.0 0.0
  outer loop
    vertex 87.23957907845633 39.69306783931642 24.999999999999996
    vertex 87.23957907845633 35.69306783931642 0.0
    vertex 87.23957907845633 35.69306783931642 24.999999999999996
  endloop
endfacet
facet normal -1.0 0.0 0.0
  outer loop
    vertex 87.23957907845633 35.69306783931642 0.0
    vertex 87.23957907845633 39.69306783931642 24.999999999999996
    vertex 87.23957907845633 39.69306783931642 0.0
  endloop
endfacet
facet normal 0.0 -1.0 0.0
  outer loop
    vertex 117.23957907845634 35.69306783931642 -2.8199664825478975e-15
    vertex 109.19175110206393 35.69306783931642 10.938262381113944
    vertex 108.79430630040142 35.69306783931642 10.556590972568655
  endloop
endfacet
facet normal 0.0 -1.0 0.0
  outer loop
    vertex 109.19175110206393 35.69306783931642 10.938262381113944
    vertex 117.23957907845634 35.69306783931642 -2.8199664825478975e-15
    vertex 109.52943989263868 35.69306783931642 11.496736599056732
  endloop
endfacet
facet normal 0.0 -1.0 0.0
  outer loop
    vertex 109.52943989263868 35.69306783931642 11.496736599056732
    vertex 117.23957907845634 35.69306783931642 -2.8199664825478975e-15
    vertex 117.23957907845634 35.69306783931642 24.999999999999996
  endloop
endfacet
facet normal 0.0 -1.0 0.0
  outer loop
    vertex 109.52943989263868 35.69306783931642 11.496736599056732
    vertex 117.23957907845634 35.69306783931642 24.999999999999996
    vertex 109.71107845290081 35.69306783931642 12.123581559802645
  endloop
endfacet
facet normal 0.0 -1.0 0.0
  outer loop
    vertex 109.71107845290081 35.69306783931642 12.123581559802645
    vertex 117.23957907845634 35.69306783931642 24.999999999999996
    vertex 109.72428841514039 35.69306783931642 12.776078815187121
  endloop
endfacet
facet normal 0.0 -1.0 0.0
  outer loop
    vertex 109.72428841514039 35.69306783931642 12.776078815187121
    vertex 117.23957907845634 35.69306783931642 24.999999999999996
    vertex 109.56816954226129 35.69306783931642 13.409761755558408
  endloop
endfacet
facet normal 0.0 -1.0 0.0
  outer loop
    vertex 109.56816954226129 35.69306783931642 13.409761755558408
    vertex 117.23957907845634 35.69306783931642 24.999999999999996
    vertex 109.25336107745154 35.69306783931642 13.981445935740776
  endloop
endfacet
facet normal 0.0 -1.0 0.0
  outer loop
    vertex 109.25336107745154 35.69306783931642 13.981445935740776
    vertex 117.23957907845634 35.69306783931642 24.999999999999996
    vertex 108.8013166973424 35.69306783931642 14.452172023607575
  endloop
endfacet
facet normal 0.0 -1.0 0.0
  outer loop
    vertex 67.23957907845634 35.69306783931642 0.0
    vertex 75.22579707946113 35.69306783931642 11.018554064259217
    vertex 67.23957907845634 35.69306783931642 24.999999999999996
  endloop
endfacet
facet normal 0.0 -1.0 0.0
  outer loop
    vertex 75.22579707946113 35.69306783931642 11.018554064259217
    vertex 67.23957907845634 35.69306783931642 0.0
    vertex 75.67784145957027 35.69306783931642 10.54782797639242
  endloop
endfacet
facet normal 0.0 -1.0 0.0
  outer loop
    vertex 67.23957907845634 35.69306783931642 24.999999999999996
    vertex 75.22579707946113 35.69306783931642 11.018554064259217
    vertex 74.9109886146514 35.69306783931642 11.590238244441586
  endloop
endfacet
facet normal 0.0 -1.0 0.0
  outer loop
    vertex 67.23957907845634 35.69306783931642 24.999999999999996
    vertex 74.9109886146514 35.69306783931642 11.590238244441586
    vertex 74.75486974177228 35.69306783931642 12.223921184812873
  endloop
endfacet
facet normal 0.0 -1.0 0.0
  outer loop
    vertex 67.23957907845634 35.69306783931642 24.999999999999996
    vertex 74.75486974177228 35.69306783931642 12.223921184812873
    vertex 74.76807970401187 35.69306783931642 12.87641844019735
  endloop
endfacet
facet normal 0.0 -1.0 0.0
  outer loop
    vertex 67.23957907845634 35.69306783931642 24.999999999999996
    vertex 74.76807970401187 35.69306783931642 12.87641844019735
    vertex 74.949718264274 35.69306783931642 13.50326340094326
  endloop
endfacet
facet normal 0.0 -1.0 0.0
  outer loop
    vertex 67.23957907845634 35.69306783931642 24.999999999999996
    vertex 74.949718264274 35.69306783931642 13.50326340094326
    vertex 75.28740705484874 35.69306783931642 14.06173761888605
  endloop
endfacet
facet normal 0.0 -1.0 0.0
  outer loop
    vertex 67.23957907845634 35.69306783931642 24.999999999999996
    vertex 75.28740705484874 35.69306783931642 14.06173761888605
    vertex 75.68485185651127 35.69306783931642 14.443409027431336
  endloop
endfacet
facet normal 0.0 -1.0 0.0
  outer loop
    vertex 87.23957907845633 35.69306783931642 0.0
    vertex 78.72102501419711 35.69306783931642 10.486218001004795
    vertex 67.23957907845634 35.69306783931642 0.0
  endloop
endfacet
facet normal 0.0 -1.0 0.0
  outer loop
    vertex 78.72102501419711 35.69306783931642 10.486218001004795
    vertex 87.23957907845633 35.69306783931642 0.0
    vertex 78.7943063004014 35.69306783931642 10.556590972568662
  endloop
endfacet
facet normal 0.0 -1.0 0.0
  outer loop
    vertex 67.23957907845634 35.69306783931642 0.0
    vertex 78.72102501419711 35.69306783931642 10.486218001004795
    vertex 78.14934083401474 35.69306783931642 10.171409536195066
  endloop
endfacet
facet normal 0.0 -1.0 0.0
  outer loop
    vertex 67.23957907845634 35.69306783931642 0.0
    vertex 78.14934083401474 35.69306783931642 10.171409536195066
    vertex 77.51565789364345 35.69306783931642 10.015290663315952
  endloop
endfacet
facet normal 0.0 -1.0 0.0
  outer loop
    vertex 67.23957907845634 35.69306783931642 0.0
    vertex 76.23631567751308 35.69306783931642 10.21013918581767
    vertex 75.67784145957027 35.69306783931642 10.54782797639242
  endloop
endfacet
facet normal 0.0 -1.0 0.0
  outer loop
    vertex 76.23631567751308 35.69306783931642 10.21013918581767
    vertex 67.23957907845634 35.69306783931642 0.0
    vertex 76.86316063825899 35.69306783931642 10.028500625555532
  endloop
endfacet
facet normal 0.0 -1.0 0.0
  outer loop
    vertex 76.86316063825899 35.69306783931642 10.028500625555532
    vertex 67.23957907845634 35.69306783931642 0.0
    vertex 77.51565789364345 35.69306783931642 10.015290663315952
  endloop
endfacet
facet normal 0.0 -1.0 0.0
  outer loop
    vertex 87.23957907845633 35.69306783931642 0.0
    vertex 79.19175110206392 35.69306783931642 10.938262381113944
    vertex 78.7943063004014 35.69306783931642 10.556590972568662
  endloop
endfacet
facet normal 0.0 -1.0 0.0
  outer loop
    vertex 79.19175110206392 35.69306783931642 10.938262381113944
    vertex 87.23957907845633 35.69306783931642 0.0
    vertex 79.52943989263866 35.69306783931642 11.496736599056735
  endloop
endfacet
facet normal 0.0 -1.0 0.0
  outer loop
    vertex 79.52943989263866 35.69306783931642 11.496736599056735
    vertex 87.23957907845633 35.69306783931642 0.0
    vertex 87.23957907845633 35.69306783931642 24.999999999999996
  endloop
endfacet
facet normal 0.0 -1.0 0.0
  outer loop
    vertex 79.52943989263866 35.69306783931642 11.496736599056735
    vertex 87.23957907845633 35.69306783931642 24.999999999999996
    vertex 79.7110784529008 35.69306783931642 12.123581559802647
  endloop
endfacet
facet normal 0.0 -1.0 0.0
  outer loop
    vertex 79.7110784529008 35.69306783931642 12.123581559802647
    vertex 87.23957907845633 35.69306783931642 24.999999999999996
    vertex 79.72428841514038 35.69306783931642 12.776078815187121
  endloop
endfacet
facet normal 0.0 -1.0 0.0
  outer loop
    vertex 79.72428841514038 35.69306783931642 12.776078815187121
    vertex 87.23957907845633 35.69306783931642 24.999999999999996
    vertex 79.56816954226126 35.69306783931642 13.40976175555841
  endloop
endfacet
facet normal 0.0 -1.0 0.0
  outer loop
    vertex 79.56816954226126 35.69306783931642 13.40976175555841
    vertex 87.23957907845633 35.69306783931642 24.999999999999996
    vertex 79.25336107745154 35.69306783931642 13.98144593574078
  endloop
endfacet
facet normal 0.0 -1.0 0.0
  outer loop
    vertex 79.25336107745154 35.69306783931642 13.98144593574078
    vertex 87.23957907845633 35.69306783931642 24.999999999999996
    vertex 78.80131669734239 35.69306783931642 14.452172023607577
  endloop
endfacet
facet normal 0.0 -1.0 0.0
  outer loop
    vertex 97.23957907845634 35.69306783931642 0.0
    vertex 105.22579707946113 35.69306783931642 11.018554064259217
    vertex 97.23957907845634 35.69306783931642 24.999999999999996
  endloop
endfacet
facet normal 0.0 -1.0 0.0
  outer loop
    vertex 105.22579707946113 35.69306783931642 11.018554064259217
    vertex 97.23957907845634 35.69306783931642 0.0
    vertex 105.67784145957029 35.69306783931642 10.54782797639242
  endloop
endfacet
facet normal 0.0 -1.0 0.0
  outer loop
    vertex 97.23957907845634 35.69306783931642 24.999999999999996
    vertex 105.22579707946113 35.69306783931642 11.018554064259217
    vertex 104.91098861465143 35.69306783931642 11.590238244441586
  endloop
endfacet
facet normal 0.0 -1.0 0.0
  outer loop
    vertex 97.23957907845634 35.69306783931642 24.999999999999996
    vertex 104.91098861465143 35.69306783931642 11.590238244441586
    vertex 104.7548697417723 35.69306783931642 12.223921184812873
  endloop
endfacet
facet normal 0.0 -1.0 0.0
  outer loop
    vertex 97.23957907845634 35.69306783931642 24.999999999999996
    vertex 104.7548697417723 35.69306783931642 12.223921184812873
    vertex 104.76807970401188 35.69306783931642 12.87641844019735
  endloop
endfacet
facet normal 0.0 -1.0 0.0
  outer loop
    vertex 97.23957907845634 35.69306783931642 24.999999999999996
    vertex 104.76807970401188 35.69306783931642 12.87641844019735
    vertex 104.94971826427401 35.69306783931642 13.50326340094326
  endloop
endfacet
facet normal 0.0 -1.0 0.0
  outer loop
    vertex 97.23957907845634 35.69306783931642 24.999999999999996
    vertex 104.94971826427401 35.69306783931642 13.50326340094326
    vertex 105.28740705484876 35.69306783931642 14.06173761888605
  endloop
endfacet
facet normal 0.0 -1.0 0.0
  outer loop
    vertex 97.23957907845634 35.69306783931642 24.999999999999996
    vertex 105.28740705484876 35.69306783931642 14.06173761888605
    vertex 105.68485185651127 35.69306783931642 14.443409027431338
  endloop
endfacet
facet normal 0.0 -1.0 0.0
  outer loop
    vertex 117.23957907845634 35.69306783931642 -2.8199664825478975e-15
    vertex 108.72102501419714 35.69306783931642 10.486218001004795
    vertex 97.23957907845634 35.69306783931642 0.0
  endloop
endfacet
facet normal 0.0 -1.0 0.0
  outer loop
    vertex 108.72102501419714 35.69306783931642 10.486218001004795
    vertex 117.23957907845634 35.69306783931642 -2.8199664825478975e-15
    vertex 108.79430630040142 35.69306783931642 10.556590972568655
  endloop
endfacet
facet normal 0.0 -1.0 0.0
  outer loop
    vertex 97.23957907845634 35.69306783931642 0.0
    vertex 108.72102501419714 35.69306783931642 10.486218001004795
    vertex 108.14934083401475 35.69306783931642 10.171409536195066
  endloop
endfacet
facet normal 0.0 -1.0 0.0
  outer loop
    vertex 97.23957907845634 35.69306783931642 0.0
    vertex 108.14934083401475 35.69306783931642 10.171409536195066
    vertex 107.51565789364346 35.69306783931642 10.015290663315952
  endloop
endfacet
facet normal 0.0 -1.0 0.0
  outer loop
    vertex 97.23957907845634 35.69306783931642 0.0
    vertex 106.23631567751309 35.69306783931642 10.210139185817672
    vertex 105.67784145957029 35.69306783931642 10.54782797639242
  endloop
endfacet
facet normal 0.0 -1.0 0.0
  outer loop
    vertex 106.23631567751309 35.69306783931642 10.210139185817672
    vertex 97.23957907845634 35.69306783931642 0.0
    vertex 106.86316063825899 35.69306783931642 10.028500625555532
  endloop
endfacet
facet normal 0.0 -1.0 0.0
  outer loop
    vertex 106.86316063825899 35.69306783931642 10.028500625555532
    vertex 97.23957907845634 35.69306783931642 0.0
    vertex 107.51565789364346 35.69306783931642 10.015290663315952
  endloop
endfacet
facet normal 0.721274527143501 -4.3428898479676655e-31 0.6926493026733795
  outer loop
    vertex 75.67784145957027 39.69306783931642 10.54782797639242
    vertex 75.22579707946113 35.69306783931642 11.018554064259217
    vertex 75.67784145957027 35.69306783931642 10.54782797639242
  endloop
endfacet
facet normal 0.721274527143501 -4.3428898479676655e-31 0.6926493026733795
  outer loop
    vertex 75.22579707946113 35.69306783931642 11.018554064259217
    vertex 75.67784145957027 39.69306783931642 10.54782797639242
    vertex 75.22579707946113 39.69306783931642 11.018554064259217
  endloop
endfacet
facet normal 0.5174268625034933 -5.201001622116198e-31 0.8557274343853838
  outer loop
    vertex 76.23631567751308 35.69306783931642 10.21013918581767
    vertex 75.67784145957027 39.69306783931642 10.54782797639242
    vertex 75.67784145957027 35.69306783931642 10.54782797639242
  endloop
endfacet
facet normal 0.5174268625034933 -5.201001622116198e-31 0.8557274343853838
  outer loop
    vertex 75.67784145957027 39.69306783931642 10.54782797639242
    vertex 76.23631567751308 35.69306783931642 10.21013918581767
    vertex 76.23631567751308 39.69306783931642 10.21013918581767
  endloop
endfacet
facet normal 0.2783174122721934 -5.704673730779084e-31 0.9604891556004732
  outer loop
    vertex 76.86316063825899 35.69306783931642 10.028500625555532
    vertex 76.23631567751308 39.69306783931642 10.21013918581767
    vertex 76.23631567751308 35.69306783931642 10.21013918581767
  endloop
endfacet
facet normal 0.2783174122721934 -5.704673730779084e-31 0.9604891556004732
  outer loop
    vertex 76.23631567751308 39.69306783931642 10.21013918581767
    vertex 76.86316063825899 35.69306783931642 10.028500625555532
    vertex 76.86316063825899 39.69306783931642 10.028500625555532
  endloop
endfacet
facet normal 0.020241090335814785 -5.819581752108463e-31 0.9997951281447702
  outer loop
    vertex 77.51565789364345 35.69306783931642 10.015290663315952
    vertex 76.86316063825899 39.69306783931642 10.028500625555532
    vertex 76.86316063825899 35.69306783931642 10.028500625555532
  endloop
endfacet
facet normal 0.020241090335814785 -5.819581752108463e-31 0.9997951281447702
  outer loop
    vertex 76.86316063825899 39.69306783931642 10.028500625555532
    vertex 77.51565789364345 35.69306783931642 10.015290663315952
    vertex 77.51565789364345 39.69306783931642 10.015290663315952
  endloop
endfacet
facet normal -0.23921462845697053 -5.537894894345218e-31 0.970966714945571
  outer loop
    vertex 78.14934083401474 35.69306783931642 10.171409536195066
    vertex 77.51565789364345 39.69306783931642 10.015290663315952
    vertex 77.51565789364345 35.69306783931642 10.015290663315952
  endloop
endfacet
facet normal -0.23921462845697053 -5.537894894345218e-31 0.970966714945571
  outer loop
    vertex 77.51565789364345 39.69306783931642 10.015290663315952
    vertex 78.14934083401474 35.69306783931642 10.171409536195066
    vertex 78.14934083401474 39.69306783931642 10.171409536195066
  endloop
endfacet
facet normal -0.48236826564127594 -4.87880965133637e-31 0.8759685247211955
  outer loop
    vertex 78.72102501419711 35.69306783931642 10.486218001004795
    vertex 78.14934083401474 39.69306783931642 10.171409536195066
    vertex 78.14934083401474 35.69306783931642 10.171409536195066
  endloop
endfacet
facet normal -0.48236826564127594 -4.87880965133637e-31 0.8759685247211955
  outer loop
    vertex 78.14934083401474 39.69306783931642 10.171409536195066
    vertex 78.72102501419711 35.69306783931642 10.486218001004795
    vertex 78.72102501419711 39.69306783931642 10.486218001004795
  endloop
endfacet
facet normal -0.692649302673395 -3.8872415932030074e-31 0.7212745271434863
  outer loop
    vertex 78.7943063004014 35.69306783931642 10.556590972568662
    vertex 78.72102501419711 39.69306783931642 10.486218001004795
    vertex 78.72102501419711 35.69306783931642 10.486218001004795
  endloop
endfacet
facet normal -0.692649302673395 -3.8872415932030074e-31 0.7212745271434863
  outer loop
    vertex 78.72102501419711 39.69306783931642 10.486218001004795
    vertex 78.7943063004014 35.69306783931642 10.556590972568662
    vertex 78.7943063004014 39.69306783931642 10.556590972568662
  endloop
endfacet
facet normal -0.6926493026733651 -3.887241593203188e-31 0.7212745271435149
  outer loop
    vertex 79.19175110206392 35.69306783931642 10.938262381113944
    vertex 78.7943063004014 39.69306783931642 10.556590972568662
    vertex 78.7943063004014 35.69306783931642 10.556590972568662
  endloop
endfacet
facet normal -0.6926493026733651 -3.887241593203188e-31 0.7212745271435149
  outer loop
    vertex 78.7943063004014 39.69306783931642 10.556590972568662
    vertex 79.19175110206392 35.69306783931642 10.938262381113944
    vertex 79.19175110206392 39.69306783931642 10.938262381113944
  endloop
endfacet
facet normal -0.8557274343853848 -2.630764444463511e-31 0.5174268625034913
  outer loop
    vertex 79.52943989263866 39.69306783931642 11.496736599056735
    vertex 79.19175110206392 35.69306783931642 10.938262381113944
    vertex 79.52943989263866 35.69306783931642 11.496736599056735
  endloop
endfacet
facet normal -0.8557274343853848 -2.630764444463511e-31 0.5174268625034913
  outer loop
    vertex 79.19175110206392 35.69306783931642 10.938262381113944
    vertex 79.52943989263866 39.69306783931642 11.496736599056735
    vertex 79.19175110206392 39.69306783931642 10.938262381113944
  endloop
endfacet
facet normal -0.960489155600475 -1.1950050463775275e-31 0.2783174122721875
  outer loop
    vertex 79.7110784529008 39.69306783931642 12.123581559802647
    vertex 79.52943989263866 35.69306783931642 11.496736599056735
    vertex 79.7110784529008 35.69306783931642 12.123581559802647
  endloop
endfacet
facet normal -0.960489155600475 -1.1950050463775275e-31 0.2783174122721875
  outer loop
    vertex 79.52943989263866 35.69306783931642 11.496736599056735
    vertex 79.7110784529008 39.69306783931642 12.123581559802647
    vertex 79.52943989263866 39.69306783931642 11.496736599056735
  endloop
endfacet
facet normal -0.9997951281447701 3.2219197077976203e-32 0.02024109033582325
  outer loop
    vertex 79.72428841514038 39.69306783931642 12.776078815187121
    vertex 79.7110784529008 35.69306783931642 12.123581559802647
    vertex 79.72428841514038 35.69306783931642 12.776078815187121
  endloop
endfacet
facet normal -0.9997951281447701 3.2219197077976203e-32 0.02024109033582325
  outer loop
    vertex 79.7110784529008 35.69306783931642 12.123581559802647
    vertex 79.72428841514038 39.69306783931642 12.776078815187121
    vertex 79.7110784529008 39.69306783931642 12.123581559802647
  endloop
endfacet
facet normal -0.9709667149455702 1.8174321375759905e-31 -0.23921462845697358
  outer loop
    vertex 79.56816954226126 39.69306783931642 13.40976175555841
    vertex 79.72428841514038 35.69306783931642 12.776078815187121
    vertex 79.56816954226126 35.69306783931642 13.40976175555841
  endloop
endfacet
facet normal -0.9709667149455702 1.8174321375759905e-31 -0.23921462845697358
  outer loop
    vertex 79.72428841514038 35.69306783931642 12.776078815187121
    vertex 79.56816954226126 39.69306783931642 13.40976175555841
    vertex 79.72428841514038 39.69306783931642 12.776078815187121
  endloop
endfacet
facet normal -0.8759685247211991 3.1888173076448972e-31 -0.48236826564126933
  outer loop
    vertex 79.25336107745154 39.69306783931642 13.98144593574078
    vertex 79.56816954226126 35.69306783931642 13.40976175555841
    vertex 79.25336107745154 35.69306783931642 13.98144593574078
  endloop
endfacet
facet normal -0.8759685247211991 3.1888173076448972e-31 -0.48236826564126933
  outer loop
    vertex 79.56816954226126 35.69306783931642 13.40976175555841
    vertex 79.25336107745154 39.69306783931642 13.98144593574078
    vertex 79.56816954226126 39.69306783931642 13.40976175555841
  endloop
endfacet
facet normal -0.721274527143501 4.3428898479676655e-31 -0.6926493026733795
  outer loop
    vertex 78.80131669734239 39.69306783931642 14.452172023607577
    vertex 79.25336107745154 35.69306783931642 13.98144593574078
    vertex 78.80131669734239 35.69306783931642 14.452172023607577
  endloop
endfacet
facet normal -0.721274527143501 4.3428898479676655e-31 -0.6926493026733795
  outer loop
    vertex 79.25336107745154 35.69306783931642 13.98144593574078
    vertex 78.80131669734239 39.69306783931642 14.452172023607577
    vertex 79.25336107745154 39.69306783931642 13.98144593574078
  endloop
endfacet
facet normal -0.5174268625034949 5.201001622116193e-31 -0.8557274343853829
  outer loop
    vertex 78.80131669734239 39.69306783931642 14.452172023607577
    vertex 78.24284247939958 35.69306783931642 14.789860814182328
    vertex 78.24284247939958 39.69306783931642 14.789860814182328
  endloop
endfacet
facet normal -0.5174268625034949 5.201001622116193e-31 -0.8557274343853829
  outer loop
    vertex 78.24284247939958 35.69306783931642 14.789860814182328
    vertex 78.80131669734239 39.69306783931642 14.452172023607577
    vertex 78.80131669734239 35.69306783931642 14.452172023607577
  endloop
endfacet
facet normal -0.2783174122721914 5.7046737307790855e-31 -0.9604891556004738
  outer loop
    vertex 78.24284247939958 39.69306783931642 14.789860814182328
    vertex 77.61599751865369 35.69306783931642 14.971499374444464
    vertex 77.61599751865369 39.69306783931642 14.971499374444464
  endloop
endfacet
facet normal -0.2783174122721914 5.7046737307790855e-31 -0.9604891556004738
  outer loop
    vertex 77.61599751865369 35.69306783931642 14.971499374444464
    vertex 78.24284247939958 39.69306783931642 14.789860814182328
    vertex 78.24284247939958 35.69306783931642 14.789860814182328
  endloop
endfacet
facet normal -0.020241090335814785 5.819581752108463e-31 -0.9997951281447702
  outer loop
    vertex 77.61599751865369 39.69306783931642 14.971499374444464
    vertex 76.96350026326921 35.69306783931642 14.984709336684045
    vertex 76.96350026326921 39.69306783931642 14.984709336684045
  endloop
endfacet
facet normal -0.020241090335814785 5.819581752108463e-31 -0.9997951281447702
  outer loop
    vertex 76.96350026326921 35.69306783931642 14.984709336684045
    vertex 77.61599751865369 39.69306783931642 14.971499374444464
    vertex 77.61599751865369 35.69306783931642 14.971499374444464
  endloop
endfacet
facet normal 0.23921462845697053 5.537894894345218e-31 -0.970966714945571
  outer loop
    vertex 76.96350026326921 39.69306783931642 14.984709336684045
    vertex 76.32981732289792 35.69306783931642 14.82859046380493
    vertex 76.32981732289792 39.69306783931642 14.82859046380493
  endloop
endfacet
facet normal 0.23921462845697053 5.537894894345218e-31 -0.970966714945571
  outer loop
    vertex 76.32981732289792 35.69306783931642 14.82859046380493
    vertex 76.96350026326921 39.69306783931642 14.984709336684045
    vertex 76.96350026326921 35.69306783931642 14.984709336684045
  endloop
endfacet
facet normal 0.48236826564127594 4.87880965133637e-31 -0.8759685247211955
  outer loop
    vertex 76.32981732289792 39.69306783931642 14.82859046380493
    vertex 75.75813314271555 35.69306783931642 14.513781998995201
    vertex 75.75813314271555 39.69306783931642 14.513781998995201
  endloop
endfacet
facet normal 0.48236826564127594 4.87880965133637e-31 -0.8759685247211955
  outer loop
    vertex 75.75813314271555 35.69306783931642 14.513781998995201
    vertex 76.32981732289792 39.69306783931642 14.82859046380493
    vertex 76.32981732289792 35.69306783931642 14.82859046380493
  endloop
endfacet
facet normal 0.6926493026733878 3.887241593203052e-31 -0.7212745271434933
  outer loop
    vertex 75.75813314271555 39.69306783931642 14.513781998995201
    vertex 75.68485185651127 35.69306783931642 14.443409027431336
    vertex 75.68485185651127 39.69306783931642 14.443409027431336
  endloop
endfacet
facet normal 0.6926493026733878 3.887241593203052e-31 -0.7212745271434933
  outer loop
    vertex 75.68485185651127 35.69306783931642 14.443409027431336
    vertex 75.75813314271555 39.69306783931642 14.513781998995201
    vertex 75.75813314271555 35.69306783931642 14.513781998995201
  endloop
endfacet
facet normal 0.6926493026733678 3.8872415932031717e-31 -0.7212745271435124
  outer loop
    vertex 75.68485185651127 39.69306783931642 14.443409027431336
    vertex 75.28740705484874 35.69306783931642 14.06173761888605
    vertex 75.28740705484874 39.69306783931642 14.06173761888605
  endloop
endfacet
facet normal 0.6926493026733678 3.8872415932031717e-31 -0.7212745271435124
  outer loop
    vertex 75.28740705484874 35.69306783931642 14.06173761888605
    vertex 75.68485185651127 39.69306783931642 14.443409027431336
    vertex 75.68485185651127 35.69306783931642 14.443409027431336
  endloop
endfacet
facet normal 0.8557274343853853 2.6307644444635054e-31 -0.5174268625034905
  outer loop
    vertex 74.949718264274 39.69306783931642 13.50326340094326
    vertex 75.28740705484874 35.69306783931642 14.06173761888605
    vertex 74.949718264274 35.69306783931642 13.50326340094326
  endloop
endfacet
facet normal 0.8557274343853853 2.6307644444635054e-31 -0.5174268625034905
  outer loop
    vertex 75.28740705484874 35.69306783931642 14.06173761888605
    vertex 74.949718264274 39.69306783931642 13.50326340094326
    vertex 75.28740705484874 39.69306783931642 14.06173761888605
  endloop
endfacet
facet normal 0.9604891556004747 1.1950050463775345e-31 -0.27831741227218865
  outer loop
    vertex 74.76807970401187 39.69306783931642 12.87641844019735
    vertex 74.949718264274 35.69306783931642 13.50326340094326
    vertex 74.76807970401187 35.69306783931642 12.87641844019735
  endloop
endfacet
facet normal 0.9604891556004747 1.1950050463775345e-31 -0.27831741227218865
  outer loop
    vertex 74.949718264274 35.69306783931642 13.50326340094326
    vertex 74.76807970401187 39.69306783931642 12.87641844019735
    vertex 74.949718264274 39.69306783931642 13.50326340094326
  endloop
endfacet
facet normal 0.99979512814477 -3.221919707797626e-32 -0.02024109033582316
  outer loop
    vertex 74.75486974177228 39.69306783931642 12.223921184812873
    vertex 74.76807970401187 35.69306783931642 12.87641844019735
    vertex 74.75486974177228 35.69306783931642 12.223921184812873
  endloop
endfacet
facet normal 0.99979512814477 -3.221919707797626e-32 -0.02024109033582316
  outer loop
    vertex 74.76807970401187 35.69306783931642 12.87641844019735
    vertex 74.75486974177228 39.69306783931642 12.223921184812873
    vertex 74.76807970401187 39.69306783931642 12.87641844019735
  endloop
endfacet
facet normal 0.97096671494557 -1.8174321375759962e-31 0.23921462845697458
  outer loop
    vertex 74.9109886146514 39.69306783931642 11.590238244441586
    vertex 74.75486974177228 35.69306783931642 12.223921184812873
    vertex 74.9109886146514 35.69306783931642 11.590238244441586
  endloop
endfacet
facet normal 0.97096671494557 -1.8174321375759962e-31 0.23921462845697458
  outer loop
    vertex 74.75486974177228 35.69306783931642 12.223921184812873
    vertex 74.9109886146514 39.69306783931642 11.590238244441586
    vertex 74.75486974177228 39.69306783931642 12.223921184812873
  endloop
endfacet
facet normal 0.8759685247211991 -3.1888173076448972e-31 0.48236826564126933
  outer loop
    vertex 75.22579707946113 39.69306783931642 11.018554064259217
    vertex 74.9109886146514 35.69306783931642 11.590238244441586
    vertex 75.22579707946113 35.69306783931642 11.018554064259217
  endloop
endfacet
facet normal 0.8759685247211991 -3.1888173076448972e-31 0.48236826564126933
  outer loop
    vertex 74.9109886146514 35.69306783931642 11.590238244441586
    vertex 75.22579707946113 39.69306783931642 11.018554064259217
    vertex 74.9109886146514 39.69306783931642 11.590238244441586
  endloop
endfacet
facet normal 0.6926493026733589 -1.2957471977344086e-31 -0.721274527143521
  outer loop
    vertex 105.75813314271555 39.69306783931642 14.513781998995197
    vertex 105.68485185651127 35.69306783931642 14.443409027431338
    vertex 105.68485185651127 39.69306783931642 14.443409027431338
  endloop
endfacet
facet normal 0.6926493026733589 -1.2957471977344086e-31 -0.721274527143521
  outer loop
    vertex 105.68485185651127 35.69306783931642 14.443409027431338
    vertex 105.75813314271555 39.69306783931642 14.513781998995197
    vertex 105.75813314271555 35.69306783931642 14.513781998995197
  endloop
endfacet
facet normal 0.6926493026733808 -1.2957471977343648e-31 -0.7212745271435
  outer loop
    vertex 105.68485185651127 39.69306783931642 14.443409027431338
    vertex 105.28740705484876 35.69306783931642 14.06173761888605
    vertex 105.28740705484876 39.69306783931642 14.06173761888605
  endloop
endfacet
facet normal 0.6926493026733808 -1.2957471977343648e-31 -0.7212745271435
  outer loop
    vertex 105.28740705484876 35.69306783931642 14.06173761888605
    vertex 105.68485185651127 39.69306783931642 14.443409027431338
    vertex 105.68485185651127 35.69306783931642 14.443409027431338
  endloop
endfacet
facet normal 0.8557274343853853 -8.769214814878345e-32 -0.5174268625034905
  outer loop
    vertex 104.94971826427401 39.69306783931642 13.50326340094326
    vertex 105.28740705484876 35.69306783931642 14.06173761888605
    vertex 104.94971826427401 35.69306783931642 13.50326340094326
  endloop
endfacet
facet normal 0.8557274343853853 -8.769214814878345e-32 -0.5174268625034905
  outer loop
    vertex 105.28740705484876 35.69306783931642 14.06173761888605
    vertex 104.94971826427401 39.69306783931642 13.50326340094326
    vertex 105.28740705484876 39.69306783931642 14.06173761888605
  endloop
endfacet
facet normal 0.9604891556004747 -3.983350154591769e-32 -0.27831741227218865
  outer loop
    vertex 104.76807970401188 39.69306783931642 12.87641844019735
    vertex 104.94971826427401 35.69306783931642 13.50326340094326
    vertex 104.76807970401188 35.69306783931642 12.87641844019735
  endloop
endfacet
facet normal 0.9604891556004747 -3.983350154591769e-32 -0.27831741227218865
  outer loop
    vertex 104.94971826427401 35.69306783931642 13.50326340094326
    vertex 104.76807970401188 39.69306783931642 12.87641844019735
    vertex 104.94971826427401 39.69306783931642 13.50326340094326
  endloop
endfacet
facet normal 0.99979512814477 1.0739732359325605e-32 -0.02024109033582316
  outer loop
    vertex 104.7548697417723 39.69306783931642 12.223921184812873
    vertex 104.76807970401188 35.69306783931642 12.87641844019735
    vertex 104.7548697417723 35.69306783931642 12.223921184812873
  endloop
endfacet
facet normal 0.99979512814477 1.0739732359325605e-32 -0.02024109033582316
  outer loop
    vertex 104.76807970401188 35.69306783931642 12.87641844019735
    vertex 104.7548697417723 39.69306783931642 12.223921184812873
    vertex 104.76807970401188 39.69306783931642 12.87641844019735
  endloop
endfacet
facet normal 0.9709667149455661 6.058107125253655e-32 0.23921462845699093
  outer loop
    vertex 104.91098861465143 39.69306783931642 11.590238244441586
    vertex 104.7548697417723 35.69306783931642 12.223921184812873
    vertex 104.91098861465143 35.69306783931642 11.590238244441586
  endloop
endfacet
facet normal 0.9709667149455661 6.058107125253655e-32 0.23921462845699093
  outer loop
    vertex 104.7548697417723 35.69306783931642 12.223921184812873
    vertex 104.91098861465143 39.69306783931642 11.590238244441586
    vertex 104.7548697417723 39.69306783931642 12.223921184812873
  endloop
endfacet
facet normal 0.8759685247212063 1.0629391025482767e-31 0.482368265641256
  outer loop
    vertex 105.22579707946113 39.69306783931642 11.018554064259217
    vertex 104.91098861465143 35.69306783931642 11.590238244441586
    vertex 105.22579707946113 35.69306783931642 11.018554064259217
  endloop
endfacet
facet normal 0.8759685247212063 1.0629391025482767e-31 0.482368265641256
  outer loop
    vertex 104.91098861465143 35.69306783931642 11.590238244441586
    vertex 105.22579707946113 39.69306783931642 11.018554064259217
    vertex 104.91098861465143 39.69306783931642 11.590238244441586
  endloop
endfacet
facet normal 0.721274527143501 1.4476299493225578e-31 0.6926493026733795
  outer loop
    vertex 105.67784145957029 39.69306783931642 10.54782797639242
    vertex 105.22579707946113 35.69306783931642 11.018554064259217
    vertex 105.67784145957029 35.69306783931642 10.54782797639242
  endloop
endfacet
facet normal 0.721274527143501 1.4476299493225578e-31 0.6926493026733795
  outer loop
    vertex 105.22579707946113 35.69306783931642 11.018554064259217
    vertex 105.67784145957029 39.69306783931642 10.54782797639242
    vertex 105.22579707946113 39.69306783931642 11.018554064259217
  endloop
endfacet
facet normal 0.5174268625034917 1.7336672073720703e-31 0.8557274343853847
  outer loop
    vertex 106.23631567751309 35.69306783931642 10.210139185817672
    vertex 105.67784145957029 39.69306783931642 10.54782797639242
    vertex 105.67784145957029 35.69306783931642 10.54782797639242
  endloop
endfacet
facet normal 0.5174268625034917 1.7336672073720703e-31 0.8557274343853847
  outer loop
    vertex 105.67784145957029 39.69306783931642 10.54782797639242
    vertex 106.23631567751309 35.69306783931642 10.210139185817672
    vertex 106.23631567751309 39.69306783931642 10.210139185817672
  endloop
endfacet
facet normal 0.2783174122722001 1.9015579102596945e-31 0.9604891556004714
  outer loop
    vertex 106.86316063825899 35.69306783931642 10.028500625555532
    vertex 106.23631567751309 39.69306783931642 10.210139185817672
    vertex 106.23631567751309 35.69306783931642 10.210139185817672
  endloop
endfacet
facet normal 0.2783174122722001 1.9015579102596945e-31 0.9604891556004714
  outer loop
    vertex 106.23631567751309 39.69306783931642 10.210139185817672
    vertex 106.86316063825899 35.69306783931642 10.028500625555532
    vertex 106.86316063825899 39.69306783931642 10.028500625555532
  endloop
endfacet
facet normal 0.02024109033581444 1.9398605840361566e-31 0.9997951281447703
  outer loop
    vertex 107.51565789364346 35.69306783931642 10.015290663315952
    vertex 106.86316063825899 39.69306783931642 10.028500625555532
    vertex 106.86316063825899 35.69306783931642 10.028500625555532
  endloop
endfacet
facet normal 0.02024109033581444 1.9398605840361566e-31 0.9997951281447703
  outer loop
    vertex 106.86316063825899 39.69306783931642 10.028500625555532
    vertex 107.51565789364346 35.69306783931642 10.015290663315952
    vertex 107.51565789364346 39.69306783931642 10.015290663315952
  endloop
endfacet
facet normal -0.23921462845697053 1.8459649647817406e-31 0.970966714945571
  outer loop
    vertex 108.14934083401475 35.69306783931642 10.171409536195066
    vertex 107.51565789364346 39.69306783931642 10.015290663315952
    vertex 107.51565789364346 35.69306783931642 10.015290663315952
  endloop
endfacet
facet normal -0.23921462845697053 1.8459649647817406e-31 0.970966714945571
  outer loop
    vertex 107.51565789364346 39.69306783931642 10.015290663315952
    vertex 108.14934083401475 35.69306783931642 10.171409536195066
    vertex 108.14934083401475 39.69306783931642 10.171409536195066
  endloop
endfacet
facet normal -0.482368265641267 1.6262698837788013e-31 0.8759685247212003
  outer loop
    vertex 108.72102501419714 35.69306783931642 10.486218001004795
    vertex 108.14934083401475 39.69306783931642 10.171409536195066
    vertex 108.14934083401475 35.69306783931642 10.171409536195066
  endloop
endfacet
facet normal -0.482368265641267 1.6262698837788013e-31 0.8759685247212003
  outer loop
    vertex 108.14934083401475 39.69306783931642 10.171409536195066
    vertex 108.72102501419714 35.69306783931642 10.486218001004795
    vertex 108.72102501419714 39.69306783931642 10.486218001004795
  endloop
endfacet
facet normal -0.6926493026733661 1.2957471977343941e-31 0.721274527143514
  outer loop
    vertex 108.79430630040142 35.69306783931642 10.556590972568655
    vertex 108.72102501419714 39.69306783931642 10.486218001004795
    vertex 108.72102501419714 35.69306783931642 10.486218001004795
  endloop
endfacet
facet normal -0.6926493026733661 1.2957471977343941e-31 0.721274527143514
  outer loop
    vertex 108.72102501419714 39.69306783931642 10.486218001004795
    vertex 108.79430630040142 35.69306783931642 10.556590972568655
    vertex 108.79430630040142 39.69306783931642 10.556590972568655
  endloop
endfacet
facet normal -0.6926493026733808 1.2957471977343648e-31 0.7212745271435
  outer loop
    vertex 109.19175110206393 35.69306783931642 10.938262381113944
    vertex 108.79430630040142 39.69306783931642 10.556590972568655
    vertex 108.79430630040142 35.69306783931642 10.556590972568655
  endloop
endfacet
facet normal -0.6926493026733808 1.2957471977343648e-31 0.7212745271435
  outer loop
    vertex 108.79430630040142 39.69306783931642 10.556590972568655
    vertex 109.19175110206393 35.69306783931642 10.938262381113944
    vertex 109.19175110206393 39.69306783931642 10.938262381113944
  endloop
endfacet
facet normal -0.8557274343853843 8.769214814878386e-32 0.5174268625034925
  outer loop
    vertex 109.52943989263868 39.69306783931642 11.496736599056732
    vertex 109.19175110206393 35.69306783931642 10.938262381113944
    vertex 109.52943989263868 35.69306783931642 11.496736599056732
  endloop
endfacet
facet normal -0.8557274343853843 8.769214814878386e-32 0.5174268625034925
  outer loop
    vertex 109.19175110206393 35.69306783931642 10.938262381113944
    vertex 109.52943989263868 39.69306783931642 11.496736599056732
    vertex 109.19175110206393 39.69306783931642 10.938262381113944
  endloop
endfacet
facet normal -0.960489155600475 3.983350154591746e-32 0.2783174122721875
  outer loop
    vertex 109.71107845290081 39.69306783931642 12.123581559802645
    vertex 109.52943989263868 35.69306783931642 11.496736599056732
    vertex 109.71107845290081 35.69306783931642 12.123581559802645
  endloop
endfacet
facet normal -0.960489155600475 3.983350154591746e-32 0.2783174122721875
  outer loop
    vertex 109.52943989263868 35.69306783931642 11.496736599056732
    vertex 109.71107845290081 39.69306783931642 12.123581559802645
    vertex 109.52943989263868 39.69306783931642 11.496736599056732
  endloop
endfacet
facet normal -0.99979512814477 -1.0739732359325605e-32 0.02024109033582316
  outer loop
    vertex 109.72428841514039 39.69306783931642 12.776078815187121
    vertex 109.71107845290081 35.69306783931642 12.123581559802645
    vertex 109.72428841514039 35.69306783931642 12.776078815187121
  endloop
endfacet
facet normal -0.99979512814477 -1.0739732359325605e-32 0.02024109033582316
  outer loop
    vertex 109.71107845290081 35.69306783931642 12.123581559802645
    vertex 109.72428841514039 39.69306783931642 12.776078815187121
    vertex 109.71107845290081 39.69306783931642 12.123581559802645
  endloop
endfacet
facet normal -0.970966714945574 -6.058107125253033e-32 -0.23921462845695832
  outer loop
    vertex 109.56816954226129 39.69306783931642 13.409761755558408
    vertex 109.72428841514039 35.69306783931642 12.776078815187121
    vertex 109.56816954226129 35.69306783931642 13.409761755558408
  endloop
endfacet
facet normal -0.970966714945574 -6.058107125253033e-32 -0.23921462845695832
  outer loop
    vertex 109.72428841514039 35.69306783931642 12.776078815187121
    vertex 109.56816954226129 39.69306783931642 13.409761755558408
    vertex 109.72428841514039 39.69306783931642 12.776078815187121
  endloop
endfacet
facet normal -0.8759685247211917 -1.0629391025483262e-31 -0.48236826564128255
  outer loop
    vertex 109.25336107745154 39.69306783931642 13.981445935740776
    vertex 109.56816954226129 35.69306783931642 13.409761755558408
    vertex 109.25336107745154 35.69306783931642 13.981445935740776
  endloop
endfacet
facet normal -0.8759685247211917 -1.0629391025483262e-31 -0.48236826564128255
  outer loop
    vertex 109.56816954226129 35.69306783931642 13.409761755558408
    vertex 109.25336107745154 39.69306783931642 13.981445935740776
    vertex 109.56816954226129 39.69306783931642 13.409761755558408
  endloop
endfacet
facet normal -0.721274527143501 -1.4476299493225578e-31 -0.6926493026733795
  outer loop
    vertex 108.8013166973424 39.69306783931642 14.452172023607575
    vertex 109.25336107745154 35.69306783931642 13.981445935740776
    vertex 108.8013166973424 35.69306783931642 14.452172023607575
  endloop
endfacet
facet normal -0.721274527143501 -1.4476299493225578e-31 -0.6926493026733795
  outer loop
    vertex 109.25336107745154 35.69306783931642 13.981445935740776
    vertex 108.8013166973424 39.69306783931642 14.452172023607575
    vertex 109.25336107745154 39.69306783931642 13.981445935740776
  endloop
endfacet
facet normal -0.5174268625034917 -1.7336672073720703e-31 -0.8557274343853847
  outer loop
    vertex 108.8013166973424 39.69306783931642 14.452172023607575
    vertex 108.2428424793996 35.69306783931642 14.789860814182322
    vertex 108.2428424793996 39.69306783931642 14.789860814182322
  endloop
endfacet
facet normal -0.5174268625034917 -1.7336672073720703e-31 -0.8557274343853847
  outer loop
    vertex 108.2428424793996 35.69306783931642 14.789860814182322
    vertex 108.8013166973424 39.69306783931642 14.452172023607575
    vertex 108.8013166973424 35.69306783931642 14.452172023607575
  endloop
endfacet
facet normal -0.2783174122722001 -1.9015579102596945e-31 -0.9604891556004714
  outer loop
    vertex 108.2428424793996 39.69306783931642 14.789860814182322
    vertex 107.6159975186537 35.69306783931642 14.97149937444446
    vertex 107.6159975186537 39.69306783931642 14.97149937444446
  endloop
endfacet
facet normal -0.2783174122722001 -1.9015579102596945e-31 -0.9604891556004714
  outer loop
    vertex 107.6159975186537 35.69306783931642 14.97149937444446
    vertex 108.2428424793996 39.69306783931642 14.789860814182322
    vertex 108.2428424793996 35.69306783931642 14.789860814182322
  endloop
endfacet
facet normal -0.02024109033581444 -1.9398605840361566e-31 -0.9997951281447703
  outer loop
    vertex 107.6159975186537 39.69306783931642 14.97149937444446
    vertex 106.96350026326922 35.69306783931642 14.984709336684041
    vertex 106.96350026326922 39.69306783931642 14.984709336684041
  endloop
endfacet
facet normal -0.02024109033581444 -1.9398605840361566e-31 -0.9997951281447703
  outer loop
    vertex 106.96350026326922 35.69306783931642 14.984709336684041
    vertex 107.6159975186537 39.69306783931642 14.97149937444446
    vertex 107.6159975186537 35.69306783931642 14.97149937444446
  endloop
endfacet
facet normal 0.23921462845697053 -1.8459649647817406e-31 -0.970966714945571
  outer loop
    vertex 106.96350026326922 39.69306783931642 14.984709336684041
    vertex 106.32981732289794 35.69306783931642 14.828590463804927
    vertex 106.32981732289794 39.69306783931642 14.828590463804927
  endloop
endfacet
facet normal 0.23921462845697053 -1.8459649647817406e-31 -0.970966714945571
  outer loop
    vertex 106.32981732289794 35.69306783931642 14.828590463804927
    vertex 106.96350026326922 39.69306783931642 14.984709336684041
    vertex 106.96350026326922 35.69306783931642 14.984709336684041
  endloop
endfacet
facet normal 0.4823682656412686 -1.6262698837787994e-31 -0.8759685247211995
  outer loop
    vertex 106.32981732289794 39.69306783931642 14.828590463804927
    vertex 105.75813314271555 35.69306783931642 14.513781998995197
    vertex 105.75813314271555 39.69306783931642 14.513781998995197
  endloop
endfacet
facet normal 0.4823682656412686 -1.6262698837787994e-31 -0.8759685247211995
  outer loop
    vertex 105.75813314271555 35.69306783931642 14.513781998995197
    vertex 106.32981732289794 39.69306783931642 14.828590463804927
    vertex 106.32981732289794 35.69306783931642 14.828590463804927
  endloop
endfacet
endsolid Vacuum 3
