solid Untitled-6541039d
facet normal -1.0 0.0 0.0
  outer loop
    vertex 87.23957907845633 124.69306783931643 24.999999999999996
    vertex 87.23957907845633 39.69306783931642 0.0
    vertex 87.23957907845633 39.69306783931642 24.999999999999996
  endloop
endfacet
facet normal -1.0 0.0 0.0
  outer loop
    vertex 87.23957907845633 39.69306783931642 0.0
    vertex 87.23957907845633 124.69306783931643 24.999999999999996
    vertex 87.23957907845633 129.69306783931643 0.0
  endloop
endfacet
facet normal 0.0 0.9805806756909201 0.1961161351381846
  outer loop
    vertex 87.23957907845633 124.69306783931643 24.999999999999996
    vertex 97.23957907845634 129.69306783931643 0.0
    vertex 87.23957907845633 129.69306783931643 0.0
  endloop
endfacet
facet normal 0.0 0.9805806756909201 0.1961161351381846
  outer loop
    vertex 97.23957907845634 129.69306783931643 0.0
    vertex 87.23957907845633 124.69306783931643 24.999999999999996
    vertex 97.23957907845634 124.69306783931643 24.999999999999996
  endloop
endfacet
facet normal 0.0 0.0 -1.0
  outer loop
    vertex 97.23957907845634 129.69306783931643 0.0
    vertex 87.23957907845633 39.69306783931642 0.0
    vertex 87.23957907845633 129.69306783931643 0.0
  endloop
endfacet
facet normal 0.0 0.0 -1.0
  outer loop
    vertex 87.23957907845633 39.69306783931642 0.0
    vertex 97.23957907845634 129.69306783931643 0.0
    vertex 87.23957907845633 35.69306783931642 0.0
  endloop
endfacet
facet normal 0.0 0.0 -1.0
  outer loop
    vertex 87.23957907845633 35.69306783931642 0.0
    vertex 97.23957907845634 129.69306783931643 0.0
    vertex 97.23957907845634 35.69306783931642 0.0
  endloop
endfacet
facet normal 0.0 0.0 -1.0
  outer loop
    vertex 97.23957907845634 35.69306783931642 0.0
    vertex 97.23957907845634 129.69306783931643 0.0
    vertex 97.23957907845634 39.69306783931642 0.0
  endloop
endfacet
facet normal 0.0 0.0 1.0
  outer loop
    vertex 97.23957907845634 35.69306783931642 24.999999999999996
    vertex 87.23957907845633 39.69306783931642 24.999999999999996
    vertex 87.23957907845633 35.69306783931642 24.999999999999996
  endloop
endfacet
facet normal 0.0 0.0 1.0
  outer loop
    vertex 87.23957907845633 39.69306783931642 24.999999999999996
    vertex 97.23957907845634 35.69306783931642 24.999999999999996
    vertex 87.23957907845633 124.69306783931643 24.999999999999996
  endloop
endfacet
facet normal 0.0 0.0 1.0
  outer loop
    vertex 87.23957907845633 124.69306783931643 24.999999999999996
    vertex 97.23957907845634 35.69306783931642 24.999999999999996
    vertex 97.23957907845634 124.69306783931643 24.999999999999996
  endloop
endfacet
facet normal 0.0 0.0 1.0
  outer loop
    vertex 97.23957907845634 124.69306783931643 24.999999999999996
    vertex 97.23957907845634 35.69306783931642 24.999999999999996
    vertex 97.23957907845634 39.69306783931642 24.999999999999996
  endloop
endfacet
facet normal 0.0 1.0 0.0
  outer loop
    vertex 67.23957907845634 39.69306783931642 24.999999999999996
    vertex 87.23957907845633 39.69306783931642 0.0
    vertex 67.23957907845634 39.69306783931642 0.0
  endloop
endfacet
facet normal 0.0 1.0 0.0
  outer loop
    vertex 87.23957907845633 39.69306783931642 0.0
    vertex 67.23957907845634 39.69306783931642 24.999999999999996
    vertex 87.23957907845633 39.69306783931642 24.999999999999996
  endloop
endfacet
facet normal 0.0 1.0 0.0
  outer loop
    vertex 97.23957907845634 39.69306783931642 0.0
    vertex 117.23957907845634 39.69306783931642 24.999999999999996
    vertex 117.23957907845634 39.69306783931642 -2.8199664825478975e-15
  endloop
endfacet
facet normal 0.0 1.0 0.0
  outer loop
    vertex 117.23957907845634 39.69306783931642 24.999999999999996
    vertex 97.23957907845634 39.69306783931642 0.0
    vertex 97.23957907845634 39.69306783931642 24.999999999999996
  endloop
endfacet
facet normal 1.0 0.0 0.0
  outer loop
    vertex 97.23957907845634 129.69306783931643 0.0
    vertex 97.23957907845634 39.69306783931642 24.999999999999996
    vertex 97.23957907845634 39.69306783931642 0.0
  endloop
endfacet
facet normal 1.0 0.0 0.0
  outer loop
    vertex 97.23957907845634 39.69306783931642 24.999999999999996
    vertex 97.23957907845634 129.69306783931643 0.0
    vertex 97.23957907845634 124.69306783931643 24.999999999999996
  endloop
endfacet
facet normal 0.0 -1.0 0.0
  outer loop
    vertex 117.23957907845634 35.69306783931642 24.999999999999996
    vertex 97.23957907845634 35.69306783931642 0.0
    vertex 117.23957907845634 35.69306783931642 -2.8199664825478975e-15
  endloop
endfacet
facet normal 0.0 -1.0 0.0
  outer loop
    vertex 97.23957907845634 35.69306783931642 0.0
    vertex 117.23957907845634 35.69306783931642 24.999999999999996
    vertex 97.23957907845634 35.69306783931642 24.999999999999996
  endloop
endfacet
facet normal -1.409983241273948e-16 0.0 -1.0
  outer loop
    vertex 117.23957907845634 39.69306783931642 -2.8199664825478975e-15
    vertex 97.23957907845634 35.69306783931642 0.0
    vertex 97.23957907845634 39.69306783931642 0.0
  endloop
endfacet
facet normal -1.409983241273948e-16 0.0 -1.0
  outer loop
    vertex 97.23957907845634 35.69306783931642 0.0
    vertex 117.23957907845634 39.69306783931642 -2.8199664825478975e-15
    vertex 117.23957907845634 35.69306783931642 -2.8199664825478975e-15
  endloop
endfacet
facet normal 1.0 0.0 0.0
  outer loop
    vertex 117.23957907845634 39.69306783931642 -2.8199664825478975e-15
    vertex 117.23957907845634 35.69306783931642 24.999999999999996
    vertex 117.23957907845634 35.69306783931642 -2.8199664825478975e-15
  endloop
endfacet
facet normal 1.0 0.0 0.0
  outer loop
    vertex 117.23957907845634 35.69306783931642 24.999999999999996
    vertex 117.23957907845634 39.69306783931642 -2.8199664825478975e-15
    vertex 117.23957907845634 39.69306783931642 24.999999999999996
  endloop
endfacet
facet normal 0.0 0.0 1.0
  outer loop
    vertex 117.23957907845634 35.69306783931642 24.999999999999996
    vertex 97.23957907845634 39.69306783931642 24.999999999999996
    vertex 97.23957907845634 35.69306783931642 24.999999999999996
  endloop
endfacet
facet normal 0.0 0.0 1.0
  outer loop
    vertex 97.23957907845634 39.69306783931642 24.999999999999996
    vertex 117.23957907845634 35.69306783931642 24.999999999999996
    vertex 117.23957907845634 39.69306783931642 24.999999999999996
  endloop
endfacet
facet normal -1.0 0.0 0.0
  outer loop
    vertex 97.23957907845634 39.69306783931642 24.999999999999996
    vertex 97.23957907845634 35.69306783931642 0.0
    vertex 97.23957907845634 35.69306783931642 24.999999999999996
  endloop
endfacet
facet normal -1.0 0.0 0.0
  outer loop
    vertex 97.23957907845634 35.69306783931642 0.0
    vertex 97.23957907845634 39.69306783931642 24.999999999999996
    vertex 97.23957907845634 39.69306783931642 0.0
  endloop
endfacet
facet normal 0.0 -1.0 0.0
  outer loop
    vertex 97.23957907845634 35.69306783931642 24.999999999999996
    vertex 87.23957907845633 35.69306783931642 0.0
    vertex 97.23957907845634 35.69306783931642 0.0
  endloop
endfacet
facet normal 0.0 -1.0 0.0
  outer loop
    vertex 87.23957907845633 35.69306783931642 0.0
    vertex 97.23957907845634 35.69306783931642 24.999999999999996
    vertex 87.23957907845633 35.69306783931642 24.999999999999996
  endloop
endfacet
facet normal 0.0 -1.0 0.0
  outer loop
    vertex 87.23957907845633 35.69306783931642 24.999999999999996
    vertex 67.23957907845634 35.69306783931642 0.0
    vertex 87.23957907845633 35.69306783931642 0.0
  endloop
endfacet
facet normal 0.0 -1.0 0.0
  outer loop
    vertex 67.23957907845634 35.69306783931642 0.0
    vertex 87.23957907845633 35.69306783931642 24.999999999999996
    vertex 67.23957907845634 35.69306783931642 24.999999999999996
  endloop
endfacet
facet normal 0.0 0.0 -1.0
  outer loop
    vertex 87.23957907845633 39.69306783931642 0.0
    vertex 67.23957907845634 35.69306783931642 0.0
    vertex 67.23957907845634 39.69306783931642 0.0
  endloop
endfacet
facet normal 0.0 0.0 -1.0
  outer loop
    vertex 67.23957907845634 35.69306783931642 0.0
    vertex 87.23957907845633 39.69306783931642 0.0
    vertex 87.23957907845633 35.69306783931642 0.0
  endloop
endfacet
facet normal 0.0 0.0 1.0
  outer loop
    vertex 87.23957907845633 35.69306783931642 24.999999999999996
    vertex 67.23957907845634 39.69306783931642 24.999999999999996
    vertex 67.23957907845634 35.69306783931642 24.999999999999996
  endloop
endfacet
facet normal 0.0 0.0 1.0
  outer loop
    vertex 67.23957907845634 39.69306783931642 24.999999999999996
    vertex 87.23957907845633 35.69306783931642 24.999999999999996
    vertex 87.23957907845633 39.69306783931642 24.999999999999996
  endloop
endfacet
facet normal -1.0 -0.0 -0.0
  outer loop
    vertex 67.23957907845634 39.69306783931642 24.999999999999996
    vertex 67.23957907845634 35.69306783931642 0.0
    vertex 67.23957907845634 35.69306783931642 24.999999999999996
  endloop
endfacet
facet normal -1.0 -0.0 -0.0
  outer loop
    vertex 67.23957907845634 35.69306783931642 0.0
    vertex 67.23957907845634 39.69306783931642 24.999999999999996
    vertex 67.23957907845634 39.69306783931642 0.0
  endloop
endfacet
facet normal -1.0 0.0 0.0
  outer loop
    vertex 87.23957907845633 39.69306783931642 24.999999999999996
    vertex 87.23957907845633 35.69306783931642 0.0
    vertex 87.23957907845633 35.69306783931642 24.999999999999996
  endloop
endfacet
facet normal -1.0 0.0 0.0
  outer loop
    vertex 87.23957907845633 35.69306783931642 0.0
    vertex 87.23957907845633 39.69306783931642 24.999999999999996
    vertex 87.23957907845633 39.69306783931642 0.0
  endloop
endfacet
endsolid Untitled-6541039d
